<?xml version="1.0" encoding="UTF-8" standalone="no"?>
<svg
   xmlns:dc="http://purl.org/dc/elements/1.1/"
   xmlns:cc="http://creativecommons.org/ns#"
   xmlns:rdf="http://www.w3.org/1999/02/22-rdf-syntax-ns#"
   xmlns:svg="http://www.w3.org/2000/svg"
   xmlns="http://www.w3.org/2000/svg"
   xmlns:xlink="http://www.w3.org/1999/xlink"
   xmlns:sodipodi="http://sodipodi.sourceforge.net/DTD/sodipodi-0.dtd"
   xmlns:inkscape="http://www.inkscape.org/namespaces/inkscape"
   inkscape:export-ydpi="96"
   inkscape:export-xdpi="96"
   inkscape:export-filename="..\..\256x256\emblems\emblem-system.png"
   width="256px"
   height="256px"
   id="svg11300"
   sodipodi:version="0.32"
   inkscape:version="1.0.1 (3bc2e813f5, 2020-09-07)"
   sodipodi:docname="emblem-system.svg"
   inkscape:output_extension="org.inkscape.output.svg.inkscape"
   version="1.1">
  <title
     id="title29">Emblem System Icon</title>
  <defs
     id="defs3">
    <linearGradient
       id="linearGradient3264">
      <stop
         style="stop-color:#c9c9c9;stop-opacity:1;"
         offset="0"
         id="stop3266" />
      <stop
         id="stop3276"
         offset="0.25"
         style="stop-color:#f8f8f8;stop-opacity:1;" />
      <stop
         id="stop3272"
         offset="0.5"
         style="stop-color:#e2e2e2;stop-opacity:1;" />
      <stop
         style="stop-color:#b0b0b0;stop-opacity:1;"
         offset="0.75"
         id="stop3274" />
      <stop
         style="stop-color:#c9c9c9;stop-opacity:1;"
         offset="1"
         id="stop3268" />
    </linearGradient>
    <linearGradient
       inkscape:collect="always"
       id="linearGradient3256">
      <stop
         style="stop-color:#000000;stop-opacity:1;"
         offset="0"
         id="stop3258" />
      <stop
         style="stop-color:#000000;stop-opacity:0;"
         offset="1"
         id="stop3260" />
    </linearGradient>
    <radialGradient
       inkscape:collect="always"
       xlink:href="#linearGradient3256"
       id="radialGradient3262"
       cx="25.455845"
       cy="39.161163"
       fx="25.455845"
       fy="39.161163"
       r="19.622213"
       gradientTransform="matrix(1,0,0,0.315315,0,26.81305)"
       gradientUnits="userSpaceOnUse" />
    <linearGradient
       inkscape:collect="always"
       xlink:href="#linearGradient3264"
       id="linearGradient3281"
       gradientUnits="userSpaceOnUse"
       x1="14.462892"
       y1="12.284524"
       x2="34.534348"
       y2="39.684914"
       gradientTransform="matrix(1.241935,0,0,1.241935,-5.027508,-7.208988)" />
  </defs>
  <sodipodi:namedview
     stroke="#ef2929"
     fill="#eeeeec"
     id="base"
     pagecolor="#ffffff"
     bordercolor="#666666"
     borderopacity="0.25490196"
     inkscape:pageopacity="0.0"
     inkscape:pageshadow="2"
     inkscape:zoom="2.8284271"
     inkscape:cx="94.707661"
     inkscape:cy="126.69262"
     inkscape:current-layer="layer1"
     showgrid="false"
     inkscape:grid-bbox="true"
     inkscape:document-units="px"
     inkscape:showpageshadow="false"
     inkscape:window-width="1579"
     inkscape:window-height="932"
     inkscape:window-x="6"
     inkscape:window-y="109"
     inkscape:document-rotation="0"
     inkscape:pagecheckerboard="true"
     inkscape:window-maximized="0" />
  <metadata
     id="metadata4">
    <rdf:RDF>
      <cc:Work
         rdf:about="">
        <dc:format>image/svg+xml</dc:format>
        <dc:type
           rdf:resource="http://purl.org/dc/dcmitype/StillImage" />
        <dc:creator>
          <cc:Agent>
            <dc:title>Jakub Steiner, Daniel S. Fowler</dc:title>
          </cc:Agent>
        </dc:creator>
        <dc:source>https://tekeye.uk/free_resources/tango_desktop_project/index</dc:source>
        <cc:license
           rdf:resource="http://creativecommons.org/publicdomain/zero/1.0/" />
        <dc:title>Emblem System Icon</dc:title>
        <dc:subject>
          <rdf:Bag>
            <rdf:li>emblem</rdf:li>
            <rdf:li>system</rdf:li>
            <rdf:li>library</rdf:li>
            <rdf:li>crucial</rdf:li>
            <rdf:li>base</rdf:li>
            <rdf:li>settings</rdf:li>
            <rdf:li>gear</rdf:li>
            <rdf:li>computer</rdf:li>
            <rdf:li>icon</rdf:li>
          </rdf:Bag>
        </dc:subject>
        <dc:date> 2020-12-27</dc:date>
        <dc:rights>
          <cc:Agent>
            <dc:title>Public Domain</dc:title>
          </cc:Agent>
        </dc:rights>
        <dc:publisher>
          <cc:Agent>
            <dc:title>https://tekeye.uk/</dc:title>
          </cc:Agent>
        </dc:publisher>
        <dc:identifier>https://tekeye.uk/free_resources/tango_desktop_project/images/svg/emblems/emblem-system.svg</dc:identifier>
        <dc:relation>https://tekeye.uk/free_resources/tango_desktop_project/images/svg/emblems/emblem-readonly.svg</dc:relation>
        <dc:language>en-GB</dc:language>
        <dc:coverage>computing</dc:coverage>
        <dc:description>A system or settings icon, can be used to represent system or settings information.</dc:description>
      </cc:Work>
      <cc:License
         rdf:about="http://creativecommons.org/publicdomain/zero/1.0/">
        <cc:permits
           rdf:resource="http://creativecommons.org/ns#Reproduction" />
        <cc:permits
           rdf:resource="http://creativecommons.org/ns#Distribution" />
        <cc:permits
           rdf:resource="http://creativecommons.org/ns#DerivativeWorks" />
      </cc:License>
    </rdf:RDF>
  </metadata>
  <g
     id="layer1"
     inkscape:label="Layer 1"
     inkscape:groupmode="layer">
    <g
       id="g27"
       transform="matrix(5.3073683,0,0,5.3073769,-1.7854603,1.184138)">
      <ellipse
         style="color:#000000;display:inline;overflow:visible;visibility:visible;opacity:0.409091;fill:url(#radialGradient3262);fill-opacity:1;fill-rule:nonzero;stroke:none;stroke-width:1;stroke-linecap:butt;stroke-linejoin:miter;stroke-miterlimit:4;stroke-dasharray:none;stroke-dashoffset:0;stroke-opacity:1;marker:none;marker-start:none;marker-mid:none;marker-end:none"
         id="path3254"
         transform="translate(-0.883885,2.474874)"
         cx="25.455845"
         cy="39.161163"
         rx="19.622213"
         ry="6.1871843" />
      <path
         style="color:#000000;display:inline;overflow:visible;visibility:visible;opacity:1;fill:url(#linearGradient3281);fill-opacity:1;fill-rule:nonzero;stroke:#808080;stroke-width:1;stroke-linecap:butt;stroke-linejoin:miter;stroke-miterlimit:4;stroke-dasharray:none;stroke-dashoffset:0;stroke-opacity:1;marker:none;marker-start:none;marker-mid:none;marker-end:none"
         d="M 23.25,0.46875 C 22.784561,0.50059628 22.332166,0.57268469 21.875,0.625 H 21.84375 L 20.75,6.59375 C 18.967275,6.9997399 17.290091,7.6887415 15.78125,8.625 L 10.875,5.09375 C 9.5487118,6.1234406 8.3418016,7.3243453 7.28125,8.625 l 3.40625,4.96875 c -1.0342329,1.580515 -1.8119683,3.385224 -2.25,5.28125 -7.5e-5,0.009 -6.09e-5,0.02969 0,0.03125 L 2.5,19.84375 c -0.1085533,0.886633 -0.15625,1.802939 -0.15625,2.71875 10e-8,0.7493 0.020689,1.488589 0.09375,2.21875 l 5.9375,1.0625 c 0.422279,2.061892 1.2244587,3.987512 2.34375,5.6875 L 7.1875,36.375 c 1.0113261,1.255518 2.1788917,2.398616 3.4375,3.40625 l 5,-3.4375 c 1.747433,1.114717 3.698083,1.896374 5.8125,2.28125 l 0.9375,5.90625 c 0.666183,0.06064 1.349349,0.0625 2.03125,0.0625 0.962685,-10e-7 1.882237,-0.03648 2.8125,-0.15625 l 1.125,-6.03125 C 30.351311,37.906649 32.237219,37.03996 33.875,35.875 l 4.8125,3.5 c 1.248028,-1.061797 2.389277,-2.282256 3.375,-3.59375 l -3.5,-5.0625 c 0.947853,-1.63699 1.604629,-3.443141 1.9375,-5.375 l 5.90625,-0.9375 c 0.05179,-0.616346 0.0625,-1.214087 0.0625,-1.84375 0,-1.094214 -0.127182,-2.167084 -0.28125,-3.21875 l -6,-1.09375 C 39.717306,16.513776 38.945824,14.893898 37.96875,13.4375 L 41.5,8.59375 C 40.405427,7.2551429 39.156822,6.0185688 37.78125,4.96875 l -5.09375,3.5 C 31.223504,7.6029126 29.648037,6.9385679 27.9375,6.5625 L 27,0.625 C 26.146701,0.52462461 25.286379,0.46875 24.40625,0.46875 c -0.237872,10e-9 -0.482684,-0.007485 -0.71875,0 -0.115083,0.003649 -0.228966,-0.006695 -0.34375,0 -0.03109,0.001813 -0.06272,-0.002123 -0.09375,0 z m 0.8125,15.1875 c 0.114166,-0.0058 0.228152,0 0.34375,0 3.699127,0 6.71875,3.019624 6.71875,6.71875 1e-6,3.699126 -3.019624,6.6875 -6.71875,6.6875 -3.699125,1e-6 -6.6875,-2.988374 -6.6875,-6.6875 1e-6,-3.583527 2.8046,-6.539158 6.34375,-6.71875 z"
         id="path3243" />
      <circle
         style="color:#000000;display:inline;overflow:visible;visibility:visible;opacity:0.647727;fill:none;fill-opacity:1;fill-rule:nonzero;stroke:#ffffff;stroke-width:1.64876;stroke-linecap:butt;stroke-linejoin:miter;stroke-miterlimit:4;stroke-dasharray:none;stroke-dashoffset:0;stroke-opacity:1;marker:none;marker-start:none;marker-mid:none;marker-end:none"
         id="path3283"
         transform="matrix(0.606518,0,0,0.606518,10.15021,7.936835)"
         cx="23.511301"
         cy="23.781593"
         r="12.727922" />
      <path
         id="path3285"
         d="M 22.557788,1.6501132 21.679599,7.4291233 C 20.008601,7.8096689 16.934874,8.9735344 15.520595,9.8511162 L 10.848562,6.3639293 C 9.6053938,7.3290873 9.5201391,7.3945394 8.5260544,8.6136804 l 3.3780526,5.0099536 c -0.969415,1.481461 -2.1338039,4.121495 -2.5518734,6.008088 0,0 -5.9194088,0.997841 -5.9194088,0.997841 -0.1017499,0.831066 -0.05285,2.609798 0.015632,3.294198 l 5.6542436,1.018588 c 0.395814,1.932669 1.8770306,5.043588 2.9261736,6.637034 l -3.575576,4.724044 c 0.9479445,1.176832 1.1376642,1.284521 2.317393,2.229005 l 4.781168,-3.50282 c 1.637918,1.044855 4.889033,2.315886 6.870935,2.676641 l 0.784687,5.706254 c 0.624432,0.05684 2.349481,0.216281 3.221443,0.10402 l 0.878188,-5.940154 c 1.881743,-0.468289 5.13316,-1.80296 6.668298,-2.89491 l 4.776055,3.450808 c 1.169811,-0.995251 1.180292,-1.145216 2.104238,-2.374516 l -3.539198,-5.030701 c 0.888449,-1.534398 2.037228,-4.535223 2.349237,-6.346009 l 5.794642,-0.961463 c 0.04855,-0.577719 0.05091,-2.188789 -0.0935,-3.174545 L 39.463105,19.226449 C 39.022378,17.599038 37.509894,14.666467 36.594056,13.301345 L 40.346408,8.5773019 C 39.320436,7.3225876 38.938964,7.150431 37.649602,6.1664065 L 32.707289,9.7056032 C 31.335043,8.8940304 28.598675,7.6568558 26.995341,7.3043568 L 26.122266,1.6501132 c -0.799821,-0.094085 -3.107395,-0.052306 -3.564478,0 z"
         style="color:#000000;display:inline;overflow:visible;visibility:visible;opacity:0.346591;fill:none;fill-opacity:1;fill-rule:nonzero;stroke:#ffffff;stroke-width:1;stroke-linecap:butt;stroke-linejoin:miter;stroke-miterlimit:4;stroke-dasharray:none;stroke-dashoffset:0;stroke-opacity:1;marker:none;marker-start:none;marker-mid:none;marker-end:none"
         sodipodi:nodetypes="ccccccccccccccccccccccccccccccccc" />
    </g>
  </g>
</svg>
