<?xml version="1.0" encoding="UTF-8" standalone="no"?>
<svg
   xmlns:dc="http://purl.org/dc/elements/1.1/"
   xmlns:cc="http://creativecommons.org/ns#"
   xmlns:rdf="http://www.w3.org/1999/02/22-rdf-syntax-ns#"
   xmlns:svg="http://www.w3.org/2000/svg"
   xmlns="http://www.w3.org/2000/svg"
   xmlns:xlink="http://www.w3.org/1999/xlink"
   xmlns:sodipodi="http://sodipodi.sourceforge.net/DTD/sodipodi-0.dtd"
   xmlns:inkscape="http://www.inkscape.org/namespaces/inkscape"
   width="256px"
   height="256px"
   id="svg2327"
   sodipodi:version="0.32"
   inkscape:version="1.0.1 (3bc2e813f5, 2020-09-07)"
   sodipodi:docname="preferences-desktop-wallpaper.svg"
   inkscape:output_extension="org.inkscape.output.svg.inkscape"
   version="1.1"
   inkscape:export-filename="..\..\256x256\apps\preferences-desktop-wallpaper.png"
   inkscape:export-xdpi="96"
   inkscape:export-ydpi="96">
  <title
     id="title148">Desktop Wallpaper Settings Icon</title>
  <defs
     id="defs3">
    <linearGradient
       inkscape:collect="always"
       id="linearGradient2399">
      <stop
         style="stop-color:#ffffff;stop-opacity:1;"
         offset="0"
         id="stop2401" />
      <stop
         style="stop-color:#ffffff;stop-opacity:0;"
         offset="1"
         id="stop2403" />
    </linearGradient>
    <linearGradient
       id="linearGradient4930">
      <stop
         style="stop-color:#babdb6;stop-opacity:1;"
         offset="0"
         id="stop4932" />
      <stop
         style="stop-color:#50544c;stop-opacity:1;"
         offset="1"
         id="stop4934" />
    </linearGradient>
    <linearGradient
       inkscape:collect="always"
       id="linearGradient4920">
      <stop
         style="stop-color:#2c65b9;stop-opacity:1;"
         offset="0"
         id="stop4922" />
      <stop
         style="stop-color:#2c65b9;stop-opacity:0;"
         offset="1"
         id="stop4924" />
    </linearGradient>
    <linearGradient
       id="linearGradient4910">
      <stop
         style="stop-color:#6a6352;stop-opacity:1;"
         offset="0"
         id="stop4912" />
      <stop
         style="stop-color:#3b372e;stop-opacity:1;"
         offset="1"
         id="stop4914" />
    </linearGradient>
    <linearGradient
       id="linearGradient4902">
      <stop
         style="stop-color:#204a87;stop-opacity:1;"
         offset="0"
         id="stop4904" />
      <stop
         style="stop-color:#173561;stop-opacity:1;"
         offset="1"
         id="stop4906" />
    </linearGradient>
    <linearGradient
       inkscape:collect="always"
       id="linearGradient4892">
      <stop
         style="stop-color:#ffffff;stop-opacity:1;"
         offset="0"
         id="stop4894" />
      <stop
         style="stop-color:#ffffff;stop-opacity:0;"
         offset="1"
         id="stop4896" />
    </linearGradient>
    <linearGradient
       id="linearGradient4882">
      <stop
         style="stop-color:#e7e5e0;stop-opacity:1;"
         offset="0"
         id="stop4884" />
      <stop
         style="stop-color:#ffffff;stop-opacity:1;"
         offset="1"
         id="stop4886" />
    </linearGradient>
    <linearGradient
       id="linearGradient4872">
      <stop
         style="stop-color:#e5d28f;stop-opacity:1;"
         offset="0"
         id="stop4874" />
      <stop
         style="stop-color:#ab8f2a;stop-opacity:1;"
         offset="1"
         id="stop4876" />
    </linearGradient>
    <linearGradient
       id="linearGradient2329">
      <stop
         id="stop2331"
         offset="0.0000000"
         style="stop-color:#ffffff;stop-opacity:1.0000000;" />
      <stop
         id="stop2333"
         offset="1.0000000"
         style="stop-color:#ffffff;stop-opacity:0.0000000;" />
    </linearGradient>
    <linearGradient
       id="linearGradient2321"
       inkscape:collect="always">
      <stop
         id="stop2323"
         offset="0"
         style="stop-color:#7b7f7a;stop-opacity:1;" />
      <stop
         id="stop2325"
         offset="1"
         style="stop-color:#7b7f7a;stop-opacity:0;" />
    </linearGradient>
    <linearGradient
       id="linearGradient2711">
      <stop
         id="stop2713"
         offset="0.0000000"
         style="stop-color:#909090;stop-opacity:1.0000000;" />
      <stop
         id="stop2715"
         offset="1.0000000"
         style="stop-color:#bebebe;stop-opacity:0.0000000;" />
    </linearGradient>
    <linearGradient
       id="linearGradient2701">
      <stop
         id="stop2703"
         offset="0.0000000"
         style="stop-color:#585956;stop-opacity:1.0000000;" />
      <stop
         id="stop2705"
         offset="1.0000000"
         style="stop-color:#bbbeb8;stop-opacity:1.0000000;" />
    </linearGradient>
    <linearGradient
       id="linearGradient2683"
       inkscape:collect="always">
      <stop
         id="stop2685"
         offset="0"
         style="stop-color:#000000;stop-opacity:1;" />
      <stop
         id="stop2687"
         offset="1"
         style="stop-color:#000000;stop-opacity:0;" />
    </linearGradient>
    <linearGradient
       id="linearGradient2667">
      <stop
         id="stop2669"
         offset="0.0000000"
         style="stop-color:#ffffff;stop-opacity:1.0000000;" />
      <stop
         id="stop2671"
         offset="1.0000000"
         style="stop-color:#fcfcff;stop-opacity:0.0000000;" />
    </linearGradient>
    <linearGradient
       inkscape:collect="always"
       id="linearGradient2454">
      <stop
         style="stop-color:#000000;stop-opacity:1;"
         offset="0"
         id="stop2456" />
      <stop
         style="stop-color:#000000;stop-opacity:0;"
         offset="1"
         id="stop2458" />
    </linearGradient>
    <linearGradient
       inkscape:collect="always"
       id="linearGradient2415">
      <stop
         style="stop-color:#ffffff;stop-opacity:1;"
         offset="0"
         id="stop2417" />
      <stop
         style="stop-color:#ffffff;stop-opacity:0;"
         offset="1"
         id="stop2419" />
    </linearGradient>
    <linearGradient
       id="linearGradient2253">
      <stop
         style="stop-color:#8f8f8f;stop-opacity:1.0000000;"
         offset="0.0000000"
         id="stop2255" />
      <stop
         style="stop-color:#494949;stop-opacity:1.0000000;"
         offset="1.0000000"
         id="stop2257" />
    </linearGradient>
    <linearGradient
       id="linearGradient2245">
      <stop
         style="stop-color:#dde1d9;stop-opacity:1.0000000;"
         offset="0.0000000"
         id="stop2247" />
      <stop
         style="stop-color:#cacdc6;stop-opacity:1.0000000;"
         offset="1.0000000"
         id="stop2249" />
    </linearGradient>
    <linearGradient
       inkscape:collect="always"
       xlink:href="#linearGradient2245"
       id="linearGradient2251"
       gradientTransform="matrix(1.129863,0,0,0.885063,2.875,1.570628)"
       x1="8.6116238"
       y1="7.2293582"
       x2="34.784473"
       y2="33.339787"
       gradientUnits="userSpaceOnUse" />
    <linearGradient
       inkscape:collect="always"
       xlink:href="#linearGradient2415"
       id="linearGradient2421"
       gradientTransform="matrix(1.108069,0,0,0.902471,5.5,3.875)"
       x1="17.698339"
       y1="13.004725"
       x2="34.974548"
       y2="55.200756"
       gradientUnits="userSpaceOnUse" />
    <radialGradient
       inkscape:collect="always"
       xlink:href="#linearGradient2454"
       id="radialGradient2460"
       gradientTransform="scale(1.925808,0.519262)"
       cx="12.575710"
       cy="67.501709"
       fx="12.575710"
       fy="67.501709"
       r="8.7662794"
       gradientUnits="userSpaceOnUse" />
    <linearGradient
       gradientUnits="userSpaceOnUse"
       y2="162.45061"
       x2="3.7069974"
       y1="171.29134"
       x1="3.7069976"
       gradientTransform="matrix(5.705159,0,0,0.17528,5.5,2.195627)"
       id="linearGradient2689"
       xlink:href="#linearGradient2683"
       inkscape:collect="always" />
    <linearGradient
       gradientUnits="userSpaceOnUse"
       y2="64.892525"
       x2="12.127711"
       y1="53.535141"
       x1="12.206709"
       gradientTransform="matrix(1.816345,0,0,1.278927,2.5,-40.24508)"
       id="linearGradient2707"
       xlink:href="#linearGradient2701"
       inkscape:collect="always" />
    <linearGradient
       gradientUnits="userSpaceOnUse"
       y2="3.8451097"
       x2="35.520542"
       y1="3.9384086"
       x1="34.300991"
       id="linearGradient2717"
       xlink:href="#linearGradient2711"
       inkscape:collect="always" />
    <linearGradient
       y2="3.8451097"
       x2="35.520542"
       y1="3.9384086"
       x1="34.300991"
       gradientUnits="userSpaceOnUse"
       id="linearGradient2721"
       xlink:href="#linearGradient2711"
       inkscape:collect="always" />
    <linearGradient
       y2="3.8451097"
       x2="35.520542"
       y1="3.9384086"
       x1="34.300991"
       gradientUnits="userSpaceOnUse"
       id="linearGradient2725"
       xlink:href="#linearGradient2711"
       inkscape:collect="always" />
    <linearGradient
       y2="3.8451097"
       x2="35.520542"
       y1="3.9384086"
       x1="34.300991"
       gradientUnits="userSpaceOnUse"
       id="linearGradient2729"
       xlink:href="#linearGradient2711"
       inkscape:collect="always" />
    <linearGradient
       y2="3.8451097"
       x2="35.520542"
       y1="3.9384086"
       x1="34.300991"
       gradientUnits="userSpaceOnUse"
       id="linearGradient2733"
       xlink:href="#linearGradient2711"
       inkscape:collect="always" />
    <linearGradient
       y2="31.246054"
       x2="32.536823"
       y1="5.3817744"
       x1="10.390738"
       gradientTransform="matrix(1.104397,0,0,0.905471,4.5,2.875)"
       gradientUnits="userSpaceOnUse"
       id="linearGradient1561"
       xlink:href="#linearGradient2253"
       inkscape:collect="always" />
    <linearGradient
       gradientUnits="userSpaceOnUse"
       y2="28.205938"
       x2="-35.658386"
       y1="33.416473"
       x1="-35.658386"
       id="linearGradient2327"
       xlink:href="#linearGradient2321"
       inkscape:collect="always" />
    <linearGradient
       gradientUnits="userSpaceOnUse"
       y2="30.962345"
       x2="-35.074745"
       y1="34.242237"
       x1="-35.122688"
       id="linearGradient2337"
       xlink:href="#linearGradient2329"
       inkscape:collect="always" />
    <linearGradient
       inkscape:collect="always"
       xlink:href="#linearGradient2667"
       id="linearGradient2315"
       gradientUnits="userSpaceOnUse"
       gradientTransform="matrix(1.238977,0,0,0.895955,5.14233,1.54348)"
       x1="11.492236"
       y1="1.6537577"
       x2="17.199417"
       y2="26.729263" />
    <linearGradient
       inkscape:collect="always"
       xlink:href="#linearGradient4902"
       id="linearGradient4908"
       x1="21.6875"
       y1="12.093906"
       x2="21.6875"
       y2="7.7189064"
       gradientUnits="userSpaceOnUse"
       gradientTransform="translate(-0.707105)" />
    <linearGradient
       inkscape:collect="always"
       xlink:href="#linearGradient4930"
       id="linearGradient4936"
       x1="23.493534"
       y1="29.476145"
       x2="23.493534"
       y2="6.9308271"
       gradientUnits="userSpaceOnUse" />
    <linearGradient
       inkscape:collect="always"
       xlink:href="#linearGradient2399"
       id="linearGradient2405"
       x1="19.489631"
       y1="15.23002"
       x2="20.727066"
       y2="14.876466"
       gradientUnits="userSpaceOnUse"
       gradientTransform="translate(-0.707105)" />
    <linearGradient
       inkscape:collect="always"
       xlink:href="#linearGradient2399"
       id="linearGradient2425"
       gradientUnits="userSpaceOnUse"
       x1="16.528622"
       y1="11.539805"
       x2="17.279921"
       y2="11.407223"
       gradientTransform="translate(-0.707105)" />
    <radialGradient
       inkscape:collect="always"
       xlink:href="#linearGradient2454"
       id="radialGradient2438"
       gradientUnits="userSpaceOnUse"
       gradientTransform="scale(1.925808,0.519262)"
       cx="12.575710"
       cy="67.501709"
       fx="12.575710"
       fy="67.501709"
       r="8.7662794" />
    <linearGradient
       inkscape:collect="always"
       xlink:href="#linearGradient4910"
       id="linearGradient2440"
       gradientUnits="userSpaceOnUse"
       gradientTransform="translate(1.084646)"
       x1="22.0625"
       y1="20.90625"
       x2="24.673225"
       y2="20.90625" />
    <radialGradient
       inkscape:collect="always"
       xlink:href="#linearGradient4872"
       id="radialGradient2442"
       gradientUnits="userSpaceOnUse"
       gradientTransform="matrix(1,0,0,1.28125,1.084646,-9.461426)"
       cx="28.0625"
       cy="36.908916"
       fx="28.0625"
       fy="36.908916"
       r="7.5" />
    <linearGradient
       inkscape:collect="always"
       xlink:href="#linearGradient4892"
       id="linearGradient2444"
       gradientUnits="userSpaceOnUse"
       gradientTransform="translate(1.084646)"
       x1="28.513193"
       y1="37.765625"
       x2="28.421637"
       y2="30.828125" />
    <linearGradient
       inkscape:collect="always"
       xlink:href="#linearGradient4882"
       id="linearGradient2446"
       gradientUnits="userSpaceOnUse"
       gradientTransform="matrix(1,0,0,0.876289,1.084646,3.151418)"
       x1="28.625"
       y1="25.296875"
       x2="28.625"
       y2="28" />
    <linearGradient
       inkscape:collect="always"
       xlink:href="#linearGradient4920"
       id="linearGradient2448"
       gradientUnits="userSpaceOnUse"
       gradientTransform="translate(1.084646)"
       x1="27.90625"
       y1="18.057989"
       x2="28.84375"
       y2="21.214239" />
  </defs>
  <sodipodi:namedview
     id="base"
     pagecolor="#ffffff"
     bordercolor="#666666"
     borderopacity="0.12156863"
     inkscape:pageopacity="0.0"
     inkscape:pageshadow="2"
     inkscape:zoom="1.9999999"
     inkscape:cx="86.576273"
     inkscape:cy="115.71777"
     inkscape:current-layer="layer1"
     showgrid="false"
     inkscape:grid-bbox="true"
     inkscape:document-units="px"
     inkscape:window-width="1432"
     inkscape:window-height="819"
     inkscape:window-x="315"
     inkscape:window-y="103"
     inkscape:showpageshadow="false"
     fill="#babdb6"
     stroke="#555753"
     inkscape:document-rotation="0"
     inkscape:pagecheckerboard="true"
     inkscape:window-maximized="0" />
  <metadata
     id="metadata4">
    <rdf:RDF>
      <cc:Work
         rdf:about="">
        <dc:format>image/svg+xml</dc:format>
        <dc:type
           rdf:resource="http://purl.org/dc/dcmitype/StillImage" />
        <dc:title>Desktop Wallpaper Settings Icon</dc:title>
        <dc:date> 2021-01-02</dc:date>
        <dc:creator>
          <cc:Agent>
            <dc:title>Jakub Steiner, Daniel S. Fowler</dc:title>
          </cc:Agent>
        </dc:creator>
        <dc:subject>
          <rdf:Bag>
            <rdf:li>wallpaper</rdf:li>
            <rdf:li>background</rdf:li>
            <rdf:li>preferences</rdf:li>
            <rdf:li>settings</rdf:li>
            <rdf:li>paintbrush</rdf:li>
            <rdf:li>computer</rdf:li>
            <rdf:li>icon</rdf:li>
          </rdf:Bag>
        </dc:subject>
        <cc:license
           rdf:resource="http://creativecommons.org/publicdomain/zero/1.0/" />
        <dc:source>https://tekeye.uk/free_resources/tango_desktop_project/index</dc:source>
        <dc:rights>
          <cc:Agent>
            <dc:title>Public Domain</dc:title>
          </cc:Agent>
        </dc:rights>
        <dc:publisher>
          <cc:Agent>
            <dc:title>https://tekeye.uk/</dc:title>
          </cc:Agent>
        </dc:publisher>
        <dc:identifier>https://tekeye.uk/free_resources/tango_desktop_project/images/svg/apps/preferences-desktop-wallpaper.svg</dc:identifier>
        <dc:relation>https://tekeye.uk/free_resources/tango_desktop_project/images/svg/apps/preferences-desktop-screensaver.svg</dc:relation>
        <dc:language>en-GB</dc:language>
        <dc:coverage>computing</dc:coverage>
        <dc:description>An icon for wallpaper settings.</dc:description>
      </cc:Work>
      <cc:License
         rdf:about="http://creativecommons.org/publicdomain/zero/1.0/">
        <cc:permits
           rdf:resource="http://creativecommons.org/ns#Reproduction" />
        <cc:permits
           rdf:resource="http://creativecommons.org/ns#Distribution" />
        <cc:permits
           rdf:resource="http://creativecommons.org/ns#DerivativeWorks" />
      </cc:License>
    </rdf:RDF>
  </metadata>
  <g
     id="layer1"
     inkscape:label="Layer 1"
     inkscape:groupmode="layer">
    <g
       id="g146"
       transform="matrix(5.9190652,0,0,5.9190682,-16.147214,-23.09429)">
      <ellipse
         style="color:#000000;display:inline;overflow:visible;visibility:visible;opacity:0.508571;fill:url(#radialGradient2460);fill-opacity:1;fill-rule:evenodd;stroke:none;stroke-width:1;stroke-linecap:round;stroke-linejoin:miter;stroke-miterlimit:4;stroke-dashoffset:0;stroke-opacity:0.700637;marker:none;marker-start:none;marker-mid:none;marker-end:none"
         id="path2452"
         transform="matrix(1.050251,0,0,1.867888,-0.945558,-28.10611)"
         cx="24.218407"
         cy="35.051105"
         rx="16.882174"
         ry="4.552" />
      <ellipse
         style="color:#000000;display:inline;overflow:visible;visibility:visible;fill:#adb0aa;fill-opacity:1;fill-rule:evenodd;stroke:#4b4d4a;stroke-width:1;stroke-linecap:butt;stroke-linejoin:miter;stroke-miterlimit:4;stroke-dashoffset:0;stroke-opacity:1;marker:none;marker-start:none;marker-mid:none;marker-end:none"
         id="path2407"
         transform="translate(60.03339,8.07843)"
         cx="-35.658386"
         cy="29.716238"
         rx="9.3944187"
         ry="3.939595" />
      <ellipse
         transform="matrix(0.902373,0,0,0.82765,56.55215,12.86792)"
         id="path1825"
         style="color:#000000;display:inline;overflow:visible;visibility:visible;fill:none;fill-opacity:1;fill-rule:evenodd;stroke:url(#linearGradient2327);stroke-width:1.15713;stroke-linecap:butt;stroke-linejoin:miter;stroke-miterlimit:4;stroke-dasharray:none;stroke-dashoffset:0;stroke-opacity:1;marker:none;marker-start:none;marker-mid:none;marker-end:none"
         cx="-35.658386"
         cy="29.716238"
         rx="9.3944187"
         ry="3.939595" />
      <ellipse
         style="color:#000000;display:inline;overflow:visible;visibility:visible;fill:none;fill-opacity:1;fill-rule:evenodd;stroke:url(#linearGradient2337);stroke-width:1.18334;stroke-linecap:butt;stroke-linejoin:miter;stroke-miterlimit:4;stroke-dasharray:none;stroke-dashoffset:0;stroke-opacity:1;marker:none;marker-start:none;marker-mid:none;marker-end:none"
         id="path2983"
         transform="matrix(0.837548,0,0,0.852655,54.17811,11.00615)"
         cx="-35.658386"
         cy="29.716238"
         rx="9.3944187"
         ry="3.939595" />
      <rect
         y="31.078613"
         x="19.972397"
         height="6.3650389"
         width="9.0396729"
         id="rect2699"
         style="color:#000000;display:inline;overflow:visible;visibility:visible;fill:url(#linearGradient2707);fill-opacity:1;fill-rule:evenodd;stroke:none;stroke-width:0.608729;stroke-linecap:butt;stroke-linejoin:miter;stroke-miterlimit:4;stroke-dashoffset:0;stroke-opacity:1;marker:none;marker-start:none;marker-mid:none;marker-end:none" />
      <path
         style="color:#000000;display:inline;overflow:visible;visibility:visible;fill:url(#linearGradient2251);fill-opacity:1;fill-rule:evenodd;stroke:url(#linearGradient1561);stroke-width:1;stroke-linecap:butt;stroke-linejoin:miter;stroke-miterlimit:4;stroke-dashoffset:0;stroke-opacity:1;marker:none;marker-start:none;marker-mid:none;marker-end:none"
         d="M 7.5809024,4.5706221 H 41.169097 c 0.911342,0 1.624147,0.5834818 1.666752,1.401587 l 1.332044,25.5781139 c 0.05821,1.117735 -0.901056,2.020305 -2.020305,2.020305 H 6.602412 c -1.1192491,0 -2.078514,-0.90257 -2.0203052,-2.020305 L 5.9141506,5.9722091 c 0.040284,-0.7735346 0.5475027,-1.401587 1.6667518,-1.401587 z"
         id="rect2404"
         sodipodi:nodetypes="cssssssss" />
      <path
         sodipodi:nodetypes="ccccc"
         id="path2377"
         d="M 8.910535,7.180827 7.6683398,29.226144 H 39.318729 L 37.983712,7.274256 Z"
         style="fill:url(#linearGradient4936);fill-opacity:1;fill-rule:evenodd;stroke:#555753;stroke-width:0.5;stroke-linecap:butt;stroke-linejoin:round;stroke-miterlimit:4;stroke-dasharray:none;stroke-opacity:1" />
      <path
         sodipodi:nodetypes="cc"
         style="fill:none;fill-opacity:0.75;fill-rule:evenodd;stroke:url(#linearGradient2689);stroke-width:0.996181;stroke-linecap:round;stroke-linejoin:miter;stroke-miterlimit:4;stroke-opacity:0.248408"
         d="M 6.6774331,31.610789 H 42.10591"
         id="path2393" />
      <path
         sodipodi:nodetypes="cssssssss"
         id="path2397"
         d="M 7.4145985,5.5813396 41.260101,5.5435383 c 0.283697,-3.169e-4 0.559302,0.2372498 0.582105,0.6525437 l 1.361892,24.803248 c 0.05804,1.057031 -0.539749,1.785871 -1.598371,1.785871 H 7.0817583 c -1.0586228,0 -1.5930144,-0.728791 -1.5358714,-1.785871 L 6.8699773,6.505163 C 6.9086732,5.7893326 7.0363626,5.581762 7.4145985,5.5813396 Z"
         style="color:#000000;display:inline;overflow:visible;visibility:visible;fill:none;fill-opacity:1;fill-rule:evenodd;stroke:url(#linearGradient2421);stroke-width:1;stroke-linecap:butt;stroke-linejoin:miter;stroke-miterlimit:4;stroke-dashoffset:0;stroke-opacity:0.700637;marker:none;marker-start:none;marker-mid:none;marker-end:none" />
      <circle
         transform="matrix(1.331237,0,0,0.658449,-5.91933,5.728866)"
         id="path2709"
         style="color:#000000;display:inline;overflow:visible;visibility:visible;fill:url(#linearGradient2717);fill-opacity:1;fill-rule:evenodd;stroke:none;stroke-width:0.5;stroke-linecap:butt;stroke-linejoin:miter;stroke-miterlimit:4;stroke-dashoffset:0;stroke-opacity:1;marker:none;marker-start:none;marker-mid:none;marker-end:none"
         cx="34.780815"
         cy="3.9384086"
         r="0.83968931" />
      <circle
         style="color:#000000;display:inline;overflow:visible;visibility:visible;fill:url(#linearGradient2721);fill-opacity:1;fill-rule:evenodd;stroke:none;stroke-width:0.5;stroke-linecap:butt;stroke-linejoin:miter;stroke-miterlimit:4;stroke-dashoffset:0;stroke-opacity:1;marker:none;marker-start:none;marker-mid:none;marker-end:none"
         id="path2719"
         transform="matrix(1.331237,0,0,0.658449,-5.80573,7.83465)"
         cx="34.780815"
         cy="3.9384086"
         r="0.83968931" />
      <circle
         transform="matrix(1.331237,0,0,0.658449,-5.69213,9.83465)"
         id="path2723"
         style="color:#000000;display:inline;overflow:visible;visibility:visible;fill:url(#linearGradient2725);fill-opacity:1;fill-rule:evenodd;stroke:none;stroke-width:0.5;stroke-linecap:butt;stroke-linejoin:miter;stroke-miterlimit:4;stroke-dashoffset:0;stroke-opacity:1;marker:none;marker-start:none;marker-mid:none;marker-end:none"
         cx="34.780815"
         cy="3.9384086"
         r="0.83968931" />
      <circle
         style="color:#000000;display:inline;overflow:visible;visibility:visible;fill:url(#linearGradient2729);fill-opacity:1;fill-rule:evenodd;stroke:none;stroke-width:0.5;stroke-linecap:butt;stroke-linejoin:miter;stroke-miterlimit:4;stroke-dashoffset:0;stroke-opacity:1;marker:none;marker-start:none;marker-mid:none;marker-end:none"
         id="path2727"
         transform="matrix(1.331237,0,0,0.658449,-5.57853,11.83465)"
         cx="34.780815"
         cy="3.9384086"
         r="0.83968931" />
      <circle
         transform="matrix(1.331237,0,0,0.658449,-5.46493,13.83465)"
         id="path2731"
         style="color:#000000;display:inline;overflow:visible;visibility:visible;fill:url(#linearGradient2733);fill-opacity:1;fill-rule:evenodd;stroke:none;stroke-width:0.5;stroke-linecap:butt;stroke-linejoin:miter;stroke-miterlimit:4;stroke-dashoffset:0;stroke-opacity:1;marker:none;marker-start:none;marker-mid:none;marker-end:none"
         cx="34.780815"
         cy="3.9384086"
         r="0.83968931" />
      <path
         sodipodi:nodetypes="ccccc"
         style="opacity:0.531429;fill:url(#linearGradient2315);fill-opacity:1;fill-rule:evenodd;stroke:none;stroke-width:0.25pt;stroke-linecap:butt;stroke-linejoin:miter;stroke-opacity:1"
         d="M 9.263312,7.621363 8.460783,25.491693 C 19.505421,23.091063 23.882246,14.999494 37.614815,12.344943 L 37.453343,7.687427 Z"
         id="path2443" />
      <path
         style="color:#000000;display:inline;overflow:visible;visibility:visible;opacity:1;fill:url(#linearGradient4908);fill-opacity:1;fill-rule:nonzero;stroke:none;stroke-width:1;stroke-linecap:butt;stroke-linejoin:miter;stroke-miterlimit:4;stroke-dasharray:none;stroke-dashoffset:0;stroke-opacity:1;marker:none;marker-start:none;marker-mid:none;marker-end:none"
         d="m 12.752542,7.3749999 c 0,0 0.3125,8.9218751 0.3125,9.7500001 0,0.765625 -0.71875,2.03125 0.25,2.03125 0.90625,0 0.1875,-1.296875 0.25,-2.03125 0.05722,-0.672345 0.1875,-4.875 0.1875,-4.875 0,0 0.6875,0.09375 1,-0.8125 0.3125,-0.90625 0.25,-2.8125 0.25,-2.8125 l 0.5,0.75 c 1,6.625 0.535723,10.843918 0.5625,11.34375 0.02344,0.4375 -0.719164,2.40625 0.3125,2.40625 1.312914,0 0.357554,-1.91418 0.375,-2.375 0.01863,-0.492027 0.151206,-4.109375 0.875,-8.375 1.098794,1.609375 0.415354,-1.5 1.665354,5.125 l 15.125,1.375 c -0.25,-6.625 -2.415354,-10.25 -3.915354,-11.3750001 0,0 -17.75,-0.125 -17.75,-0.125 z"
         id="path3523"
         sodipodi:nodetypes="czzzcscczzzcccsc" />
      <circle
         transform="matrix(0.333333,0,0,0.333333,6.558675,10.20833)"
         id="path4938"
         style="color:#000000;display:inline;overflow:visible;visibility:visible;opacity:0.51462;fill:#ffffff;fill-opacity:1;fill-rule:nonzero;stroke:none;stroke-width:1;stroke-linecap:butt;stroke-linejoin:miter;stroke-miterlimit:4;stroke-dasharray:none;stroke-dashoffset:0;stroke-opacity:1;marker:none;marker-start:none;marker-mid:none;marker-end:none"
         cx="29.125"
         cy="36.5"
         r="1.125" />
      <circle
         style="color:#000000;display:inline;overflow:visible;visibility:visible;opacity:0.51462;fill:#ffffff;fill-opacity:1;fill-rule:nonzero;stroke:none;stroke-width:1;stroke-linecap:butt;stroke-linejoin:miter;stroke-miterlimit:4;stroke-dasharray:none;stroke-dashoffset:0;stroke-opacity:1;marker:none;marker-start:none;marker-mid:none;marker-end:none"
         id="path4940"
         transform="matrix(0.250001,0,0,0.250001,5.892011,9.500001)"
         cx="29.125"
         cy="36.5"
         r="1.125" />
      <path
         style="color:#000000;display:inline;overflow:visible;visibility:visible;opacity:0.51462;fill:url(#linearGradient2405);fill-opacity:1;fill-rule:nonzero;stroke:none;stroke-width:1;stroke-linecap:butt;stroke-linejoin:miter;stroke-miterlimit:4;stroke-dasharray:none;stroke-dashoffset:0;stroke-opacity:1;marker:none;marker-start:none;marker-mid:none;marker-end:none"
         d="m 18.672042,12.998214 0.994368,4.331029 0.795495,-0.309359 c 0,0 -0.596621,-3.049398 -1.171146,-3.800699 -0.574524,-0.751301 -0.685009,-0.441942 -1.28163,-0.618718 0,0 0.441942,0.06629 0.662913,0.397747 z"
         id="path1524"
         sodipodi:nodetypes="cccscc" />
      <g
         id="g2427"
         transform="matrix(1.124849,0,0,1.124849,-4.096023,-3.071291)">
        <path
           style="font-style:normal;font-variant:normal;font-weight:bold;font-stretch:normal;font-size:0.902903px;font-family:'Bitstream Vera Sans';writing-mode:lr-tb;text-anchor:start;fill:#4a4a4a;fill-opacity:1;stroke:none;stroke-width:1pt;stroke-linecap:butt;stroke-linejoin:miter;stroke-opacity:1"
           d="m 23.584646,30.192666 h 0.281716 c 0.08376,1e-6 0.147985,0.01866 0.19266,0.05599 0.04497,0.03703 0.06745,0.08994 0.06745,0.158714 -1e-6,0.06907 -0.02248,0.122268 -0.06745,0.159595 -0.04467,0.03703 -0.108895,0.05555 -0.19266,0.05555 h -0.111981 v 0.22837 h -0.169735 v -0.658219 m 0.169735,0.123003 v 0.183843 h 0.09391 c 0.03292,0 0.05834,-0.0079 0.07627,-0.02381 0.01793,-0.01617 0.02689,-0.03894 0.02689,-0.06834 0,-0.02939 -0.009,-0.05202 -0.02689,-0.06789 -0.01793,-0.01587 -0.04335,-0.02381 -0.07627,-0.02381 h -0.09391 m 0.792244,-0.0119 c -0.05173,1e-6 -0.09185,0.01911 -0.120358,0.05731 -0.02851,0.03821 -0.04276,0.092 -0.04276,0.161359 0,0.06907 0.01425,0.122709 0.04276,0.160918 0.02851,0.03821 0.06863,0.05731 0.120358,0.05731 0.05202,0 0.09229,-0.0191 0.120799,-0.05731 0.02851,-0.03821 0.04276,-0.09185 0.04276,-0.160918 -1e-6,-0.06936 -0.01425,-0.123149 -0.04276,-0.161359 -0.02851,-0.03821 -0.06878,-0.05731 -0.120799,-0.05731 m 0,-0.123003 c 0.105808,1e-6 0.188692,0.03027 0.248651,0.09082 0.05996,0.06055 0.08994,0.144165 0.08994,0.250855 -1e-6,0.106397 -0.02998,0.189868 -0.08994,0.250414 -0.05996,0.06055 -0.142843,0.09082 -0.248651,0.09082 -0.105515,0 -0.188399,-0.03027 -0.248651,-0.09082 -0.05996,-0.06055 -0.08994,-0.144017 -0.08994,-0.250414 0,-0.10669 0.02998,-0.190309 0.08994,-0.250855 0.06025,-0.06055 0.143136,-0.09082 0.248651,-0.09082 m 0.466441,0.0119 h 0.189574 l 0.239393,0.451451 v -0.451451 h 0.160918 v 0.658219 h -0.189575 l -0.239392,-0.451451 v 0.451451 h -0.160918 v -0.658219 m 0.663069,0 h 0.185606 l 0.149896,0.234543 0.149896,-0.234543 h 0.186048 l -0.250856,0.380912 v 0.277307 H 25.92699 v -0.277307 l -0.250855,-0.380912"
           id="text2735" />
        <ellipse
           style="color:#000000;display:inline;overflow:visible;visibility:visible;opacity:0.204678;fill:url(#radialGradient2438);fill-opacity:1;fill-rule:evenodd;stroke:none;stroke-width:1;stroke-linecap:round;stroke-linejoin:miter;stroke-miterlimit:4;stroke-dashoffset:0;stroke-opacity:0.700637;marker:none;marker-start:none;marker-mid:none;marker-end:none"
           id="path3994"
           transform="matrix(0.531953,0,0,0.657752,17.94145,18.44946)"
           cx="24.218407"
           cy="35.051105"
           rx="16.882174"
           ry="4.552" />
        <path
           sodipodi:nodetypes="cczccsccsccscsc"
           id="path4900"
           d="m 23.397146,24.5 h 13 c 0,0 0.1875,-4.75 -1.0625,-5.9375 -1.185941,-1.126644 -2.875,-0.875 -2.875,-0.875 l -0.0625,0.5 c 0,0 -0.625,-0.4375 -1.75,-0.5 -1.125,-0.0625 -1.9375,0.0625 -1.9375,0.0625 l 0.375,0.375 c 0,0 -1.5625,-0.625 -3.0625,-0.625 -1.5,0 -1.8125,0.0625 -1.8125,0.0625 l 0.5625,0.3125 c 0,0 -1.25,-0.5625 -2.25,-0.5625 -1,0 -1.875,0.4375 -1.875,0.4375 0,0 1.4375,0.75 2,1.75 0.5625,1 0.75,5 0.75,5 z"
           style="color:#000000;display:inline;overflow:visible;visibility:visible;opacity:1;fill:url(#linearGradient2440);fill-opacity:1;fill-rule:nonzero;stroke:#3a3a3a;stroke-width:0.889009;stroke-linecap:butt;stroke-linejoin:miter;stroke-miterlimit:4;stroke-dasharray:none;stroke-dashoffset:0;stroke-opacity:1;marker:none;marker-start:none;marker-mid:none;marker-end:none" />
        <path
           sodipodi:nodetypes="ccccszsccccc"
           id="rect4400"
           d="m 22.709646,24.53125 v 4.375 c 0,0.948198 0.770553,1.71875 1.71875,1.71875 h 3.25 c -0.239259,2.398287 -0.712485,4.206157 -0.59375,6.290354 0.07437,1.305533 1.205454,3 3,3 1.607173,0 2.762915,-1.566525 2.875,-3.125 0.125,-1.738043 -0.653594,-3.762523 -1,-6.165354 h 3.03125 c 0.9482,0 1.71875,-0.770553 1.71875,-1.71875 v -4.375 c 0,0 -14,0 -14,0 z"
           style="color:#000000;display:inline;overflow:visible;visibility:visible;opacity:1;fill:url(#radialGradient2442);fill-opacity:1;fill-rule:nonzero;stroke:#80754c;stroke-width:0.889009;stroke-linecap:butt;stroke-linejoin:miter;stroke-miterlimit:4;stroke-dasharray:none;stroke-dashoffset:0;stroke-opacity:1;marker:none;marker-start:none;marker-mid:none;marker-end:none" />
        <path
           style="color:#000000;display:inline;overflow:visible;visibility:visible;opacity:0.573099;fill:none;fill-opacity:1;fill-rule:nonzero;stroke:url(#linearGradient2444);stroke-width:0.889009;stroke-linecap:butt;stroke-linejoin:miter;stroke-miterlimit:4;stroke-dasharray:none;stroke-dashoffset:0;stroke-opacity:1;marker:none;marker-start:none;marker-mid:none;marker-end:none"
           d="m 28.709646,29.415625 c -0.191407,1.91863 -0.891433,5.422996 -0.796445,7.090354 0.0595,1.044426 0.660808,2.478578 2.096445,2.478578 1.285738,0 1.953199,-1.269298 2.042867,-2.516078 0.1,-1.390434 -0.765742,-5.130589 -1.042867,-7.052854 z"
           id="path4890"
           sodipodi:nodetypes="cszscc" />
        <path
           style="color:#000000;display:inline;overflow:visible;visibility:visible;opacity:1;fill:#e8daa5;fill-opacity:1;fill-rule:nonzero;stroke:none;stroke-width:1;stroke-linecap:butt;stroke-linejoin:miter;stroke-miterlimit:4;stroke-dasharray:none;stroke-dashoffset:0;stroke-opacity:1;marker:none;marker-start:none;marker-mid:none;marker-end:none"
           d="m 23.209646,24.982422 v 3.796875 c 0,0.829673 0.611734,1.347656 1.441406,1.347656 H 34.83074 c 0.829675,0 1.378906,-0.517984 1.378906,-1.347656 v -3.796875 c 0,0 -13,0 -13,0 z"
           id="path4880"
           sodipodi:nodetypes="ccccccc" />
        <path
           sodipodi:nodetypes="ccccccc"
           id="rect3119"
           d="m 35.584646,25.03125 v 1.916881 c 0,0.40961 -0.376312,0.739369 -0.84375,0.739369 h -10.0625 c -0.467437,0 -0.84375,-0.329759 -0.84375,-0.739369 V 25.03125 c 0,0 11.75,0 11.75,0 z"
           style="color:#000000;display:inline;overflow:visible;visibility:visible;fill:url(#linearGradient2446);fill-opacity:1;fill-rule:nonzero;stroke:none;stroke-width:1;stroke-linecap:butt;stroke-linejoin:miter;stroke-miterlimit:4;stroke-dashoffset:0;stroke-opacity:1;marker:none;marker-start:none;marker-mid:none;marker-end:none" />
        <path
           sodipodi:nodetypes="cscccccccccccccsccsccsccsccsc"
           id="path4918"
           d="m 21.803396,17.875 c 0,0 1.15625,0.71875 1.4375,1.78125 0.28125,1.0625 0.4375,2.09375 0.4375,2.09375 l 0.78125,-1.71875 0.875,0.84375 0.3125,-1.375 1.875,0.5 -0.5,-1.03125 2,0.9375 -0.0625,-0.6875 0.84375,0.75 0.6875,-0.625 1.5,0.65625 0.875,-0.84375 1.25,0.8125 c 0,0 -0.21875,-0.5625 -0.09375,-0.53125 0.125,0.03125 1.21875,0.40625 1.21875,0.40625 l 0.28125,0.34375 c 0,0 -0.190543,-0.957566 -0.625,-1.34375 -0.84375,-0.75 -2.03125,-0.6875 -2.03125,-0.6875 l -0.125,0.875 c 0,0 -1.03125,-0.71875 -1.90625,-0.84375 -0.875,-0.125 -1.75,0.03125 -1.75,0.03125 l -0.1875,0.375 c 0,0 -1.09375,-0.4375 -2.0625,-0.53125 C 25.865896,17.96875 24.615896,18 24.615896,18 l -0.0625,0.34375 c 0,0 -0.90625,-0.4375 -1.3125,-0.46875 -0.40625,-0.03125 -1.40625,0.03125 -1.4375,0 z"
           style="color:#000000;display:inline;overflow:visible;visibility:visible;opacity:1;fill:url(#linearGradient2448);fill-opacity:1;fill-rule:nonzero;stroke:none;stroke-width:1;stroke-linecap:butt;stroke-linejoin:miter;stroke-miterlimit:4;stroke-dasharray:none;stroke-dashoffset:0;stroke-opacity:1;marker:none;marker-start:none;marker-mid:none;marker-end:none" />
        <circle
           transform="matrix(0.888889,0,0,0.888889,3.647723,4.055556)"
           id="path4928"
           style="color:#000000;display:inline;overflow:visible;visibility:visible;opacity:0.51462;fill:#ffffff;fill-opacity:1;fill-rule:nonzero;stroke:none;stroke-width:1;stroke-linecap:butt;stroke-linejoin:miter;stroke-miterlimit:4;stroke-dasharray:none;stroke-dashoffset:0;stroke-opacity:1;marker:none;marker-start:none;marker-mid:none;marker-end:none"
           cx="29.125"
           cy="36.5"
           r="1.125" />
      </g>
      <path
         style="color:#000000;display:inline;overflow:visible;visibility:visible;opacity:0.51462;fill:url(#linearGradient2425);fill-opacity:1;fill-rule:nonzero;stroke:none;stroke-width:1;stroke-linecap:butt;stroke-linejoin:miter;stroke-miterlimit:4;stroke-dasharray:none;stroke-dashoffset:0;stroke-opacity:1;marker:none;marker-start:none;marker-mid:none;marker-end:none"
         d="m 15.755226,9.396389 c 0,0 0.618718,4.331029 0.53033,5.966214 C 16.48443,12.313205 16.086682,9.5510687 16.086682,9.5510687 L 15.070216,8.4904085 Z"
         id="path2410"
         sodipodi:nodetypes="ccccc" />
    </g>
  </g>
</svg>
