<?xml version="1.0" encoding="UTF-8" standalone="no"?>
<svg
   xmlns:dc="http://purl.org/dc/elements/1.1/"
   xmlns:cc="http://creativecommons.org/ns#"
   xmlns:rdf="http://www.w3.org/1999/02/22-rdf-syntax-ns#"
   xmlns:svg="http://www.w3.org/2000/svg"
   xmlns="http://www.w3.org/2000/svg"
   xmlns:xlink="http://www.w3.org/1999/xlink"
   xmlns:sodipodi="http://sodipodi.sourceforge.net/DTD/sodipodi-0.dtd"
   xmlns:inkscape="http://www.inkscape.org/namespaces/inkscape"
   inkscape:export-ydpi="96"
   inkscape:export-xdpi="96"
   inkscape:export-filename="..\..\256x256\apps\preferences-desktop-font.png"
   width="256px"
   height="256px"
   id="svg11300"
   sodipodi:version="0.32"
   inkscape:version="1.0.1 (3bc2e813f5, 2020-09-07)"
   sodipodi:docname="preferences-desktop-font.svg"
   inkscape:output_extension="org.inkscape.output.svg.inkscape"
   version="1.1">
  <title
     id="title46">Font Settings Icon</title>
  <defs
     id="defs3">
    <radialGradient
       inkscape:collect="always"
       xlink:href="#linearGradient5060"
       id="radialGradient6719"
       gradientUnits="userSpaceOnUse"
       gradientTransform="matrix(-2.774389,0,0,1.969706,112.7623,-872.8854)"
       cx="605.71429"
       cy="486.64789"
       fx="605.71429"
       fy="486.64789"
       r="117.14286" />
    <linearGradient
       inkscape:collect="always"
       id="linearGradient5060">
      <stop
         style="stop-color:black;stop-opacity:1;"
         offset="0"
         id="stop5062" />
      <stop
         style="stop-color:black;stop-opacity:0;"
         offset="1"
         id="stop5064" />
    </linearGradient>
    <radialGradient
       inkscape:collect="always"
       xlink:href="#linearGradient5060"
       id="radialGradient6717"
       gradientUnits="userSpaceOnUse"
       gradientTransform="matrix(2.774389,0,0,1.969706,-1891.633,-872.8854)"
       cx="605.71429"
       cy="486.64789"
       fx="605.71429"
       fy="486.64789"
       r="117.14286" />
    <linearGradient
       id="linearGradient5048">
      <stop
         style="stop-color:black;stop-opacity:0;"
         offset="0"
         id="stop5050" />
      <stop
         id="stop5056"
         offset="0.5"
         style="stop-color:black;stop-opacity:1;" />
      <stop
         style="stop-color:black;stop-opacity:0;"
         offset="1"
         id="stop5052" />
    </linearGradient>
    <linearGradient
       inkscape:collect="always"
       xlink:href="#linearGradient5048"
       id="linearGradient6715"
       gradientUnits="userSpaceOnUse"
       gradientTransform="matrix(2.774389,0,0,1.969706,-1892.179,-872.8854)"
       x1="302.85715"
       y1="366.64789"
       x2="302.85715"
       y2="609.50507" />
    <linearGradient
       id="linearGradient11520">
      <stop
         id="stop11522"
         offset="0.0000000"
         style="stop-color:#ffffff;stop-opacity:1.0000000;" />
      <stop
         id="stop11524"
         offset="1.0000000"
         style="stop-color:#dcdcdc;stop-opacity:1.0000000;" />
    </linearGradient>
    <radialGradient
       inkscape:collect="always"
       xlink:href="#linearGradient11520"
       id="radialGradient1366"
       gradientUnits="userSpaceOnUse"
       gradientTransform="matrix(1.995058,0,0,1.995058,-24.32488,-35.70087)"
       cx="24.445690"
       cy="35.878170"
       fx="24.445690"
       fy="35.878170"
       r="20.530962" />
  </defs>
  <sodipodi:namedview
     stroke="#ef2929"
     fill="#eeeeec"
     id="base"
     pagecolor="#ffffff"
     bordercolor="#666666"
     borderopacity="0.25490196"
     inkscape:pageopacity="0.0"
     inkscape:pageshadow="2"
     inkscape:zoom="2"
     inkscape:cx="93.689164"
     inkscape:cy="122.6126"
     inkscape:current-layer="layer1"
     showgrid="false"
     inkscape:grid-bbox="true"
     inkscape:document-units="px"
     inkscape:showpageshadow="false"
     inkscape:window-width="1592"
     inkscape:window-height="820"
     inkscape:window-x="271"
     inkscape:window-y="141"
     inkscape:document-rotation="0"
     inkscape:pagecheckerboard="true"
     inkscape:window-maximized="0" />
  <metadata
     id="metadata4">
    <rdf:RDF>
      <cc:Work
         rdf:about="">
        <dc:format>image/svg+xml</dc:format>
        <dc:type
           rdf:resource="http://purl.org/dc/dcmitype/StillImage" />
        <dc:creator>
          <cc:Agent>
            <dc:title>Jakub Steiner, Daniel S. Fowler</dc:title>
          </cc:Agent>
        </dc:creator>
        <dc:source>https://tekeye.uk/free_resources/tango_desktop_project/index</dc:source>
        <cc:license
           rdf:resource="http://creativecommons.org/publicdomain/zero/1.0/" />
        <dc:title>Font Settings Icon</dc:title>
        <dc:date> 2021-01-02</dc:date>
        <dc:rights>
          <cc:Agent>
            <dc:title>Public Domain</dc:title>
          </cc:Agent>
        </dc:rights>
        <dc:publisher>
          <cc:Agent>
            <dc:title>https://tekeye.uk/</dc:title>
          </cc:Agent>
        </dc:publisher>
        <dc:identifier>https://tekeye.uk/free_resources/tango_desktop_project/images/svg/apps/preferences-desktop-font.svg</dc:identifier>
        <dc:relation>https://tekeye.uk/free_resources/tango_desktop_project/images/svg/apps/accessories-character-map.svg</dc:relation>
        <dc:language>en-GB</dc:language>
        <dc:subject>
          <rdf:Bag>
            <rdf:li>font</rdf:li>
            <rdf:li>settings</rdf:li>
            <rdf:li>computer</rdf:li>
            <rdf:li>icon</rdf:li>
          </rdf:Bag>
        </dc:subject>
        <dc:coverage>computing</dc:coverage>
        <dc:description>An icon for font settings.</dc:description>
      </cc:Work>
      <cc:License
         rdf:about="http://creativecommons.org/publicdomain/zero/1.0/">
        <cc:permits
           rdf:resource="http://creativecommons.org/ns#Reproduction" />
        <cc:permits
           rdf:resource="http://creativecommons.org/ns#Distribution" />
        <cc:permits
           rdf:resource="http://creativecommons.org/ns#DerivativeWorks" />
      </cc:License>
    </rdf:RDF>
  </metadata>
  <g
     id="layer1"
     inkscape:label="Layer 1"
     inkscape:groupmode="layer">
    <g
       id="g44"
       transform="matrix(5.3577006,0,0,5.3577006,-4.4117557,-6.1981786)">
      <g
         transform="matrix(0.0233489,0,0,0.02564584,45.48163,38.7308)"
         id="g6707">
        <rect
           style="color:#000000;display:inline;overflow:visible;visibility:visible;opacity:0.402062;fill:url(#linearGradient6715);fill-opacity:1;fill-rule:nonzero;stroke:none;stroke-width:1;stroke-linecap:round;stroke-linejoin:miter;stroke-miterlimit:4;stroke-dasharray:none;stroke-dashoffset:0;stroke-opacity:1;marker:none;marker-start:none;marker-mid:none;marker-end:none"
           id="rect6709"
           width="1339.6335"
           height="478.35718"
           x="-1559.2523"
           y="-150.69685" />
        <path
           style="color:#000000;display:inline;overflow:visible;visibility:visible;opacity:0.402062;fill:url(#radialGradient6717);fill-opacity:1;fill-rule:nonzero;stroke:none;stroke-width:1;stroke-linecap:round;stroke-linejoin:miter;stroke-miterlimit:4;stroke-dasharray:none;stroke-dashoffset:0;stroke-opacity:1;marker:none;marker-start:none;marker-mid:none;marker-end:none"
           d="m -219.61876,-150.68038 c 0,0 0,478.33079 0,478.33079 142.874166,0.90045 345.40022,-107.16966 345.40014,-239.196175 0,-132.026537 -159.436816,-239.134595 -345.40014,-239.134615 z"
           id="path6711"
           sodipodi:nodetypes="cccc" />
        <path
           sodipodi:nodetypes="cccc"
           id="path6713"
           d="m -1559.2523,-150.68038 c 0,0 0,478.33079 0,478.33079 -142.8742,0.90045 -345.4002,-107.16966 -345.4002,-239.196175 0,-132.026537 159.4368,-239.134595 345.4002,-239.134615 z"
           style="color:#000000;display:inline;overflow:visible;visibility:visible;opacity:0.402062;fill:url(#radialGradient6719);fill-opacity:1;fill-rule:nonzero;stroke:none;stroke-width:1;stroke-linecap:round;stroke-linejoin:miter;stroke-miterlimit:4;stroke-dasharray:none;stroke-dashoffset:0;stroke-opacity:1;marker:none;marker-start:none;marker-mid:none;marker-end:none" />
      </g>
      <rect
         ry="5.454824"
         rx="5.454824"
         y="3.5233452"
         x="4.4147282"
         height="40.061924"
         width="40.061924"
         id="rect11518"
         style="color:#000000;display:inline;overflow:visible;visibility:visible;opacity:1;fill:url(#radialGradient1366);fill-opacity:1;fill-rule:evenodd;stroke:#9b9b9b;stroke-width:1;stroke-linecap:butt;stroke-linejoin:bevel;stroke-miterlimit:10;stroke-dasharray:none;stroke-dashoffset:0;stroke-opacity:1;marker:none;marker-start:none;marker-mid:none;marker-end:none" />
      <rect
         style="color:#000000;display:inline;overflow:visible;visibility:visible;opacity:1;fill:none;fill-opacity:1;fill-rule:evenodd;stroke:#ffffff;stroke-width:1;stroke-linecap:butt;stroke-linejoin:bevel;stroke-miterlimit:10;stroke-dasharray:none;stroke-dashoffset:0;stroke-opacity:1;marker:none;marker-start:none;marker-mid:none;marker-end:none"
         id="rect11528"
         width="37.696587"
         height="37.696587"
         x="5.5973887"
         y="4.706007"
         rx="4.2426391"
         ry="4.2426391" />
      <path
         style="font-style:italic;font-variant:normal;font-weight:normal;font-stretch:normal;font-size:24px;line-height:120%;font-family:'Times New Roman';text-align:start;writing-mode:lr-tb;text-anchor:start;fill:#000000;fill-opacity:1;stroke:none;stroke-width:1pt;stroke-linecap:butt;stroke-linejoin:miter;stroke-opacity:1"
         d="m 19.187523,7.5673065 -2.285156,7.9453125 -0.257812,1.066406 c -0.02345,0.101564 -0.03516,0.187502 -0.03516,0.257813 -8e-6,0.125001 0.03905,0.234376 0.117188,0.328125 0.06249,0.07031 0.140616,0.105469 0.234375,0.105469 0.101553,0 0.234366,-0.0625 0.398437,-0.1875 0.304678,-0.226562 0.710928,-0.695311 1.21875,-1.40625 l 0.398438,0.28125 c -0.539073,0.812501 -1.09376,1.433594 -1.664063,1.863281 -0.570321,0.421875 -1.097664,0.632812 -1.582031,0.632812 -0.335945,0 -0.589851,-0.08594 -0.761719,-0.257812 -0.164069,-0.164063 -0.2461,-0.40625 -0.246093,-0.726563 -7e-6,-0.382811 0.08593,-0.886717 0.257812,-1.511718 l 0.246094,-0.878907 c -1.023444,1.33594 -1.964849,2.269532 -2.824219,2.800782 -0.617191,0.382812 -1.222659,0.574218 -1.816406,0.574218 -0.570315,0 -1.0625017,-0.234375 -1.4765626,-0.703125 -0.4140633,-0.476561 -0.6210943,-1.128904 -0.6210938,-1.957031 -5e-7,-1.242184 0.3710928,-2.550776 1.1132813,-3.925781 0.7499971,-1.382805 1.6992151,-2.4882727 2.8476561,-3.3164065 0.898432,-0.6562397 1.746088,-0.9843644 2.542969,-0.984375 0.476555,1.06e-5 0.871086,0.1250105 1.183594,0.375 0.320304,0.25001 0.562491,0.6640721 0.726562,1.2421875 l 0.421875,-1.3359375 1.863281,-0.28125 m -4.171875,0.609375 c -0.500006,10e-6 -1.031256,0.2343848 -1.59375,0.703125 -0.796879,0.6640711 -1.507816,1.6484455 -2.132812,2.9531255 -0.61719,1.304692 -0.925784,2.484378 -0.925781,3.539062 -3e-6,0.531252 0.13281,0.953127 0.398437,1.265625 0.265622,0.304689 0.570309,0.457032 0.914063,0.457031 0.851558,10e-7 1.777338,-0.628904 2.777343,-1.886718 1.33593,-1.671871 2.003898,-3.386713 2.003907,-5.144532 C 16.457046,9.3993465 16.32814,8.9188783 16.070336,8.621994 15.812515,8.3251289 15.460953,8.1766915 15.015648,8.1766815"
         id="text3423" />
      <path
         style="font-style:normal;font-variant:normal;font-weight:bold;font-stretch:normal;font-size:29.0177px;line-height:120%;font-family:'Arial Rounded CE';text-align:start;writing-mode:lr-tb;text-anchor:start;fill:#000000;fill-opacity:1;stroke:none;stroke-width:1pt;stroke-linecap:butt;stroke-linejoin:miter;stroke-opacity:1"
         d="m 23.843165,20.148025 v 5.908392 c 0.727326,-0.755656 1.468826,-1.331854 2.224503,-1.728594 0.755661,-0.406158 1.690801,-0.609244 2.805423,-0.609259 1.284627,1.5e-5 2.408684,0.307006 3.372176,0.920972 0.97291,0.60455 1.723856,1.487738 2.25284,2.649567 0.538398,1.152407 0.807605,2.522057 0.807622,4.108954 -1.7e-5,1.171294 -0.15115,2.248123 -0.453401,3.230488 -0.292839,0.972928 -0.722625,1.818333 -1.289362,2.536216 -0.566767,0.717888 -1.256315,1.275193 -2.068646,1.671919 -0.802911,0.387281 -1.690822,0.580921 -2.663735,0.580921 -0.5951,0 -1.157129,-0.07084 -1.686088,-0.212532 -0.519531,-0.141688 -0.963487,-0.325882 -1.331868,-0.552583 -0.368396,-0.236146 -0.684832,-0.477016 -0.94931,-0.722609 -0.255045,-0.245592 -0.595096,-0.61398 -1.020154,-1.105167 v 0.382558 c -6e-6,0.727333 -0.174754,1.279916 -0.524246,1.65775 -0.349502,0.368389 -0.793457,0.552583 -1.331868,0.552583 -0.547863,0 -0.987096,-0.184194 -1.317699,-0.552583 -0.321161,-0.377834 -0.481741,-0.930417 -0.481739,-1.65775 V 20.31805 c -2e-6,-0.783987 0.155855,-1.374354 0.467571,-1.7711 0.321157,-0.406152 0.765112,-0.609238 1.331867,-0.609259 0.595086,2.1e-5 1.05321,0.193661 1.374375,0.580921 0.321154,0.377855 0.481733,0.920992 0.481739,1.629413 m 0.184195,11.490902 c -6e-6,1.539682 0.349491,2.725138 1.048491,3.55637 0.708433,0.821794 1.634127,1.232689 2.777086,1.232686 0.972914,3e-6 1.808873,-0.420338 2.507879,-1.261024 0.708428,-0.850123 1.062647,-2.063916 1.06266,-3.641383 -1.3e-5,-1.020145 -0.146424,-1.89861 -0.439233,-2.635398 -0.292834,-0.736767 -0.708452,-1.303518 -1.246855,-1.700257 -0.538425,-0.40616 -1.166575,-0.609246 -1.884451,-0.609258 -0.736787,1.2e-5 -1.393274,0.203098 -1.969464,0.609258 -0.576205,0.396739 -1.029606,0.977659 -1.360205,1.742764 -0.330612,0.755679 -0.495914,1.657758 -0.495908,2.706242"
         id="text3427" />
      <path
         style="font-style:normal;font-variant:normal;font-weight:normal;font-stretch:normal;font-size:19.5219px;line-height:120%;font-family:'Carbon Block';text-align:start;writing-mode:lr-tb;text-anchor:start;fill:#000000;fill-opacity:1;stroke:none;stroke-width:1pt;stroke-linecap:butt;stroke-linejoin:miter;stroke-opacity:1"
         d="m 39.201934,12.649522 c -8e-6,0.195228 -0.01302,0.481548 -0.03904,0.858962 -0.01302,0.364416 -0.01953,0.631215 -0.01952,0.800397 h -2.733061 v -2.40119 c -5e-6,-0.468514 -0.260296,-0.702776 -0.780875,-0.702787 -0.520586,1.1e-5 -0.780878,0.234273 -0.780874,0.702787 v 7.711137 c -4e-6,0.481541 0.260288,0.722311 0.780874,0.722309 0.520579,2e-6 0.78087,-0.240768 0.780875,-0.722309 v -2.557364 h 2.733061 v 2.498799 c -7e-6,0.767861 -0.416474,1.353516 -1.249399,1.756968 -0.663749,0.325364 -1.418594,0.488046 -2.264537,0.488046 -0.858965,0 -1.61381,-0.162682 -2.264536,-0.488046 -0.832934,-0.403452 -1.2494,-0.989107 -1.2494,-1.756968 v -7.515919 c 0,-1.444607 1.171311,-2.166915 3.513936,-2.1669266 1.171307,1.16e-5 2.030268,0.1757086 2.576887,0.5270906 0.663736,0.429491 0.995607,1.177829 0.995615,2.245014"
         id="text3431" />
    </g>
  </g>
</svg>
