<?xml version="1.0" encoding="UTF-8" standalone="no"?>
<svg
   xmlns:dc="http://purl.org/dc/elements/1.1/"
   xmlns:cc="http://creativecommons.org/ns#"
   xmlns:rdf="http://www.w3.org/1999/02/22-rdf-syntax-ns#"
   xmlns:svg="http://www.w3.org/2000/svg"
   xmlns="http://www.w3.org/2000/svg"
   xmlns:xlink="http://www.w3.org/1999/xlink"
   xmlns:sodipodi="http://sodipodi.sourceforge.net/DTD/sodipodi-0.dtd"
   xmlns:inkscape="http://www.inkscape.org/namespaces/inkscape"
   width="256px"
   height="256px"
   id="svg1306"
   sodipodi:version="0.32"
   inkscape:version="1.0.1 (3bc2e813f5, 2020-09-07)"
   sodipodi:docname="weather-storm.svg"
   inkscape:output_extension="org.inkscape.output.svg.inkscape"
   version="1.1"
   inkscape:export-filename="..\..\256x256\status\weather-storm.png"
   inkscape:export-xdpi="96"
   inkscape:export-ydpi="96">
  <title
     id="title625">Stormy Weather Icon</title>
  <defs
     id="defs1308">
    <linearGradient
       inkscape:collect="always"
       id="linearGradient8397">
      <stop
         style="stop-color:#ffffff;stop-opacity:1;"
         offset="0"
         id="stop8400" />
      <stop
         style="stop-color:#ffffff;stop-opacity:0;"
         offset="1"
         id="stop8402" />
    </linearGradient>
    <linearGradient
       inkscape:collect="always"
       xlink:href="#linearGradient8397"
       id="linearGradient13503"
       gradientUnits="userSpaceOnUse"
       x1="238.00478"
       y1="-388.47476"
       x2="245.65462"
       y2="-382.64539" />
    <linearGradient
       inkscape:collect="always"
       id="linearGradient8315">
      <stop
         style="stop-color:#ffffff;stop-opacity:1;"
         offset="0"
         id="stop8317" />
      <stop
         style="stop-color:#ffffff;stop-opacity:0;"
         offset="1"
         id="stop8319" />
    </linearGradient>
    <linearGradient
       inkscape:collect="always"
       xlink:href="#linearGradient8315"
       id="linearGradient13501"
       gradientUnits="userSpaceOnUse"
       x1="230.87598"
       y1="-390.43951"
       x2="235.25652"
       y2="-386.95901" />
    <linearGradient
       inkscape:collect="always"
       id="linearGradient8381">
      <stop
         style="stop-color:#ffffff;stop-opacity:1;"
         offset="0"
         id="stop8383" />
      <stop
         style="stop-color:#ffffff;stop-opacity:0;"
         offset="1"
         id="stop8385" />
    </linearGradient>
    <linearGradient
       inkscape:collect="always"
       xlink:href="#linearGradient8381"
       id="linearGradient13499"
       gradientUnits="userSpaceOnUse"
       x1="246.74042"
       y1="-391.31381"
       x2="252.69785"
       y2="-385.35165" />
    <linearGradient
       inkscape:collect="always"
       id="linearGradient8331">
      <stop
         style="stop-color:#ffffff;stop-opacity:1;"
         offset="0"
         id="stop8333" />
      <stop
         style="stop-color:#ffffff;stop-opacity:0;"
         offset="1"
         id="stop8335" />
    </linearGradient>
    <linearGradient
       inkscape:collect="always"
       xlink:href="#linearGradient8331"
       id="linearGradient13497"
       gradientUnits="userSpaceOnUse"
       x1="240.07379"
       y1="-393.40720"
       x2="245.82706"
       y2="-388.55029" />
    <linearGradient
       inkscape:collect="always"
       id="linearGradient8302">
      <stop
         style="stop-color:#ffffff;stop-opacity:1;"
         offset="0"
         id="stop8304" />
      <stop
         style="stop-color:#ffffff;stop-opacity:0;"
         offset="1"
         id="stop8306" />
    </linearGradient>
    <linearGradient
       inkscape:collect="always"
       xlink:href="#linearGradient8302"
       id="linearGradient13495"
       gradientUnits="userSpaceOnUse"
       gradientTransform="translate(69,155)"
       x1="228.50261"
       y1="-392.30591"
       x2="266.36395"
       y2="-379.26862" />
    <linearGradient
       inkscape:collect="always"
       xlink:href="#linearGradient6538"
       id="linearGradient13143"
       gradientUnits="userSpaceOnUse"
       x1="284.80219"
       y1="-441.23294"
       x2="288.89954"
       y2="-436.83109" />
    <linearGradient
       inkscape:collect="always"
       xlink:href="#linearGradient6549"
       id="linearGradient13141"
       gradientUnits="userSpaceOnUse"
       x1="286.66589"
       y1="-439.48358"
       x2="289.76562"
       y2="-436.70703" />
    <linearGradient
       inkscape:collect="always"
       xlink:href="#linearGradient6527"
       id="linearGradient13139"
       gradientUnits="userSpaceOnUse"
       gradientTransform="translate(-35.00007,207.0001)"
       x1="275.94193"
       y1="-437.10501"
       x2="279.97546"
       y2="-431.91833" />
    <linearGradient
       inkscape:collect="always"
       xlink:href="#linearGradient6538"
       id="linearGradient13137"
       gradientUnits="userSpaceOnUse"
       x1="285.94086"
       y1="-439.93900"
       x2="289.39124"
       y2="-436.44290" />
    <linearGradient
       inkscape:collect="always"
       xlink:href="#linearGradient6513"
       id="linearGradient13135"
       gradientUnits="userSpaceOnUse"
       x1="286.51172"
       y1="-441.29074"
       x2="289.85379"
       y2="-436.14453" />
    <linearGradient
       inkscape:collect="always"
       xlink:href="#linearGradient6497"
       id="linearGradient13133"
       gradientUnits="userSpaceOnUse"
       x1="287.51730"
       y1="-439.75281"
       x2="289.67633"
       y2="-436.32199" />
    <linearGradient
       inkscape:collect="always"
       xlink:href="#linearGradient6470"
       id="linearGradient13131"
       gradientUnits="userSpaceOnUse"
       gradientTransform="translate(-34.00007,207.0001)"
       x1="271.02170"
       y1="-441.05182"
       x2="285.02859"
       y2="-431.96991" />
    <linearGradient
       inkscape:collect="always"
       xlink:href="#linearGradient8874"
       id="linearGradient11195"
       gradientUnits="userSpaceOnUse"
       gradientTransform="translate(14.15871,7.082841)"
       x1="-190.47688"
       y1="-332.51181"
       x2="-196.19046"
       y2="-328.53433" />
    <linearGradient
       inkscape:collect="always"
       xlink:href="#linearGradient8904"
       id="linearGradient11193"
       gradientUnits="userSpaceOnUse"
       gradientTransform="translate(13.80516,2.840199)"
       x1="-191.28896"
       y1="-328.07861"
       x2="-192.41396"
       y2="-315.32861" />
    <linearGradient
       inkscape:collect="always"
       id="linearGradient8874">
      <stop
         style="stop-color:#ffffff;stop-opacity:1;"
         offset="0"
         id="stop8876" />
      <stop
         style="stop-color:#ffffff;stop-opacity:0;"
         offset="1"
         id="stop8878" />
    </linearGradient>
    <linearGradient
       inkscape:collect="always"
       xlink:href="#linearGradient8874"
       id="linearGradient11191"
       gradientUnits="userSpaceOnUse"
       gradientTransform="translate(14.15871,7.082841)"
       x1="-190.47688"
       y1="-332.51181"
       x2="-196.19046"
       y2="-328.53433" />
    <linearGradient
       inkscape:collect="always"
       id="linearGradient8904">
      <stop
         style="stop-color:#fcaf3e;stop-opacity:1;"
         offset="0"
         id="stop8906" />
      <stop
         style="stop-color:#fcaf3e;stop-opacity:0;"
         offset="1"
         id="stop8908" />
    </linearGradient>
    <linearGradient
       inkscape:collect="always"
       xlink:href="#linearGradient8904"
       id="linearGradient11189"
       gradientUnits="userSpaceOnUse"
       gradientTransform="translate(13.80516,2.840199)"
       x1="-191.28896"
       y1="-328.07861"
       x2="-192.41396"
       y2="-315.32861" />
    <radialGradient
       inkscape:collect="always"
       xlink:href="#linearGradient5123"
       id="radialGradient13211"
       gradientUnits="userSpaceOnUse"
       gradientTransform="matrix(5.3723513,0,0,2.5867496,1405.5374,1059.6392)"
       cx="-229.75000"
       cy="-343.95554"
       fx="-229.75000"
       fy="-343.95554"
       r="14.501380" />
    <linearGradient
       inkscape:collect="always"
       xlink:href="#linearGradient6538"
       id="linearGradient13157"
       gradientUnits="userSpaceOnUse"
       x1="284.80219"
       y1="-441.23294"
       x2="288.89954"
       y2="-436.83109" />
    <linearGradient
       inkscape:collect="always"
       id="linearGradient6549">
      <stop
         style="stop-color:#ffffff;stop-opacity:1;"
         offset="0"
         id="stop6551" />
      <stop
         style="stop-color:#ffffff;stop-opacity:0;"
         offset="1"
         id="stop6553" />
    </linearGradient>
    <linearGradient
       inkscape:collect="always"
       xlink:href="#linearGradient6549"
       id="linearGradient13155"
       gradientUnits="userSpaceOnUse"
       x1="286.66589"
       y1="-439.48358"
       x2="289.76562"
       y2="-436.70703" />
    <linearGradient
       inkscape:collect="always"
       id="linearGradient6527">
      <stop
         style="stop-color:#ffffff;stop-opacity:1;"
         offset="0"
         id="stop6530" />
      <stop
         style="stop-color:#ffffff;stop-opacity:0;"
         offset="1"
         id="stop6532" />
    </linearGradient>
    <linearGradient
       inkscape:collect="always"
       xlink:href="#linearGradient6527"
       id="linearGradient13153"
       gradientUnits="userSpaceOnUse"
       gradientTransform="translate(-35.00007,207.0001)"
       x1="275.94193"
       y1="-437.10501"
       x2="279.97546"
       y2="-431.91833" />
    <linearGradient
       inkscape:collect="always"
       id="linearGradient6538">
      <stop
         style="stop-color:#ffffff;stop-opacity:1;"
         offset="0"
         id="stop6540" />
      <stop
         style="stop-color:#ffffff;stop-opacity:0;"
         offset="1"
         id="stop6542" />
    </linearGradient>
    <linearGradient
       inkscape:collect="always"
       xlink:href="#linearGradient6538"
       id="linearGradient13151"
       gradientUnits="userSpaceOnUse"
       x1="285.94086"
       y1="-439.93900"
       x2="289.39124"
       y2="-436.44290" />
    <linearGradient
       inkscape:collect="always"
       id="linearGradient6513">
      <stop
         style="stop-color:#ffffff;stop-opacity:1;"
         offset="0"
         id="stop6515" />
      <stop
         style="stop-color:#ffffff;stop-opacity:0;"
         offset="1"
         id="stop6517" />
    </linearGradient>
    <linearGradient
       inkscape:collect="always"
       xlink:href="#linearGradient6513"
       id="linearGradient13149"
       gradientUnits="userSpaceOnUse"
       x1="286.51172"
       y1="-441.29074"
       x2="289.85379"
       y2="-436.14453" />
    <linearGradient
       inkscape:collect="always"
       id="linearGradient6497">
      <stop
         style="stop-color:#ffffff;stop-opacity:1;"
         offset="0"
         id="stop6499" />
      <stop
         style="stop-color:#ffffff;stop-opacity:0;"
         offset="1"
         id="stop6501" />
    </linearGradient>
    <linearGradient
       inkscape:collect="always"
       xlink:href="#linearGradient6497"
       id="linearGradient13147"
       gradientUnits="userSpaceOnUse"
       x1="287.51730"
       y1="-439.75281"
       x2="289.67633"
       y2="-436.32199" />
    <linearGradient
       inkscape:collect="always"
       id="linearGradient6470">
      <stop
         style="stop-color:#ffffff;stop-opacity:1;"
         offset="0"
         id="stop6472" />
      <stop
         style="stop-color:#ffffff;stop-opacity:0;"
         offset="1"
         id="stop6474" />
    </linearGradient>
    <linearGradient
       inkscape:collect="always"
       xlink:href="#linearGradient6470"
       id="linearGradient13145"
       gradientUnits="userSpaceOnUse"
       gradientTransform="translate(-34.00007,207.0001)"
       x1="271.02170"
       y1="-441.05182"
       x2="285.02859"
       y2="-431.96991" />
    <linearGradient
       inkscape:collect="always"
       id="linearGradient5123">
      <stop
         style="stop-color:#ffffff;stop-opacity:1;"
         offset="0"
         id="stop5125" />
      <stop
         style="stop-color:#ffffff;stop-opacity:0;"
         offset="1"
         id="stop5127" />
    </linearGradient>
    <radialGradient
       inkscape:collect="always"
       xlink:href="#linearGradient5123"
       id="radialGradient13068"
       gradientUnits="userSpaceOnUse"
       gradientTransform="matrix(5.3723513,0,0,2.5867496,1316.4499,1036.5587)"
       cx="-229.75000"
       cy="-343.95554"
       fx="-229.75000"
       fy="-343.95554"
       r="14.501380" />
    <radialGradient
       inkscape:collect="always"
       xlink:href="#linearGradient5130"
       id="radialGradient5136"
       cx="22"
       cy="38.5"
       fx="22"
       fy="38.5"
       r="13"
       gradientTransform="matrix(1,0,0,0.5,0,19.25)"
       gradientUnits="userSpaceOnUse" />
    <linearGradient
       inkscape:collect="always"
       id="linearGradient5130">
      <stop
         style="stop-color:#000000;stop-opacity:1;"
         offset="0"
         id="stop5132" />
      <stop
         style="stop-color:#000000;stop-opacity:0;"
         offset="1"
         id="stop5134" />
    </linearGradient>
    <filter
       inkscape:collect="always"
       x="-0.17349398"
       width="1.346988"
       y="-0.34698796"
       height="1.6939759"
       id="filter5186">
      <feGaussianBlur
         inkscape:collect="always"
         stdDeviation="1.8795181"
         id="feGaussianBlur5188" />
    </filter>
  </defs>
  <sodipodi:namedview
     id="base"
     pagecolor="#ffffff"
     bordercolor="#666666"
     borderopacity="1.0"
     inkscape:pageopacity="0.0"
     inkscape:pageshadow="2"
     inkscape:zoom="0.99999996"
     inkscape:cx="19.667589"
     inkscape:cy="26.617895"
     inkscape:current-layer="layer1"
     showgrid="true"
     inkscape:grid-bbox="true"
     inkscape:document-units="px"
     inkscape:window-width="1353"
     inkscape:window-height="928"
     inkscape:window-x="272"
     inkscape:window-y="89"
     inkscape:showpageshadow="false"
     inkscape:document-rotation="0"
     inkscape:snap-global="false"
     inkscape:pagecheckerboard="true"
     inkscape:window-maximized="0" />
  <metadata
     id="metadata1311">
    <rdf:RDF>
      <cc:Work
         rdf:about="">
        <dc:format>image/svg+xml</dc:format>
        <dc:type
           rdf:resource="http://purl.org/dc/dcmitype/StillImage" />
        <dc:title>Stormy Weather Icon</dc:title>
        <dc:date> 2021-01-09</dc:date>
        <dc:creator>
          <cc:Agent>
            <dc:title>Ryan Collier (pseudo), Daniel S. Fowler</dc:title>
          </cc:Agent>
        </dc:creator>
        <dc:publisher>
          <cc:Agent>
            <dc:title>https://tekeye.uk/</dc:title>
          </cc:Agent>
        </dc:publisher>
        <dc:source>https://tekeye.uk/free_resources/tango_desktop_project/index</dc:source>
        <dc:subject>
          <rdf:Bag>
            <rdf:li>weather</rdf:li>
            <rdf:li>applet</rdf:li>
            <rdf:li>notification</rdf:li>
            <rdf:li>storm</rdf:li>
            <rdf:li>lightning</rdf:li>
            <rdf:li>clouds</rdf:li>
            <rdf:li>computer</rdf:li>
            <rdf:li>icon</rdf:li>
          </rdf:Bag>
        </dc:subject>
        <cc:license
           rdf:resource="http://creativecommons.org/publicdomain/zero/1.0/" />
        <dc:rights>
          <cc:Agent>
            <dc:title>Public Domain</dc:title>
          </cc:Agent>
        </dc:rights>
        <dc:identifier>https://tekeye.uk/free_resources/tango_desktop_project/images/svg/status/weather-storm.svg</dc:identifier>
        <dc:relation>https://tekeye.uk/free_resources/tango_desktop_project/images/svg/status/weather-clear.svg</dc:relation>
        <dc:language>en-GB</dc:language>
        <dc:coverage>computing</dc:coverage>
        <dc:description>An icon for stormy weather.</dc:description>
      </cc:Work>
      <cc:License
         rdf:about="http://creativecommons.org/publicdomain/zero/1.0/">
        <cc:permits
           rdf:resource="http://creativecommons.org/ns#Reproduction" />
        <cc:permits
           rdf:resource="http://creativecommons.org/ns#Distribution" />
        <cc:permits
           rdf:resource="http://creativecommons.org/ns#DerivativeWorks" />
      </cc:License>
    </rdf:RDF>
  </metadata>
  <g
     id="layer1"
     inkscape:label="Layer 1"
     inkscape:groupmode="layer">
    <ellipse
       style="color:#000000;display:inline;overflow:visible;visibility:visible;opacity:0.433735;fill:url(#radialGradient5136);fill-opacity:1;fill-rule:nonzero;stroke:none;stroke-width:1;stroke-linecap:butt;stroke-linejoin:miter;stroke-miterlimit:4;stroke-dasharray:none;stroke-dashoffset:0;stroke-opacity:1;marker:none;marker-start:none;marker-mid:none;marker-end:none;filter:url(#filter5186);enable-background:accumulate"
       id="path4551"
       transform="matrix(7.1955414,0,0,3.0905045,-31.281493,65.016032)"
       cx="22"
       cy="38.5"
       rx="13"
       ry="6.5" />
    <g
       id="g12825"
       transform="matrix(5.7708517,0,0,5.7708517,-1666.7763,1406.3168)">
      <path
         id="path12827"
         d="m 311.5,-242.99998 c -2.77242,0 -5.10823,1.57371 -6.40625,3.8125 -0.94436,-0.47504 -1.96519,-0.8125 -3.09375,-0.8125 -3.864,0 -7,3.136 -7,7 0,3.864 3.136,7 7,7 2.41967,0 4.43009,-1.31932 5.6875,-3.1875 1.1342,0.68962 2.38898,1.1875 3.8125,1.1875 0.91312,0 1.75295,-0.23202 2.5625,-0.53125 0.50994,0.86773 1.17912,1.57972 2,2.15625 -0.007,0.13038 -0.0625,0.24282 -0.0625,0.375 0,3.864 3.13599,7 7,7 3.864,0 7,-3.136 7,-7 0,-2.36969 -1.25898,-4.35834 -3.0625,-5.625 0.007,-0.13038 0.0625,-0.24282 0.0625,-0.375 0,-3.864 -3.13599,-7 -7,-7 -0.6227,0 -1.17519,0.22219 -1.75,0.375 -1.19453,-2.55884 -3.74134,-4.375 -6.75,-4.375 z"
         style="opacity:1;fill:#555753;fill-opacity:1;stroke:none;stroke-width:1;stroke-linecap:butt;stroke-linejoin:miter;stroke-miterlimit:2;stroke-dasharray:none;stroke-dashoffset:0;stroke-opacity:1" />
      <path
         id="path12829"
         d="m 311.5,-241.99998 c -2.78048,0 -5.13451,1.76185 -6.0625,4.21875 -0.98542,-0.70944 -2.13143,-1.21875 -3.4375,-1.21875 -3.312,0 -6,2.688 -6,6 0,3.312 2.688,6 6,6 2.42775,0 4.49324,-1.45558 5.4375,-3.53125 1.12076,0.91756 2.50214,1.53125 4.0625,1.53125 1.07454,0 2.04428,-0.31896 2.9375,-0.78125 0.3984,0.99976 1.10114,1.78632 1.9375,2.4375 -0.18001,0.59562 -0.375,1.18965 -0.375,1.84375 0,3.588 2.912,6.5 6.5,6.5 3.588,0 6.5,-2.912 6.5,-6.5 0,-2.36079 -1.33433,-4.33019 -3.21875,-5.46875 0.0626,-0.34723 0.21875,-0.66608 0.21875,-1.03125 0,-3.312 -2.688,-6 -6,-6 -0.85298,0 -1.6713,0.17868 -2.40625,0.5 -0.85377,-2.59388 -3.21524,-4.49999 -6.09375,-4.5 z"
         style="opacity:1;fill:url(#linearGradient13495);fill-opacity:1;stroke:none;stroke-width:1;stroke-linecap:butt;stroke-linejoin:miter;stroke-miterlimit:2;stroke-dasharray:none;stroke-dashoffset:0;stroke-opacity:1" />
      <circle
         transform="matrix(0.964447,0,0,0.964447,89.28852,144.5262)"
         id="path12831"
         style="opacity:1;fill:#888a85;fill-opacity:1;stroke:none;stroke-width:1;stroke-linecap:butt;stroke-linejoin:miter;stroke-miterlimit:2;stroke-dasharray:none;stroke-dashoffset:0;stroke-opacity:1"
         cx="241.80843"
         cy="-383.6666"
         r="6.7396116" />
      <g
         id="g12833">
        <circle
           style="opacity:1;fill:#888a85;fill-opacity:1;stroke:none;stroke-width:1;stroke-linecap:butt;stroke-linejoin:miter;stroke-miterlimit:2;stroke-dasharray:none;stroke-dashoffset:0;stroke-opacity:1"
           id="path12835"
           transform="matrix(0.88263,0,0,0.88263,96.18078,108.1091)"
           cx="243.95184"
           cy="-389.30136"
           r="6.2313786" />
        <circle
           style="opacity:0.494444;fill:url(#linearGradient13497);fill-opacity:1;stroke:none;stroke-width:1;stroke-linecap:butt;stroke-linejoin:miter;stroke-miterlimit:2;stroke-dasharray:none;stroke-dashoffset:0;stroke-opacity:1"
           id="path12837"
           transform="matrix(0.88263,0,0,0.88263,96.18078,108.1091)"
           cx="243.95184"
           cy="-389.30136"
           r="6.2313786" />
      </g>
      <g
         id="g12839">
        <circle
           style="opacity:1;fill:#888a85;fill-opacity:1;stroke:none;stroke-width:1;stroke-linecap:butt;stroke-linejoin:miter;stroke-miterlimit:2;stroke-dasharray:none;stroke-dashoffset:0;stroke-opacity:1"
           id="path12841"
           transform="matrix(0.911728,0,0,0.911728,90.45407,120.2336)"
           cx="251.22179"
           cy="-385.7879"
           r="6.0325046" />
        <circle
           style="opacity:0.494444;fill:url(#linearGradient13499);fill-opacity:1;stroke:none;stroke-width:1;stroke-linecap:butt;stroke-linejoin:miter;stroke-miterlimit:2;stroke-dasharray:none;stroke-dashoffset:0;stroke-opacity:1"
           id="path12843"
           transform="matrix(0.911728,0,0,0.911728,90.45407,120.2336)"
           cx="251.22179"
           cy="-385.7879"
           r="6.0325046" />
      </g>
      <g
         id="g12845">
        <circle
           style="opacity:1;fill:#888a85;fill-opacity:1;stroke:none;stroke-width:1;stroke-linecap:butt;stroke-linejoin:miter;stroke-miterlimit:2;stroke-dasharray:none;stroke-dashoffset:0;stroke-opacity:1"
           id="path12847"
           transform="matrix(1.142799,0,0,1.142799,35.23229,210.277)"
           cx="233.43362"
           cy="-387.88715"
           r="4.3752232" />
        <circle
           style="opacity:0.494444;fill:url(#linearGradient13501);fill-opacity:1;stroke:none;stroke-width:1;stroke-linecap:butt;stroke-linejoin:miter;stroke-miterlimit:2;stroke-dasharray:none;stroke-dashoffset:0;stroke-opacity:1"
           id="path12849"
           transform="matrix(1.142799,0,0,1.142799,35.23229,210.277)"
           cx="233.43362"
           cy="-387.88715"
           r="4.3752232" />
      </g>
      <g
         id="g12851">
        <circle
           style="opacity:1;fill:#888a85;fill-opacity:1;stroke:none;stroke-width:1;stroke-linecap:butt;stroke-linejoin:miter;stroke-miterlimit:2;stroke-dasharray:none;stroke-dashoffset:0;stroke-opacity:1"
           id="path12853"
           transform="matrix(1.038636,0,0,1.038636,59.84906,169.4899)"
           cx="241.80843"
           cy="-383.6666"
           r="6.7396116" />
        <circle
           style="opacity:0.494444;fill:url(#linearGradient13503);fill-opacity:1;stroke:none;stroke-width:1;stroke-linecap:butt;stroke-linejoin:miter;stroke-miterlimit:2;stroke-dasharray:none;stroke-dashoffset:0;stroke-opacity:1"
           id="path12855"
           transform="matrix(1.038636,0,0,1.038636,59.84907,169.4899)"
           cx="241.80843"
           cy="-383.6666"
           r="6.7396116" />
      </g>
    </g>
    <g
       id="g11177"
       transform="matrix(5.8152504,0,0,4.7790661,1202.7361,1734.6402)">
      <path
         sodipodi:nodetypes="cccccccc"
         id="path11179"
         d="m -173.24571,-327.59122 -3.1245,4.2792 h 3.77943 c 0,0 -2.70318,4.5258 -7.57554,12.9264 2.09618,-7.94732 2.95279,-10.97019 2.95279,-10.97019 h -5.16329 l 4.04281,-6.23541 z"
         style="fill:#edd400;fill-opacity:1;fill-rule:evenodd;stroke:url(#linearGradient11189);stroke-width:1px;stroke-linecap:butt;stroke-linejoin:miter;stroke-opacity:1" />
      <path
         sodipodi:nodetypes="cccccccc"
         id="path11181"
         d="m -173.75946,-327.84461 -3.74322,5.16309 3.9562,-0.17678 c 0,0 -0.13991,0.45993 -5.01227,8.86053 2.09618,-7.94732 2.0689,-7.96498 2.0689,-7.96498 l -4.89812,0.0884 3.68926,-5.70508 z"
         style="opacity:1;fill:url(#linearGradient11191);fill-opacity:1;fill-rule:evenodd;stroke:none;stroke-width:1px;stroke-linecap:butt;stroke-linejoin:miter;stroke-opacity:1" />
    </g>
    <g
       id="g12857"
       transform="matrix(5.7708517,0,0,5.7708517,-1251.1919,1452.483)">
      <path
         sodipodi:nodetypes="ccsscsssscsscc"
         id="path12859"
         d="m 246.49993,-238.49993 c -2.27083,0 -4.10991,1.55028 -4.71875,3.625 -0.69323,-0.36383 -1.44451,-0.625 -2.28125,-0.625 -2.76,0 -5.00001,2.23999 -5,5 0,0.57893 0.16252,1.1077 0.34375,1.625 -1.37347,0.77074 -2.34375,2.189 -2.34375,3.875 0,2.484 2.016,4.50001 4.5,4.5 0.17713,0 18.82287,0 19,0 2.48399,0 4.5,-2.016 4.5,-4.5 0,-1.686 -0.97028,-3.10426 -2.34375,-3.875 0.18124,-0.51729 0.34375,-1.04608 0.34375,-1.625 0,-2.76 -2.24,-4.99999 -5,-5 -0.83674,0 -1.58802,0.26117 -2.28125,0.625 -0.60884,-2.07472 -2.44792,-3.625 -4.71875,-3.625 z"
         style="fill:#888a85;fill-opacity:1;stroke:#555753;stroke-width:1;stroke-linecap:butt;stroke-linejoin:miter;stroke-miterlimit:2;stroke-dasharray:none;stroke-dashoffset:0;stroke-opacity:1" />
      <path
         sodipodi:nodetypes="ccsscsssscsscc"
         id="path12861"
         d="m 246.49993,-237.99993 c -2.18972,0 -3.7236,1.33577 -4.39555,3.84352 -0.66846,-0.34362 -1.54759,-0.83335 -2.35445,-0.83335 -2.71651,0 -4.75514,1.93882 -4.75513,4.54554 0,0.54677 0.26721,1.33344 0.44196,1.82201 -1.32443,0.72795 -2.43683,1.8905 -2.43683,3.37255 0,2.34605 1.54617,4.25009 4.33928,4.25009 0.17081,0 18.15064,0 18.32144,0 2.77101,0 4.33928,-1.90404 4.33928,-4.25009 0,-1.59237 -1.1124,-2.66669 -2.43683,-3.39464 0.17476,-0.48856 0.46407,-1.25316 0.46407,-1.79992 0,-2.60671 -2.11581,-4.56763 -4.77723,-4.56764 -0.80687,0 -1.64181,0.48974 -2.31027,0.83336 -0.64885,-2.42154 -2.25001,-3.82143 -4.43974,-3.82143 z"
         style="opacity:1;fill:url(#linearGradient13131);fill-opacity:1;stroke:none;stroke-width:1;stroke-linecap:butt;stroke-linejoin:miter;stroke-miterlimit:2;stroke-dasharray:none;stroke-dashoffset:0;stroke-opacity:1" />
      <circle
         transform="matrix(1.056604,0,0,1.056604,-58.19825,228.8634)"
         id="path12863"
         style="opacity:1;fill:#888a85;fill-opacity:1;stroke:none;stroke-width:1;stroke-linecap:butt;stroke-linejoin:miter;stroke-miterlimit:2;stroke-dasharray:none;stroke-dashoffset:0;stroke-opacity:1"
         cx="288.375"
         cy="-437.59375"
         r="3.3125" />
      <circle
         transform="matrix(1.056604,0,0,1.056604,-58.19825,228.8634)"
         id="path12865"
         style="opacity:0.477778;fill:url(#linearGradient13133);fill-opacity:1;stroke:none;stroke-width:1;stroke-linecap:butt;stroke-linejoin:miter;stroke-miterlimit:2;stroke-dasharray:none;stroke-dashoffset:0;stroke-opacity:1"
         cx="288.375"
         cy="-437.59375"
         r="3.3125" />
      <rect
         y="-230.99992"
         x="236.99994"
         height="9"
         width="20"
         id="rect12867"
         style="opacity:1;fill:#888a85;fill-opacity:1;stroke:none;stroke-width:1;stroke-linecap:butt;stroke-linejoin:miter;stroke-miterlimit:2;stroke-dasharray:none;stroke-dashoffset:0;stroke-opacity:1" />
      <circle
         transform="matrix(0.90566,0,0,0.90566,-24.16987,171.3114)"
         id="path12869"
         style="opacity:1;fill:#888a85;fill-opacity:1;stroke:none;stroke-width:1;stroke-linecap:butt;stroke-linejoin:miter;stroke-miterlimit:2;stroke-dasharray:none;stroke-dashoffset:0;stroke-opacity:1"
         cx="288.375"
         cy="-437.59375"
         r="3.3125" />
      <circle
         transform="matrix(1.056604,0,0,1.056604,-51.19818,231.8633)"
         id="path12871"
         style="opacity:1;fill:#888a85;fill-opacity:1;stroke:none;stroke-width:1;stroke-linecap:butt;stroke-linejoin:miter;stroke-miterlimit:2;stroke-dasharray:none;stroke-dashoffset:0;stroke-opacity:1"
         cx="288.375"
         cy="-437.59375"
         r="3.3125" />
      <circle
         transform="matrix(1.056604,0,0,1.056604,-51.19825,231.8634)"
         id="path12873"
         style="opacity:0.477778;fill:url(#linearGradient13135);fill-opacity:1;stroke:none;stroke-width:1;stroke-linecap:butt;stroke-linejoin:miter;stroke-miterlimit:2;stroke-dasharray:none;stroke-dashoffset:0;stroke-opacity:1"
         cx="288.375"
         cy="-437.59375"
         r="3.3125" />
      <circle
         transform="matrix(1.056604,0,0,1.056604,-65.19825,231.8634)"
         id="path12875"
         style="opacity:1;fill:#888a85;fill-opacity:1;stroke:none;stroke-width:1;stroke-linecap:butt;stroke-linejoin:miter;stroke-miterlimit:2;stroke-dasharray:none;stroke-dashoffset:0;stroke-opacity:1"
         cx="288.375"
         cy="-437.59375"
         r="3.3125" />
      <circle
         transform="matrix(1.056604,0,0,1.056604,-65.19825,231.8634)"
         id="path12877"
         style="opacity:0.477778;fill:url(#linearGradient13137);fill-opacity:1;stroke:none;stroke-width:1;stroke-linecap:butt;stroke-linejoin:miter;stroke-miterlimit:2;stroke-dasharray:none;stroke-dashoffset:0;stroke-opacity:1"
         cx="288.375"
         cy="-437.59375"
         r="3.3125" />
      <path
         id="path12879"
         d="m 245.46868,-233.96868 c -3.57938,0 -6.46875,2.92063 -6.46875,6.5 0,2.37068 1.34943,4.33779 3.25,5.46875 h 6.46875 c 1.90057,-1.13096 3.25,-3.12931 3.25,-5.5 0,-3.57938 -2.92063,-6.46875 -6.5,-6.46875 z"
         style="opacity:1;fill:#888a85;fill-opacity:1;stroke:none;stroke-width:1;stroke-linecap:butt;stroke-linejoin:miter;stroke-miterlimit:2;stroke-dasharray:none;stroke-dashoffset:0;stroke-opacity:1" />
      <path
         id="path12881"
         d="m 245.49993,-233.99993 c -3.588,0 -6.5,2.91201 -6.5,6.5 0,2.3764 1.34485,4.36632 3.25,5.5 h 6.5 c 1.90515,-1.13368 3.25,-3.1236 3.25,-5.5 0,-3.588 -2.912,-6.49999 -6.5,-6.5 z"
         style="opacity:0.477778;fill:url(#linearGradient13139);fill-opacity:1;stroke:none;stroke-width:1;stroke-linecap:butt;stroke-linejoin:miter;stroke-miterlimit:2;stroke-dasharray:none;stroke-dashoffset:0;stroke-opacity:1" />
      <circle
         transform="matrix(0.90566,0,0,0.90566,-24.16977,171.3113)"
         id="path12883"
         style="opacity:0.477778;fill:url(#linearGradient13141);fill-opacity:1;stroke:none;stroke-width:1;stroke-linecap:butt;stroke-linejoin:miter;stroke-miterlimit:2;stroke-dasharray:none;stroke-dashoffset:0;stroke-opacity:1"
         cx="288.375"
         cy="-437.59375"
         r="3.3125" />
      <path
         sodipodi:nodetypes="ccss"
         id="path12885"
         d="m 258.95633,-230.33389 c -0.002,2.68456 -3.26926,3.71395 -3.26926,3.71395 0,0 2.34874,-1.62595 2.33685,-3.70501 0,0 0.93241,-0.009 0.93241,-0.009 z"
         style="fill:#555753;fill-opacity:1;fill-rule:evenodd;stroke:none;stroke-width:1px;stroke-linecap:butt;stroke-linejoin:miter;stroke-opacity:1" />
      <circle
         transform="matrix(1.207547,0,0,1.207547,-98.22652,302.4154)"
         id="path12887"
         style="opacity:1;fill:#888a85;fill-opacity:1;stroke:none;stroke-width:1;stroke-linecap:butt;stroke-linejoin:miter;stroke-miterlimit:2;stroke-dasharray:none;stroke-dashoffset:0;stroke-opacity:1"
         cx="288.375"
         cy="-437.59375"
         r="3.3125" />
      <circle
         transform="matrix(1.207547,0,0,1.207547,-98.22652,302.4154)"
         id="path12889"
         style="opacity:0.477778;fill:url(#linearGradient13143);fill-opacity:1;stroke:none;stroke-width:1;stroke-linecap:butt;stroke-linejoin:miter;stroke-miterlimit:2;stroke-dasharray:none;stroke-dashoffset:0;stroke-opacity:1"
         cx="288.375"
         cy="-437.59375"
         r="3.3125" />
    </g>
    <g
       id="g11183"
       transform="matrix(5.7708517,0,0,5.7708517,1096.9107,2039.4301)">
      <path
         sodipodi:nodetypes="cccccccc"
         id="path11185"
         d="m -173.24571,-327.59122 -3.1245,4.2792 h 3.77943 c 0,0 -2.70318,4.5258 -7.57554,12.9264 2.09618,-7.94732 2.95279,-10.97019 2.95279,-10.97019 h -5.16329 l 4.04281,-6.23541 z"
         style="fill:#edd400;fill-opacity:1;fill-rule:evenodd;stroke:url(#linearGradient11193);stroke-width:1px;stroke-linecap:butt;stroke-linejoin:miter;stroke-opacity:1" />
      <path
         sodipodi:nodetypes="cccccccc"
         id="path11187"
         d="m -173.75946,-327.84461 -3.74322,5.16309 3.9562,-0.17678 c 0,0 -0.13991,0.45993 -5.01227,8.86053 2.09618,-7.94732 2.0689,-7.96498 2.0689,-7.96498 l -4.89812,0.0884 3.68926,-5.70508 z"
         style="opacity:1;fill:url(#linearGradient11195);fill-opacity:1;fill-rule:evenodd;stroke:none;stroke-width:1px;stroke-linecap:butt;stroke-linejoin:miter;stroke-opacity:1" />
    </g>
    <path
       style="opacity:1;fill:url(#radialGradient13211);fill-opacity:1;stroke:none;stroke-width:5.77085;stroke-linejoin:round;stroke-miterlimit:4;stroke-dasharray:none;stroke-opacity:1"
       d="m 172.08689,79.021041 c -11.54228,0 -21.26893,6.229634 -26.14524,15.090431 -3.43314,-1.28061 -7.18264,-2.039246 -11.11437,-2.039246 -16.33273,0 -29.53251,12.223644 -29.53251,27.223994 0,2.61852 0.83406,4.94464 1.58779,7.34127 -7.977164,4.99335 -13.548979,13.00502 -13.548979,22.53362 0,15.30909 3.760403,28.81589 30.167589,27.73385 0.26038,-0.0107 100.7099,0.55966 102.14644,-0.10405 17.80429,1.30393 23.49897,-14.11394 23.49897,-27.11988 0,-9.8134 -4.82986,-17.60024 -13.32646,-22.377 0.27677,-1.49211 -0.22252,-3.18084 -0.22252,-4.74508 0,-15.0003 -13.30556,-27.223942 -29.63834,-27.223942 -2.27078,0 -4.22658,0.778026 -6.35106,1.223536 -4.26154,-10.203559 -14.91771,-17.537503 -27.52131,-17.537503 z"
       id="path13209"
       sodipodi:nodetypes="ccsscsscscsscc" />
    <g
       id="g12891"
       transform="matrix(5.7708517,0,0,5.7708517,-1337.8372,1429.3073)">
      <path
         sodipodi:nodetypes="ccsscsssscsscc"
         id="path12893"
         d="m 246.49993,-238.49993 c -2.27083,0 -4.10991,1.55028 -4.71875,3.625 -0.69323,-0.36383 -1.44451,-0.625 -2.28125,-0.625 -2.76,0 -5.00001,2.23999 -5,5 0,0.57893 0.16252,1.1077 0.34375,1.625 -1.37347,0.77074 -2.34375,2.189 -2.34375,3.875 0,2.484 2.016,4.50001 4.5,4.5 0.17713,0 18.82287,0 19,0 2.48399,0 4.5,-2.016 4.5,-4.5 0,-1.686 -0.97028,-3.10426 -2.34375,-3.875 0.18124,-0.51729 0.34375,-1.04608 0.34375,-1.625 0,-2.76 -2.24,-4.99999 -5,-5 -0.83674,0 -1.58802,0.26117 -2.28125,0.625 -0.60884,-2.07472 -2.44792,-3.625 -4.71875,-3.625 z"
         style="fill:#888a85;fill-opacity:1;stroke:#555753;stroke-width:1;stroke-linecap:butt;stroke-linejoin:miter;stroke-miterlimit:2;stroke-dasharray:none;stroke-dashoffset:0;stroke-opacity:1" />
      <path
         sodipodi:nodetypes="ccsscsssscsscc"
         id="path12895"
         d="m 246.49993,-237.99993 c -2.18972,0 -3.7236,1.33577 -4.39555,3.84352 -0.66846,-0.34362 -1.54759,-0.83335 -2.35445,-0.83335 -2.71651,0 -4.75514,1.93882 -4.75513,4.54554 0,0.54677 0.26721,1.33344 0.44196,1.82201 -1.32443,0.72795 -2.43683,1.8905 -2.43683,3.37255 0,2.34605 1.54617,4.25009 4.33928,4.25009 0.17081,0 18.15064,0 18.32144,0 2.77101,0 4.33928,-1.90404 4.33928,-4.25009 0,-1.59237 -1.1124,-2.66669 -2.43683,-3.39464 0.17476,-0.48856 0.46407,-1.25316 0.46407,-1.79992 0,-2.60671 -2.11581,-4.56763 -4.77723,-4.56764 -0.80687,0 -1.64181,0.48974 -2.31027,0.83336 -0.64885,-2.42154 -2.25001,-3.82143 -4.43974,-3.82143 z"
         style="opacity:1;fill:url(#linearGradient13145);fill-opacity:1;stroke:none;stroke-width:1;stroke-linecap:butt;stroke-linejoin:miter;stroke-miterlimit:2;stroke-dasharray:none;stroke-dashoffset:0;stroke-opacity:1" />
      <circle
         transform="matrix(1.056604,0,0,1.056604,-58.19825,228.8634)"
         id="path12897"
         style="opacity:1;fill:#888a85;fill-opacity:1;stroke:none;stroke-width:1;stroke-linecap:butt;stroke-linejoin:miter;stroke-miterlimit:2;stroke-dasharray:none;stroke-dashoffset:0;stroke-opacity:1"
         cx="288.375"
         cy="-437.59375"
         r="3.3125" />
      <circle
         transform="matrix(1.056604,0,0,1.056604,-58.19825,228.8634)"
         id="path12899"
         style="opacity:0.477778;fill:url(#linearGradient13147);fill-opacity:1;stroke:none;stroke-width:1;stroke-linecap:butt;stroke-linejoin:miter;stroke-miterlimit:2;stroke-dasharray:none;stroke-dashoffset:0;stroke-opacity:1"
         cx="288.375"
         cy="-437.59375"
         r="3.3125" />
      <rect
         y="-230.99992"
         x="236.99994"
         height="9"
         width="20"
         id="rect12901"
         style="opacity:1;fill:#888a85;fill-opacity:1;stroke:none;stroke-width:1;stroke-linecap:butt;stroke-linejoin:miter;stroke-miterlimit:2;stroke-dasharray:none;stroke-dashoffset:0;stroke-opacity:1" />
      <circle
         transform="matrix(0.90566,0,0,0.90566,-24.16987,171.3114)"
         id="path12903"
         style="opacity:1;fill:#888a85;fill-opacity:1;stroke:none;stroke-width:1;stroke-linecap:butt;stroke-linejoin:miter;stroke-miterlimit:2;stroke-dasharray:none;stroke-dashoffset:0;stroke-opacity:1"
         cx="288.375"
         cy="-437.59375"
         r="3.3125" />
      <circle
         transform="matrix(1.056604,0,0,1.056604,-51.19818,231.8633)"
         id="path12905"
         style="opacity:1;fill:#888a85;fill-opacity:1;stroke:none;stroke-width:1;stroke-linecap:butt;stroke-linejoin:miter;stroke-miterlimit:2;stroke-dasharray:none;stroke-dashoffset:0;stroke-opacity:1"
         cx="288.375"
         cy="-437.59375"
         r="3.3125" />
      <circle
         transform="matrix(1.056604,0,0,1.056604,-51.19825,231.8634)"
         id="path12907"
         style="opacity:0.477778;fill:url(#linearGradient13149);fill-opacity:1;stroke:none;stroke-width:1;stroke-linecap:butt;stroke-linejoin:miter;stroke-miterlimit:2;stroke-dasharray:none;stroke-dashoffset:0;stroke-opacity:1"
         cx="288.375"
         cy="-437.59375"
         r="3.3125" />
      <circle
         transform="matrix(1.056604,0,0,1.056604,-65.19825,231.8634)"
         id="path12909"
         style="opacity:1;fill:#888a85;fill-opacity:1;stroke:none;stroke-width:1;stroke-linecap:butt;stroke-linejoin:miter;stroke-miterlimit:2;stroke-dasharray:none;stroke-dashoffset:0;stroke-opacity:1"
         cx="288.375"
         cy="-437.59375"
         r="3.3125" />
      <circle
         transform="matrix(1.056604,0,0,1.056604,-65.19825,231.8634)"
         id="path12911"
         style="opacity:0.477778;fill:url(#linearGradient13151);fill-opacity:1;stroke:none;stroke-width:1;stroke-linecap:butt;stroke-linejoin:miter;stroke-miterlimit:2;stroke-dasharray:none;stroke-dashoffset:0;stroke-opacity:1"
         cx="288.375"
         cy="-437.59375"
         r="3.3125" />
      <path
         id="path12913"
         d="m 245.46868,-233.96868 c -3.57938,0 -6.46875,2.92063 -6.46875,6.5 0,2.37068 1.34943,4.33779 3.25,5.46875 h 6.46875 c 1.90057,-1.13096 3.25,-3.12931 3.25,-5.5 0,-3.57938 -2.92063,-6.46875 -6.5,-6.46875 z"
         style="opacity:1;fill:#888a85;fill-opacity:1;stroke:none;stroke-width:1;stroke-linecap:butt;stroke-linejoin:miter;stroke-miterlimit:2;stroke-dasharray:none;stroke-dashoffset:0;stroke-opacity:1" />
      <path
         id="path12915"
         d="m 245.49993,-233.99993 c -3.588,0 -6.5,2.91201 -6.5,6.5 0,2.3764 1.34485,4.36632 3.25,5.5 h 6.5 c 1.90515,-1.13368 3.25,-3.1236 3.25,-5.5 0,-3.588 -2.912,-6.49999 -6.5,-6.5 z"
         style="opacity:0.477778;fill:url(#linearGradient13153);fill-opacity:1;stroke:none;stroke-width:1;stroke-linecap:butt;stroke-linejoin:miter;stroke-miterlimit:2;stroke-dasharray:none;stroke-dashoffset:0;stroke-opacity:1" />
      <circle
         transform="matrix(0.90566,0,0,0.90566,-24.16977,171.3113)"
         id="path12917"
         style="opacity:0.477778;fill:url(#linearGradient13155);fill-opacity:1;stroke:none;stroke-width:1;stroke-linecap:butt;stroke-linejoin:miter;stroke-miterlimit:2;stroke-dasharray:none;stroke-dashoffset:0;stroke-opacity:1"
         cx="288.375"
         cy="-437.59375"
         r="3.3125" />
      <path
         sodipodi:nodetypes="ccss"
         id="path12919"
         d="m 258.95633,-230.33389 c -0.002,2.68456 -3.26926,3.71395 -3.26926,3.71395 0,0 2.34874,-1.62595 2.33685,-3.70501 0,0 0.93241,-0.009 0.93241,-0.009 z"
         style="fill:#555753;fill-opacity:1;fill-rule:evenodd;stroke:none;stroke-width:1px;stroke-linecap:butt;stroke-linejoin:miter;stroke-opacity:1" />
      <circle
         transform="matrix(1.207547,0,0,1.207547,-98.22652,302.4154)"
         id="path12921"
         style="opacity:1;fill:#888a85;fill-opacity:1;stroke:none;stroke-width:1;stroke-linecap:butt;stroke-linejoin:miter;stroke-miterlimit:2;stroke-dasharray:none;stroke-dashoffset:0;stroke-opacity:1"
         cx="288.375"
         cy="-437.59375"
         r="3.3125" />
      <circle
         transform="matrix(1.207547,0,0,1.207547,-98.22652,302.4154)"
         id="path12923"
         style="opacity:0.477778;fill:url(#linearGradient13157);fill-opacity:1;stroke:none;stroke-width:1;stroke-linecap:butt;stroke-linejoin:miter;stroke-miterlimit:2;stroke-dasharray:none;stroke-dashoffset:0;stroke-opacity:1"
         cx="288.375"
         cy="-437.59375"
         r="3.3125" />
    </g>
    <path
       style="opacity:1;fill:url(#radialGradient13068);fill-opacity:1;stroke:none;stroke-width:5.77085;stroke-linejoin:round;stroke-miterlimit:4;stroke-dasharray:none;stroke-opacity:1"
       d="m 82.999371,55.940404 c -11.542281,0 -21.268936,6.229634 -26.145248,15.090431 -3.433137,-1.28061 -7.182633,-2.039246 -11.114374,-2.039246 -16.332722,0 -29.532507,12.223645 -29.532507,27.223993 0,2.618524 0.834061,4.944638 1.587792,7.341278 -7.9771644,4.99334 -13.5489792,13.00502 -13.5489792,22.53362 0,15.30908 3.7604025,28.81588 30.1675892,27.73384 0.260381,-0.0107 100.709906,0.55966 102.146446,-0.10405 17.80429,1.30393 23.49896,-14.11394 23.49896,-27.11988 0,-9.81339 -4.82985,-17.60023 -13.32645,-22.377 0.27677,-1.49211 -0.22252,-3.18084 -0.22252,-4.745084 0,-15.00029 -13.30557,-27.223935 -29.63835,-27.223935 -2.27077,0 -4.22657,0.778026 -6.35105,1.223536 C 106.25914,63.274348 95.602969,55.940404 82.999371,55.940404 Z"
       id="path11418"
       sodipodi:nodetypes="ccsscsscscsscc" />
  </g>
</svg>
