<?xml version="1.0" encoding="UTF-8" standalone="no"?>
<svg
   xmlns:dc="http://purl.org/dc/elements/1.1/"
   xmlns:cc="http://creativecommons.org/ns#"
   xmlns:rdf="http://www.w3.org/1999/02/22-rdf-syntax-ns#"
   xmlns:svg="http://www.w3.org/2000/svg"
   xmlns="http://www.w3.org/2000/svg"
   xmlns:xlink="http://www.w3.org/1999/xlink"
   xmlns:sodipodi="http://sodipodi.sourceforge.net/DTD/sodipodi-0.dtd"
   xmlns:inkscape="http://www.inkscape.org/namespaces/inkscape"
   inkscape:export-ydpi="96"
   inkscape:export-xdpi="96"
   inkscape:export-filename="..\..\256x256\places\start-here.png"
   width="256px"
   height="256px"
   id="svg11300"
   sodipodi:version="0.32"
   inkscape:version="1.0.1 (3bc2e813f5, 2020-09-07)"
   sodipodi:docname="start-here.svg"
   inkscape:output_extension="org.inkscape.output.svg.inkscape"
   version="1.1">
  <title
     id="title76">Start Here Icon</title>
  <defs
     id="defs3">
    <linearGradient
       inkscape:collect="always"
       id="linearGradient4697">
      <stop
         style="stop-color:#ffffff;stop-opacity:1;"
         offset="0"
         id="stop4699" />
      <stop
         style="stop-color:#ffffff;stop-opacity:0;"
         offset="1"
         id="stop4701" />
    </linearGradient>
    <linearGradient
       inkscape:collect="always"
       xlink:href="#linearGradient4697"
       id="linearGradient3952"
       gradientUnits="userSpaceOnUse"
       x1="10.871767"
       y1="15.555014"
       x2="10.871767"
       y2="54.634052" />
    <linearGradient
       inkscape:collect="always"
       xlink:href="#linearGradient4697"
       id="linearGradient3954"
       gradientUnits="userSpaceOnUse"
       gradientTransform="matrix(-1,0,0,1,49.62363,-9.63433)"
       x1="10.871767"
       y1="15.555014"
       x2="10.871767"
       y2="54.634052" />
  </defs>
  <sodipodi:namedview
     stroke="#ef2929"
     fill="#eeeeec"
     id="base"
     pagecolor="#ffffff"
     bordercolor="#666666"
     borderopacity="0.25490196"
     inkscape:pageopacity="0.0"
     inkscape:pageshadow="2"
     inkscape:zoom="1.9999999"
     inkscape:cx="132.31401"
     inkscape:cy="121.33065"
     inkscape:current-layer="layer1"
     showgrid="false"
     inkscape:grid-bbox="true"
     inkscape:document-units="px"
     inkscape:showpageshadow="false"
     inkscape:window-width="1291"
     inkscape:window-height="859"
     inkscape:window-x="434"
     inkscape:window-y="58"
     inkscape:document-rotation="0"
     inkscape:pagecheckerboard="true"
     inkscape:window-maximized="0">
    <inkscape:grid
       id="GridFromPre046Settings"
       type="xygrid"
       originx="0"
       originy="0"
       spacingx="1"
       spacingy="1"
       color="#0000ff"
       empcolor="#0000ff"
       opacity="0.2"
       empopacity="0.4"
       empspacing="4" />
  </sodipodi:namedview>
  <metadata
     id="metadata4">
    <rdf:RDF>
      <cc:Work
         rdf:about="">
        <dc:format>image/svg+xml</dc:format>
        <dc:type
           rdf:resource="http://purl.org/dc/dcmitype/StillImage" />
        <dc:creator>
          <cc:Agent>
            <dc:title>Jakub Steiner, Daniel S. Fowler</dc:title>
          </cc:Agent>
        </dc:creator>
        <dc:source>https://tekeye.uk/free_resources/tango_desktop_project/index</dc:source>
        <cc:license
           rdf:resource="http://creativecommons.org/publicdomain/zero/1.0/" />
        <dc:title>Start Here Icon</dc:title>
        <dc:description>A default start here icon shown as the Tango feet.</dc:description>
        <dc:subject>
          <rdf:Bag>
            <rdf:li>start</rdf:li>
            <rdf:li>applications</rdf:li>
            <rdf:li>launchers</rdf:li>
            <rdf:li>computer</rdf:li>
            <rdf:li>icon</rdf:li>
          </rdf:Bag>
        </dc:subject>
        <dc:contributor>
          <cc:Agent>
            <dc:title>Garrett LeSage</dc:title>
          </cc:Agent>
        </dc:contributor>
        <dc:date>2009-01-13, 2020-12-23</dc:date>
        <dc:rights>
          <cc:Agent>
            <dc:title>Public Domain</dc:title>
          </cc:Agent>
        </dc:rights>
        <dc:publisher>
          <cc:Agent>
            <dc:title>https://tekeye.uk/</dc:title>
          </cc:Agent>
        </dc:publisher>
        <dc:identifier>https://tekeye.uk/free_resources/tango_desktop_project/images/start-here.svg</dc:identifier>
        <dc:relation>https://tekeye.uk/free_resources/tango_desktop_project/images/folder.svg</dc:relation>
        <dc:language>en-GB</dc:language>
        <dc:coverage>computing</dc:coverage>
      </cc:Work>
      <cc:License
         rdf:about="http://creativecommons.org/publicdomain/zero/1.0/">
        <cc:permits
           rdf:resource="http://creativecommons.org/ns#Reproduction" />
        <cc:permits
           rdf:resource="http://creativecommons.org/ns#Distribution" />
        <cc:permits
           rdf:resource="http://creativecommons.org/ns#DerivativeWorks" />
      </cc:License>
    </rdf:RDF>
  </metadata>
  <g
     id="layer1"
     inkscape:label="Layer 1"
     inkscape:groupmode="layer">
    <g
       id="g74"
       transform="matrix(6.1958102,0,0,6.1958178,-20.781609,-17.613448)">
      <g
         id="g15"
         inkscape:r_cx="true"
         inkscape:r_cy="true"
         transform="matrix(0.582036,0,0,0.582076,-63.9369,-62.75444)" />
      <g
         id="g3946"
         transform="matrix(0.99645,0,0,1.007814,-0.891385,0.197492)"
         inkscape:r_cx="true"
         inkscape:r_cy="true">
        <g
           style="fill:#3465a4;stroke:#204a87;stroke-width:2.13031;stroke-miterlimit:4;stroke-dasharray:none"
           transform="matrix(0.467989,0,0,0.468861,-45.74716,-42.20022)"
           inkscape:r_cy="true"
           inkscape:r_cx="true"
           id="g9">
          <path
             style="fill:#3465a4;stroke:#204a87;stroke-width:2.13031;stroke-miterlimit:4;stroke-dasharray:none"
             inkscape:r_cy="true"
             inkscape:r_cx="true"
             d="m 148.52832,163.19141 c -0.26074,-0.66602 -0.60742,-1.42383 -1.0293,-2.22657 l -2.63281,1.125 c -1.87012,-3.08398 -1.9834,-9.53125 -1.63379,-11.61474 0.83887,-5 3.1377,-9.4209 1.5625,-14.53028 -1.81152,-5.87597 -5.67676,-15.04003 -11.89453,-17.44628 -3.58789,-1.38868 -6.32324,1.74023 -8.08789,4.4873 -2.70508,4.21191 -4.19043,9.32031 -4.66113,14.27832 -0.53418,5.61328 0.8164,11.36328 3.46093,16.32178 2.54004,4.76562 6.80176,8.75976 8.50391,13.95312 l -2.29785,0.98242 c 0.16406,0.53321 0.3418,1.04883 0.53223,1.53321 1.84961,4.7207 8.06738,14.13672 14.51269,10.94531 6.55957,-3.25 5.81836,-12.31055 3.66504,-17.80859 z"
             id="path11" />
          <path
             sodipodi:nodetypes="cccssssssccssc"
             inkscape:r_cy="true"
             inkscape:r_cx="true"
             style="fill:#3465a4;stroke:#204a87;stroke-width:2.13031;stroke-miterlimit:4;stroke-dasharray:none"
             d="m 148.52832,163.19141 c -0.26074,-0.66602 -0.60742,-1.42383 -1.0293,-2.22657 l -2.63281,1.125 c -1.87012,-3.08398 -1.9834,-9.53125 -1.63379,-11.61474 0.83887,-5 3.1377,-9.4209 1.5625,-14.53028 -1.81152,-5.87597 -5.67676,-15.04003 -11.89453,-17.44628 -3.58789,-1.38868 -6.32324,1.74023 -8.08789,4.4873 -2.70508,4.21191 -4.19043,9.32031 -4.66113,14.27832 -0.53418,5.61328 0.8164,11.36328 3.46093,16.32178 2.54004,4.76562 6.80176,8.75976 8.50391,13.95312 -0.65886,0.21404 -1.5319,0.65495 -2.29785,0.98242 0.16406,0.53321 0.3418,1.04883 0.53223,1.53321 1.84961,4.7207 8.06738,14.13672 14.51269,10.94531 6.55957,-3.25 5.81836,-12.31055 3.66504,-17.80859 z"
             id="path13" />
        </g>
        <path
           inkscape:r_cy="true"
           inkscape:r_cx="true"
           style="opacity:0.538462;fill:none;fill-opacity:1;stroke:url(#linearGradient3952);stroke-width:0.997889;stroke-miterlimit:4;stroke-dasharray:none;stroke-opacity:1"
           d="M 23.15264,35.402331 C 23.0545,35.149035 22.924012,34.86083 22.76522,34.555538 l -1.21194,0.693017 c -0.703898,-1.172878 -1.464902,-4.572528 -1.239944,-6.594015 0.223667,-2.009884 1.357782,-4.997104 0.76489,-6.940268 -0.681842,-2.234707 -2.57863,-6.515414 -4.918948,-7.430542 -1.350453,-0.528133 -2.29142,1.134584 -3.353576,3.120792 -0.996549,1.863523 -1.444663,4.251742 -1.40086,6.004755 0.05356,2.143582 0.749229,4.189021 1.744609,6.074803 0.956051,1.812427 3.450292,5.41984 4.090967,7.394942 l -0.95328,0.417822 c 0.06175,0.202787 0.217039,0.354689 0.288715,0.538905 0.696179,1.795343 3.173709,4.98925 5.064713,3.897478 1.925457,-1.111662 2.322567,-4.23992 1.512074,-6.330896 z"
           id="path4667"
           sodipodi:nodetypes="ccczsszssccszc" />
      </g>
      <g
         id="g3940"
         transform="matrix(0.996431,0,0,1.007807,-0.512841,-0.060774)"
         inkscape:r_cx="true"
         inkscape:r_cy="true">
        <g
           id="g4657"
           inkscape:r_cx="true"
           inkscape:r_cy="true"
           transform="matrix(-0.467989,0,0,0.468861,95.32836,-51.86619)"
           style="fill:#729fcf;stroke:#3465a4;stroke-width:2.13034;stroke-miterlimit:4;stroke-dasharray:none">
          <path
             id="path4659"
             d="m 148.52832,163.19141 c -0.26074,-0.66602 -0.60742,-1.42383 -1.0293,-2.22657 l -2.63281,1.125 c -1.87012,-3.08398 -1.9834,-9.53125 -1.63379,-11.61474 0.83887,-5 3.1377,-9.4209 1.5625,-14.53028 -1.81152,-5.87597 -5.67676,-15.04003 -11.89453,-17.44628 -3.58789,-1.38868 -6.32324,1.74023 -8.08789,4.4873 -2.70508,4.21191 -4.19043,9.32031 -4.66113,14.27832 -0.53418,5.61328 0.8164,11.36328 3.46093,16.32178 2.54004,4.76562 6.80176,8.75976 8.50391,13.95312 l -2.29785,0.98242 c 0.16406,0.53321 0.3418,1.04883 0.53223,1.53321 1.84961,4.7207 8.06738,14.13672 14.51269,10.94531 6.55957,-3.25 5.81836,-12.31055 3.66504,-17.80859 z"
             inkscape:r_cx="true"
             inkscape:r_cy="true"
             style="fill:#729fcf;stroke:#3465a4;stroke-width:2.13034;stroke-miterlimit:4;stroke-dasharray:none" />
          <path
             id="path4661"
             d="m 148.52832,163.19141 c -0.26074,-0.66602 -0.60742,-1.42383 -1.0293,-2.22657 l -2.63281,1.125 c -1.87012,-3.08398 -1.9834,-9.53125 -1.63379,-11.61474 0.83887,-5 3.1377,-9.4209 1.5625,-14.53028 -1.81152,-5.87597 -5.67676,-15.04003 -11.89453,-17.44628 -3.58789,-1.38868 -6.32324,1.74023 -8.08789,4.4873 -2.70508,4.21191 -4.19043,9.32031 -4.66113,14.27832 -0.53418,5.61328 0.8164,11.36328 3.46093,16.32178 2.54004,4.76562 6.80176,8.75976 8.50391,13.95312 l -2.29785,0.98242 c 0.16406,0.53321 0.3418,1.04883 0.53223,1.53321 1.84961,4.7207 8.06738,14.13672 14.51269,10.94531 6.55957,-3.25 5.81836,-12.31055 3.66504,-17.80859 z"
             style="fill:#729fcf;stroke:#3465a4;stroke-width:2.13034;stroke-miterlimit:4;stroke-dasharray:none"
             inkscape:r_cx="true"
             inkscape:r_cy="true" />
        </g>
        <path
           sodipodi:nodetypes="ccczsszssccszc"
           id="path4705"
           d="m 26.470988,25.768001 c 0.09814,-0.253296 0.228628,-0.541501 0.38742,-0.846793 l 1.21194,0.693017 c 0.703898,-1.172878 1.464902,-4.572528 1.239944,-6.594015 -0.223667,-2.009884 -1.357782,-4.997104 -0.76489,-6.940268 0.681842,-2.2347069 2.57863,-6.5154139 4.918948,-7.4305419 1.350453,-0.528133 2.29142,1.134584 3.353576,3.120792 0.996549,1.863523 1.444663,4.2517419 1.40086,6.0047549 -0.05356,2.143582 -0.749229,4.189021 -1.744609,6.074803 -0.956051,1.812427 -3.450292,5.41984 -4.090967,7.394942 l 0.95328,0.417822 c -0.06175,0.202787 -0.217039,0.354689 -0.288715,0.538905 -0.696179,1.795343 -3.173709,4.98925 -5.064713,3.897478 -1.925457,-1.111662 -2.322567,-4.23992 -1.512074,-6.330896 z"
           style="opacity:0.538462;fill:none;fill-opacity:1;stroke:url(#linearGradient3954);stroke-width:0.997902;stroke-miterlimit:4;stroke-dasharray:none;stroke-opacity:1"
           inkscape:r_cx="true"
           inkscape:r_cy="true" />
      </g>
    </g>
  </g>
</svg>
