<?xml version="1.0" encoding="UTF-8" standalone="no"?>
<svg
   xmlns:dc="http://purl.org/dc/elements/1.1/"
   xmlns:cc="http://creativecommons.org/ns#"
   xmlns:rdf="http://www.w3.org/1999/02/22-rdf-syntax-ns#"
   xmlns:svg="http://www.w3.org/2000/svg"
   xmlns="http://www.w3.org/2000/svg"
   xmlns:xlink="http://www.w3.org/1999/xlink"
   xmlns:sodipodi="http://sodipodi.sourceforge.net/DTD/sodipodi-0.dtd"
   xmlns:inkscape="http://www.inkscape.org/namespaces/inkscape"
   width="256"
   height="256"
   overflow="visible"
   enable-background="new 0 0 128 129.396"
   xml:space="preserve"
   id="svg2"
   sodipodi:version="0.32"
   inkscape:version="1.0.1 (3bc2e813f5, 2020-09-07)"
   sodipodi:docname="applications-accessories.svg"
   version="1.0"
   inkscape:export-filename="..\..\256x256\categories\applications-accessories.png"
   inkscape:export-xdpi="96"
   inkscape:export-ydpi="96"
   inkscape:output_extension="org.inkscape.output.svg.inkscape"><title
   id="title120">Accessories Icon</title><metadata
   id="metadata367"><rdf:RDF><cc:Work
       rdf:about=""><dc:format>image/svg+xml</dc:format><dc:type
         rdf:resource="http://purl.org/dc/dcmitype/StillImage" /><cc:license
         rdf:resource="http://creativecommons.org/publicdomain/zero/1.0/" /><dc:title>Accessories Icon</dc:title><dc:creator><cc:Agent><dc:title>Jakub Steiner, Daniel S. Fowler</dc:title></cc:Agent></dc:creator><dc:source>https://tekeye.uk/free_resources/tango_desktop_project/index</dc:source><dc:subject><rdf:Bag><rdf:li>application</rdf:li><rdf:li>accessories</rdf:li><rdf:li>scissors</rdf:li><rdf:li>set</rdf:li><rdf:li>square</rdf:li><rdf:li>triangle</rdf:li><rdf:li>computer</rdf:li><rdf:li>icon</rdf:li></rdf:Bag></dc:subject><dc:date> 2020-12-27</dc:date><dc:rights><cc:Agent><dc:title>Public Domain</dc:title></cc:Agent></dc:rights><dc:publisher><cc:Agent><dc:title>https://tekeye.uk/</dc:title></cc:Agent></dc:publisher><dc:identifier>https://tekeye.uk/free_resources/tango_desktop_project/images/svg/categories/applications-accessories.svg</dc:identifier><dc:relation>https://tekeye.uk/free_resources/tango_desktop_project/images/svg/categories/applications-development.svg</dc:relation><dc:language>en-GB</dc:language><dc:coverage>computing</dc:coverage><dc:description>An icon to represent accessories applications.</dc:description></cc:Work><cc:License
       rdf:about="http://creativecommons.org/publicdomain/zero/1.0/"><cc:permits
         rdf:resource="http://creativecommons.org/ns#Reproduction" /><cc:permits
         rdf:resource="http://creativecommons.org/ns#Distribution" /><cc:permits
         rdf:resource="http://creativecommons.org/ns#DerivativeWorks" /></cc:License></rdf:RDF></metadata><defs
   id="defs365"><linearGradient
     inkscape:collect="always"
     id="linearGradient3099"><stop
       style="stop-color:#ffffff;stop-opacity:1;"
       offset="0"
       id="stop3101" /><stop
       style="stop-color:#ffffff;stop-opacity:0;"
       offset="1"
       id="stop3103" /></linearGradient><linearGradient
     inkscape:collect="always"
     id="linearGradient3078"><stop
       style="stop-color:#c4a000"
       offset="0"
       id="stop3080" /><stop
       style="stop-color:#fce94f"
       offset="1"
       id="stop3082" /></linearGradient><linearGradient
     y2="27.836672"
     x2="74.587158"
     y1="21.424805"
     x1="68.175293"
     gradientUnits="userSpaceOnUse"
     id="XMLID_45_"><stop
       id="stop695"
       style="stop-color:#BABDB6"
       offset="0" /><stop
       id="stop697"
       style="stop-color:#EEEEEC"
       offset="1" /></linearGradient><radialGradient
     gradientUnits="userSpaceOnUse"
     gradientTransform="matrix(1.000000,0.000000,0.000000,1.010300,1.007969e-18,-0.159801)"
     r="7.2848282"
     cy="23.333008"
     cx="165.06104"
     id="XMLID_52_"><stop
       id="stop812"
       style="stop-color:#EF3535"
       offset="0" /><stop
       offset="0"
       style="stop-color:#c91a1a;stop-opacity:1;"
       id="stop2239" /><stop
       id="stop814"
       style="stop-color:#ff4c4c;stop-opacity:1;"
       offset="1" /></radialGradient><linearGradient
     y2="10.711433"
     x2="296.93979"
     y1="4.7592773"
     x1="292.97168"
     gradientUnits="userSpaceOnUse"
     id="XMLID_897_"><stop
       id="stop45093"
       style="stop-color:#EEEEEC"
       offset="0" /><stop
       id="stop45095"
       style="stop-color:#ffffff;stop-opacity:1;"
       offset="1" /></linearGradient><radialGradient
     id="radialGradient16850"
     cx="165.06104"
     cy="23.333008"
     r="7.2848282"
     gradientTransform="matrix(1.000000,0.000000,0.000000,1.010300,1.007969e-18,-0.159801)"
     gradientUnits="userSpaceOnUse"><stop
       offset="0"
       style="stop-color:#EF3535"
       id="stop16852" /><stop
       offset="1"
       style="stop-color:#a40000;stop-opacity:0"
       id="stop16854" /></radialGradient><linearGradient
     id="linearGradient2229"><stop
       id="stop2231"
       offset="0"
       style="stop-color:#e2e2e2;stop-opacity:1;" /><stop
       id="stop2233"
       offset="1"
       style="stop-color:#d8d8d8;stop-opacity:1;" /></linearGradient><linearGradient
     id="linearGradient2251"
     inkscape:collect="always"><stop
       id="stop2253"
       offset="0"
       style="stop-color:#df2a2a;stop-opacity:1;" /><stop
       id="stop2255"
       offset="1"
       style="stop-color:#df2a2a;stop-opacity:0;" /></linearGradient><linearGradient
     id="linearGradient2259"
     inkscape:collect="always"><stop
       id="stop2261"
       offset="0"
       style="stop-color:#9a0c00;stop-opacity:1;" /><stop
       id="stop2263"
       offset="1"
       style="stop-color:#9a0c00;stop-opacity:0;" /></linearGradient><linearGradient
     id="linearGradient2269"
     inkscape:collect="always"><stop
       id="stop2271"
       offset="0"
       style="stop-color:#000000;stop-opacity:1;" /><stop
       id="stop2273"
       offset="1"
       style="stop-color:#000000;stop-opacity:0;" /></linearGradient><linearGradient
     inkscape:collect="always"
     xlink:href="#XMLID_897_"
     id="linearGradient2975"
     gradientUnits="userSpaceOnUse"
     gradientTransform="matrix(-4.127761,0,0,4.136601,2003.489,504.25)"
     x1="292.97168"
     y1="4.7592773"
     x2="296.93979"
     y2="10.711433" /><linearGradient
     inkscape:collect="always"
     xlink:href="#linearGradient2229"
     id="linearGradient2977"
     gradientUnits="userSpaceOnUse"
     gradientTransform="translate(759.0237,516.155)"
     x1="20.288025"
     y1="6.4603648"
     x2="24.32597"
     y2="23.942537" /><linearGradient
     inkscape:collect="always"
     xlink:href="#XMLID_52_"
     id="linearGradient2979"
     gradientUnits="userSpaceOnUse"
     x1="294.59497"
     y1="12.187603"
     x2="297.18515"
     y2="13.3396" /><linearGradient
     inkscape:collect="always"
     xlink:href="#XMLID_52_"
     id="linearGradient2981"
     gradientUnits="userSpaceOnUse"
     gradientTransform="matrix(3.637893,0,0,3.470375,-297.0923,500.1478)"
     x1="296.48611"
     y1="15.506916"
     x2="296.52905"
     y2="9.8769522" /><linearGradient
     inkscape:collect="always"
     xlink:href="#XMLID_897_"
     id="linearGradient2983"
     gradientUnits="userSpaceOnUse"
     gradientTransform="matrix(4.053427,0,0,4.136601,-416.5113,504.25)"
     x1="292.97168"
     y1="4.7592773"
     x2="296.93979"
     y2="10.711433" /><linearGradient
     inkscape:collect="always"
     xlink:href="#linearGradient2229"
     id="linearGradient2985"
     gradientUnits="userSpaceOnUse"
     gradientTransform="translate(759.0237,516.155)"
     x1="20.288025"
     y1="6.4603648"
     x2="24.32597"
     y2="23.942537" /><linearGradient
     inkscape:collect="always"
     xlink:href="#XMLID_45_"
     id="linearGradient2987"
     gradientUnits="userSpaceOnUse"
     x1="22.225399"
     y1="23.843431"
     x2="24.190449"
     y2="22.860907" /><linearGradient
     inkscape:collect="always"
     xlink:href="#XMLID_52_"
     id="linearGradient2989"
     gradientUnits="userSpaceOnUse"
     gradientTransform="matrix(1.161878,0,0,0.992497,756.5929,516.4208)"
     x1="7.184845"
     y1="31.056622"
     x2="25.152235"
     y2="50.774887" /><linearGradient
     inkscape:collect="always"
     xlink:href="#XMLID_52_"
     id="linearGradient2991"
     gradientUnits="userSpaceOnUse"
     gradientTransform="matrix(1.161878,0,0,0.992497,756.3567,516.219)"
     x1="13.82536"
     y1="40.068752"
     x2="7.6700611"
     y2="2.3262277" /><radialGradient
     inkscape:collect="always"
     xlink:href="#XMLID_52_"
     id="radialGradient2993"
     gradientUnits="userSpaceOnUse"
     gradientTransform="matrix(1,0,0,1.060381,759.0237,513.8555)"
     cx="34.376091"
     cy="37.50008"
     fx="34.376091"
     fy="37.50008"
     r="8.3887873" /><linearGradient
     inkscape:collect="always"
     xlink:href="#linearGradient2251"
     id="linearGradient2995"
     gradientUnits="userSpaceOnUse"
     x1="298.47852"
     y1="13.599585"
     x2="298.86948"
     y2="13.802949" /><linearGradient
     inkscape:collect="always"
     xlink:href="#linearGradient2259"
     id="linearGradient2997"
     gradientUnits="userSpaceOnUse"
     x1="298.47852"
     y1="13.599585"
     x2="298.86948"
     y2="13.802949" /><linearGradient
     inkscape:collect="always"
     xlink:href="#XMLID_52_"
     id="linearGradient2999"
     gradientUnits="userSpaceOnUse"
     gradientTransform="matrix(3.624438,0,0,3.624438,-294.1553,499.3078)"
     x1="296.76199"
     y1="12.012225"
     x2="297.79822"
     y2="10.946587" /><linearGradient
     inkscape:collect="always"
     xlink:href="#radialGradient16850"
     id="linearGradient3001"
     gradientUnits="userSpaceOnUse"
     gradientTransform="matrix(1.161878,0,0,0.992497,753.9116,516.219)"
     x1="39.619942"
     y1="44.540932"
     x2="-3.532515"
     y2="-11.889042" /><radialGradient
     inkscape:collect="always"
     xlink:href="#linearGradient2269"
     id="radialGradient3003"
     gradientUnits="userSpaceOnUse"
     gradientTransform="matrix(1,0,0,0.32526,0,28.08607)"
     cx="25.1875"
     cy="41.625"
     fx="25.1875"
     fy="41.625"
     r="18.0625" /><linearGradient
     inkscape:collect="always"
     xlink:href="#linearGradient3078"
     id="linearGradient3084"
     x1="42.426411"
     y1="58.076275"
     x2="32.350136"
     y2="16.35697"
     gradientUnits="userSpaceOnUse" /><linearGradient
     inkscape:collect="always"
     xlink:href="#linearGradient3099"
     id="linearGradient3105"
     x1="28.835155"
     y1="11.913623"
     x2="52.131729"
     y2="70.073158"
     gradientUnits="userSpaceOnUse" /><radialGradient
     inkscape:collect="always"
     xlink:href="#linearGradient2269"
     id="radialGradient3253"
     gradientUnits="userSpaceOnUse"
     gradientTransform="matrix(1,0,0,0.32526,0,28.08607)"
     cx="25.1875"
     cy="41.625"
     fx="25.1875"
     fy="41.625"
     r="18.0625" /></defs><sodipodi:namedview
   inkscape:cy="109.65964"
   inkscape:cx="161.37069"
   inkscape:zoom="1"
   inkscape:window-height="818"
   inkscape:window-width="1181"
   inkscape:pageshadow="2"
   inkscape:pageopacity="0.0"
   borderopacity="0.21568627"
   bordercolor="#666666"
   pagecolor="#ffffff"
   id="base"
   inkscape:showpageshadow="false"
   inkscape:window-x="253"
   inkscape:window-y="30"
   inkscape:current-layer="svg2"
   fill="#2e3436"
   showgrid="false"
   stroke="#c4a000"
   showguides="true"
   inkscape:guide-bbox="true"
   inkscape:document-rotation="0"
   inkscape:pagecheckerboard="true"
   inkscape:window-maximized="0"><inkscape:grid
     id="GridFromPre046Settings"
     type="xygrid"
     originx="0"
     originy="0"
     spacingx="1"
     spacingy="1"
     color="#3f3fff"
     empcolor="#3f3fff"
     opacity="0.03921569"
     empopacity="0.10196078"
     empspacing="5"
     visible="true"
     enabled="true" /></sodipodi:namedview>
	
<g
   id="g118"
   transform="matrix(5.4042512,0,0,5.4042425,-4.40407,-3.9884251)"><ellipse
     transform="matrix(0.968858,0,0,0.465206,6.096886,24.90272)"
     id="path3251"
     style="color:#000000;display:inline;overflow:visible;visibility:visible;opacity:0.267045;fill:url(#radialGradient3253);fill-opacity:1;fill-rule:evenodd;stroke:none;stroke-width:1;stroke-linecap:butt;stroke-linejoin:miter;stroke-miterlimit:4;stroke-dasharray:none;stroke-dashoffset:0;stroke-opacity:1;marker:none;marker-start:none;marker-mid:none;marker-end:none"
     inkscape:r_cx="true"
     inkscape:r_cy="true"
     cx="25.1875"
     cy="41.625"
     rx="18.0625"
     ry="5.875" /><path
     style="fill:url(#linearGradient3084);fill-opacity:1;fill-rule:evenodd;stroke:#c4a000;stroke-width:1.02738px;stroke-linecap:butt;stroke-linejoin:miter;stroke-opacity:1"
     d="M 44.46875,3.6875 16.4375,44.46875 H 44.46875 Z M 38.53125,23.5 v 14 H 29.5 Z"
     id="path1465" /><path
     style="opacity:0.638743;fill:none;fill-opacity:0.75;fill-rule:evenodd;stroke:url(#linearGradient3105);stroke-width:1px;stroke-linecap:butt;stroke-linejoin:miter;stroke-opacity:1"
     d="M 43.5,43.5 V 6.8437499 L 18.375,43.4375 Z"
     id="path3006"
     inkscape:r_cx="true"
     inkscape:r_cy="true"
     sodipodi:nodetypes="cccc" /><g
     id="g1903"
     transform="matrix(0.827925,0,0,0.827925,-628.8636,-425.078)"
     inkscape:r_cx="true"
     inkscape:r_cy="true"><path
       id="path16717"
       d="m 793.19801,517.78 c 0.21195,0.0685 0.41726,0.14466 0.62398,0.2175 0.65142,2.197 3.67149,4.41872 2.52306,6.60663 -3.82584,6.38039 -7.62433,12.84544 -11.42159,19.27614 -0.74575,0.1469 -1.49803,0.22691 -2.25177,0.24469 -1.58639,0.0402 -3.21493,-0.19449 -4.72056,-0.73407 5.05087,-8.55127 10.10387,-17.12141 15.24688,-25.61089 z"
       style="fill:url(#linearGradient2975);stroke:#888a85;stroke-width:1.20784;stroke-linecap:round;stroke-linejoin:round;stroke-miterlimit:4;stroke-dasharray:none;stroke-opacity:1"
       inkscape:r_cx="true"
       inkscape:r_cy="true" /><path
       id="path16719"
       d="m 793.31252,520.405 c -0.23112,0.30745 -0.44961,0.87094 -0.68603,1.15625 -4.04685,6.75273 -8.16201,13.49408 -12.22381,20.21875 -0.0606,0.25312 -0.81393,1.01229 -0.0121,0.94296 1.11156,0.19788 2.27175,0.35061 3.37983,0.057 3.75899,-6.21721 7.44588,-12.48242 11.19629,-18.70182 0.34247,-0.38728 0.40911,-0.92526 0.0494,-1.31198 -0.53001,-0.81661 -1.06694,-1.67472 -1.61003,-2.45495 l -0.0706,0.0707 z"
       style="fill:url(#linearGradient2977);fill-opacity:1;stroke:none;stroke-width:1.25;stroke-linecap:round;stroke-linejoin:round;stroke-miterlimit:4;stroke-dasharray:none;stroke-opacity:1"
       inkscape:r_cx="true"
       inkscape:r_cy="true" /><polygon
       transform="matrix(3.637893,0,0,3.470375,-297.0923,500.1478)"
       points="295.13281,14.71875 294.73242,13.672852 295.74658,11.960449 297.04443,12.300293 296.39941,13.384766 "
       id="polygon45129"
       style="fill:url(#linearGradient2979);fill-opacity:1;stroke:#9a0c00;stroke-width:0.339935;stroke-linecap:round;stroke-linejoin:round;stroke-miterlimit:4;stroke-dasharray:none;stroke-opacity:1"
       inkscape:r_cx="true"
       inkscape:r_cy="true" /><path
       id="polygon16896"
       d="m 779.42995,543.12375 c -1.22235,0.48672 -1.21402,2.03518 -1.92498,2.96401 -0.34232,0.7158 -0.94379,1.34623 -1.20002,2.09849 -0.01,0.51539 0.44795,1.36022 1.03125,0.90625 1.38498,-1.14633 2.56437,-2.53868 3.44422,-4.12687 0.23237,-0.49003 0.79576,-0.89416 0.86828,-1.40438 -0.53857,-0.57081 -1.51282,-0.53302 -2.21875,-0.4375 z"
       style="fill:url(#linearGradient2981);fill-opacity:1;stroke:none;stroke-width:1;stroke-linecap:round;stroke-linejoin:round;stroke-miterlimit:4;stroke-dasharray:none;stroke-opacity:1"
       inkscape:r_cx="true"
       inkscape:r_cy="true" /><path
       id="polygon45097"
       d="m 771.9838,517.78 c -0.20813,0.0685 -0.40975,0.14466 -0.61275,0.2175 -0.63968,2.197 -3.60536,4.41872 -2.47762,6.60663 3.75695,6.38039 7.48703,12.84544 11.21591,19.27614 0.73232,0.1469 1.47105,0.22691 2.21121,0.24469 1.55783,0.0402 3.15704,-0.19449 4.63556,-0.73407 -4.95992,-8.55127 -9.92192,-17.12141 -14.97231,-25.61089 z"
       style="fill:url(#linearGradient2983);stroke:#888a85;stroke-width:1.20784;stroke-linecap:round;stroke-linejoin:round;stroke-miterlimit:4;stroke-dasharray:none;stroke-opacity:1"
       inkscape:r_cx="true"
       inkscape:r_cy="true" /><path
       id="path16635"
       d="m 771.74337,520.405 c -0.38304,1.12668 -1.44966,1.95596 -1.71482,3.15625 3.70853,6.39411 7.47095,12.76913 11.17691,19.15625 1.19836,0.2583 2.42844,0.0932 3.61335,-0.15625 -0.18877,-0.74044 -0.7382,-1.33093 -1.02998,-2.02955 -3.8946,-6.57053 -7.8237,-13.13383 -11.678,-19.72045 -0.0147,-0.15161 -0.21671,-0.48413 -0.36746,-0.40625 z"
       style="fill:url(#linearGradient2985);fill-opacity:1;stroke:none;stroke-width:1.25;stroke-linecap:round;stroke-linejoin:round;stroke-miterlimit:4;stroke-dasharray:none;stroke-opacity:1"
       inkscape:r_cx="true"
       inkscape:r_cy="true" /><circle
       transform="matrix(0.979893,0,0,1,759.3351,516.329)"
       id="path16731"
       style="color:#000000;display:inline;overflow:visible;visibility:visible;fill:url(#linearGradient2987);fill-opacity:1;fill-rule:nonzero;stroke:none;stroke-width:1.25;stroke-linecap:round;stroke-linejoin:round;stroke-miterlimit:4;stroke-dasharray:none;stroke-dashoffset:0;stroke-opacity:1;marker:none;marker-start:none;marker-mid:none;marker-end:none"
       inkscape:r_cx="true"
       inkscape:r_cy="true"
       cx="23.207924"
       cy="23.843431"
       r="0.98252523" /><path
       d="m 776.72409,546.44193 c 3.23501,1.72665 3.49584,6.61292 0.57795,10.91436 -2.91786,4.30396 -7.90449,6.39518 -11.14096,4.67613 -3.2365,-1.72665 -3.49583,-6.61039 -0.57794,-10.91182 2.91637,-4.30143 7.90448,-6.39266 11.14095,-4.67867 z m -1.85512,2.74215 c -1.43653,-0.76363 -4.50746,0.54052 -6.46634,3.43403 -1.96291,2.8935 -1.8229,5.91351 -0.38773,6.67484 1.43515,0.76823 4.50879,-0.54052 6.46767,-3.43403 1.96426,-2.8935 1.82289,-5.91121 0.3864,-6.67484 z"
       style="fill:url(#linearGradient2989);fill-opacity:1;stroke:#a40000;stroke-opacity:1"
       id="path45138"
       inkscape:r_cx="true"
       inkscape:r_cy="true" /><path
       id="path16771"
       d="m 773.3492,546.73829 c -1.92513,0.38722 -3.63446,1.45402 -5.04691,2.48124 -0.75176,0.6949 -1.24356,1.44992 -1.91565,2.25421 -1.70832,2.35206 -2.42423,5.44343 -1.07283,8.06967 0.61945,1.4531 2.64263,2.04744 4.36821,1.67913 1.45192,-0.24846 2.68132,-1.16107 3.81241,-1.7989 0.92091,-0.79078 1.55402,-1.62651 2.3329,-2.59128 1.80936,-2.4744 2.79191,-5.74867 1.29797,-8.51228 -0.7237,-1.14213 -2.23464,-1.74679 -3.7761,-1.58179 z m 0.47201,0.96148 c 2.01651,0.25035 3.35698,2.03281 3.12255,3.72186 0.0208,2.28694 -1.14602,4.4441 -2.72315,6.23413 -1.41721,1.40198 -3.34862,2.72827 -5.66416,2.63632 -1.35885,-0.003 -2.43257,-0.9123 -2.81582,-1.96046 -0.61664,-2.53193 0.19472,-5.26523 1.9662,-7.338 1.35824,-1.52331 3.19485,-2.8871 5.46751,-3.24169 0.21569,-0.0153 0.43088,-0.0425 0.64687,-0.0522 z"
       style="fill:url(#linearGradient2991);fill-opacity:1;stroke:none;stroke-opacity:1"
       inkscape:r_cx="true"
       inkscape:r_cy="true" /><path
       id="path11967"
       style="fill:url(#radialGradient2993);fill-opacity:1;stroke:#a40000;stroke-opacity:1"
       d="m 789.35546,546.44193 c -3.23501,1.72665 -3.49583,6.61292 -0.57794,10.91436 2.91786,4.30396 7.90449,6.39518 11.14096,4.67613 3.2365,-1.72665 3.49583,-6.61039 0.57794,-10.91182 -2.91637,-4.30143 -7.90449,-6.39266 -11.14096,-4.67867 z m 1.85513,2.74215 c 1.43652,-0.76363 4.50746,0.54052 6.46634,3.43403 1.96291,2.8935 1.8229,5.91351 0.38773,6.67484 -1.43515,0.76823 -4.50879,-0.54052 -6.46767,-3.43403 -1.96426,-2.8935 -1.8229,-5.91121 -0.3864,-6.67484 z"
       inkscape:r_cx="true"
       inkscape:r_cy="true" /><polygon
       transform="matrix(3.624438,0,0,3.624438,-294.1553,499.3078)"
       points="298.86719,14.71875 299.26807,13.672852 298.25391,11.960449 296.95605,12.300293 297.6001,13.384766 "
       id="polygon45101"
       style="fill:url(#linearGradient2995);fill-opacity:1;stroke:url(#linearGradient2997);stroke-width:0.333248;stroke-linecap:round;stroke-linejoin:round;stroke-miterlimit:4;stroke-dasharray:none;stroke-opacity:1"
       inkscape:r_cx="true"
       inkscape:r_cy="true" /><path
       id="polygon16860"
       d="m 785.17995,544.0925 c -0.42675,0.19882 -1.01681,0.20148 -1.34375,0.5 0.95002,1.40139 1.88991,2.91466 2.85088,4.21258 0.66855,0.75454 1.35581,1.50022 2.11787,2.16242 0.73528,-1.39142 0.13516,-3.06121 -0.8125,-4.1875 -0.60254,-0.89969 -0.82982,-2.11296 -1.84375,-2.59375 -0.30405,-0.11841 -0.65062,-0.17788 -0.96875,-0.0937 z"
       style="fill:url(#linearGradient2999);fill-opacity:1;stroke:none;stroke-width:0.275905;stroke-linecap:round;stroke-linejoin:round;stroke-miterlimit:4;stroke-dasharray:none;stroke-opacity:1"
       inkscape:r_cx="true"
       inkscape:r_cy="true" /><path
       id="path16795"
       d="m 791.30379,546.60409 c -1.52039,0.22975 -2.89495,1.08566 -3.24045,2.38797 -1.13115,2.39545 -0.21488,5.11351 1.27978,7.22685 1.10192,1.3452 1.94007,2.92991 3.63958,3.77397 1.47065,0.92362 3.34114,1.89057 5.21764,1.30089 1.51332,-0.43345 2.37067,-1.68057 2.68017,-2.97186 0.60443,-2.31003 -0.29569,-4.67596 -1.70696,-6.63648 -0.65868,-0.91371 -1.33299,-1.88321 -2.11332,-2.69465 -1.19456,-0.90345 -2.63792,-1.65153 -4.08884,-2.23235 -0.5341,-0.11041 -1.11523,-0.23274 -1.6676,-0.15434 z m 0.4357,1.20961 c 1.75731,-0.0668 3.23451,0.73946 4.37637,1.76896 1.0323,0.96913 2.02166,1.80521 2.66251,2.99888 1.07719,1.82057 1.38786,3.97996 0.84011,5.96353 -0.52838,1.32451 -2.22616,1.97204 -3.79112,1.61645 -1.98188,-0.22883 -3.21734,-1.67102 -4.52657,-2.80836 -1.50575,-1.43139 -2.44062,-3.47863 -2.51058,-5.48238 0.0141,-1.01767 -0.0265,-2.17842 0.69814,-3.03357 0.41228,-0.54315 1.38001,-1.05432 2.25114,-1.02351 z"
       style="fill:url(#linearGradient3001);fill-opacity:1;stroke:none;stroke-opacity:1"
       inkscape:r_cx="true"
       inkscape:r_cy="true" /><ellipse
       transform="matrix(1.256055,0,0,0.819149,751.8243,525.2454)"
       id="path2267"
       style="color:#000000;display:inline;overflow:visible;visibility:visible;opacity:0.267045;fill:url(#radialGradient3003);fill-opacity:1;fill-rule:evenodd;stroke:none;stroke-width:1;stroke-linecap:butt;stroke-linejoin:miter;stroke-miterlimit:4;stroke-dasharray:none;stroke-dashoffset:0;stroke-opacity:1;marker:none;marker-start:none;marker-mid:none;marker-end:none"
       inkscape:r_cx="true"
       inkscape:r_cy="true"
       cx="25.1875"
       cy="41.625"
       rx="18.0625"
       ry="5.875" /></g><path
     inkscape:r_cy="true"
     inkscape:r_cx="true"
     id="path3022"
     d="m 43.506026,40.61612 h -0.75843"
     style="opacity:1;fill:#2e3436;fill-opacity:0.75;fill-rule:evenodd;stroke:#c4a000;stroke-width:1px;stroke-linecap:square;stroke-linejoin:miter;stroke-opacity:1" /><path
     inkscape:r_cy="true"
     inkscape:r_cx="true"
     id="path3046"
     d="m 43.506026,36.61612 h -0.75843"
     style="opacity:1;fill:#2e3436;fill-opacity:0.75;fill-rule:evenodd;stroke:#c4a000;stroke-width:1px;stroke-linecap:square;stroke-linejoin:miter;stroke-opacity:1" /><path
     inkscape:r_cy="true"
     inkscape:r_cx="true"
     id="path3050"
     d="m 43.506026,32.61612 h -0.75843"
     style="opacity:1;fill:#2e3436;fill-opacity:0.75;fill-rule:evenodd;stroke:#c4a000;stroke-width:1px;stroke-linecap:square;stroke-linejoin:miter;stroke-opacity:1" /><path
     inkscape:r_cy="true"
     inkscape:r_cx="true"
     id="path3054"
     d="m 43.506026,28.61612 h -0.75843"
     style="opacity:1;fill:#2e3436;fill-opacity:0.75;fill-rule:evenodd;stroke:#c4a000;stroke-width:1px;stroke-linecap:square;stroke-linejoin:miter;stroke-opacity:1" /><path
     inkscape:r_cy="true"
     inkscape:r_cx="true"
     id="path3058"
     d="m 43.506026,24.61612 h -0.75843"
     style="opacity:1;fill:#2e3436;fill-opacity:0.75;fill-rule:evenodd;stroke:#c4a000;stroke-width:1px;stroke-linecap:square;stroke-linejoin:miter;stroke-opacity:1" /><path
     inkscape:r_cy="true"
     inkscape:r_cx="true"
     id="path3062"
     d="m 43.506026,20.61612 h -0.75843"
     style="opacity:1;fill:#2e3436;fill-opacity:0.75;fill-rule:evenodd;stroke:#c4a000;stroke-width:1px;stroke-linecap:square;stroke-linejoin:miter;stroke-opacity:1" /><path
     inkscape:r_cy="true"
     inkscape:r_cx="true"
     id="path3066"
     d="m 43.506026,16.61612 h -0.75843"
     style="opacity:1;fill:#2e3436;fill-opacity:0.75;fill-rule:evenodd;stroke:#c4a000;stroke-width:1px;stroke-linecap:square;stroke-linejoin:miter;stroke-opacity:1" /><path
     inkscape:r_cy="true"
     inkscape:r_cx="true"
     id="path3070"
     d="m 43.506026,12.61612 h -0.75843"
     style="opacity:1;fill:#2e3436;fill-opacity:0.75;fill-rule:evenodd;stroke:#c4a000;stroke-width:1px;stroke-linecap:square;stroke-linejoin:miter;stroke-opacity:1" /></g></svg>
