<?xml version="1.0" encoding="UTF-8" standalone="no"?>
<svg
   xmlns:dc="http://purl.org/dc/elements/1.1/"
   xmlns:cc="http://creativecommons.org/ns#"
   xmlns:rdf="http://www.w3.org/1999/02/22-rdf-syntax-ns#"
   xmlns:svg="http://www.w3.org/2000/svg"
   xmlns="http://www.w3.org/2000/svg"
   xmlns:xlink="http://www.w3.org/1999/xlink"
   xmlns:sodipodi="http://sodipodi.sourceforge.net/DTD/sodipodi-0.dtd"
   xmlns:inkscape="http://www.inkscape.org/namespaces/inkscape"
   sodipodi:docname="input-gaming.svg"
   inkscape:version="1.0.1 (3bc2e813f5, 2020-09-07)"
   sodipodi:version="0.32"
   id="svg2913"
   height="256px"
   width="256px"
   inkscape:output_extension="org.inkscape.output.svg.inkscape"
   version="1.1"
   inkscape:export-filename="..\..\256x256\devices\input-gaming.png"
   inkscape:export-xdpi="96"
   inkscape:export-ydpi="96">
  <title
     id="title928">Gaming Input (Joystick) Icon</title>
  <defs
     id="defs3">
    <radialGradient
       inkscape:collect="always"
       xlink:href="#linearGradient5060"
       id="radialGradient6719"
       gradientUnits="userSpaceOnUse"
       gradientTransform="matrix(-2.774389,0,0,1.969706,112.7623,-872.8854)"
       cx="605.71429"
       cy="486.64789"
       fx="605.71429"
       fy="486.64789"
       r="117.14286" />
    <linearGradient
       inkscape:collect="always"
       id="linearGradient5060">
      <stop
         style="stop-color:black;stop-opacity:1;"
         offset="0"
         id="stop5062" />
      <stop
         style="stop-color:black;stop-opacity:0;"
         offset="1"
         id="stop5064" />
    </linearGradient>
    <radialGradient
       inkscape:collect="always"
       xlink:href="#linearGradient5060"
       id="radialGradient6717"
       gradientUnits="userSpaceOnUse"
       gradientTransform="matrix(2.774389,0,0,1.969706,-1891.633,-872.8854)"
       cx="605.71429"
       cy="486.64789"
       fx="605.71429"
       fy="486.64789"
       r="117.14286" />
    <linearGradient
       id="linearGradient5048">
      <stop
         style="stop-color:black;stop-opacity:0;"
         offset="0"
         id="stop5050" />
      <stop
         id="stop5056"
         offset="0.5"
         style="stop-color:black;stop-opacity:1;" />
      <stop
         style="stop-color:black;stop-opacity:0;"
         offset="1"
         id="stop5052" />
    </linearGradient>
    <linearGradient
       inkscape:collect="always"
       xlink:href="#linearGradient5048"
       id="linearGradient6715"
       gradientUnits="userSpaceOnUse"
       gradientTransform="matrix(2.774389,0,0,1.969706,-1892.179,-872.8854)"
       x1="302.85715"
       y1="366.64789"
       x2="302.85715"
       y2="609.50507" />
    <linearGradient
       id="linearGradient2510"
       inkscape:collect="always">
      <stop
         id="stop2512"
         offset="0"
         style="stop-color:#ffffff;stop-opacity:1;" />
      <stop
         id="stop2514"
         offset="1"
         style="stop-color:#ffffff;stop-opacity:0;" />
    </linearGradient>
    <linearGradient
       id="linearGradient5411"
       inkscape:collect="always">
      <stop
         id="stop5413"
         offset="0"
         style="stop-color:#ffffff;stop-opacity:1;" />
      <stop
         id="stop5415"
         offset="1"
         style="stop-color:#ffffff;stop-opacity:0;" />
    </linearGradient>
    <linearGradient
       id="linearGradient5069"
       inkscape:collect="always">
      <stop
         id="stop5071"
         offset="0"
         style="stop-color:#000000;stop-opacity:1;" />
      <stop
         id="stop5073"
         offset="1"
         style="stop-color:#000000;stop-opacity:0;" />
    </linearGradient>
    <linearGradient
       id="linearGradient5018">
      <stop
         id="stop5020"
         offset="0"
         style="stop-color:#aaaaaa;stop-opacity:1;" />
      <stop
         id="stop5022"
         offset="1.0000000"
         style="stop-color:#cdcdcd;stop-opacity:1.0000000;" />
    </linearGradient>
    <linearGradient
       id="linearGradient4990">
      <stop
         id="stop4992"
         offset="0.0000000"
         style="stop-color:#ff8a2b;stop-opacity:1.0000000;" />
      <stop
         id="stop4994"
         offset="1.0000000"
         style="stop-color:#833a00;stop-opacity:1.0000000;" />
    </linearGradient>
    <linearGradient
       id="linearGradient4254"
       inkscape:collect="always">
      <stop
         id="stop4256"
         offset="0"
         style="stop-color:#ffffff;stop-opacity:1;" />
      <stop
         id="stop4258"
         offset="1"
         style="stop-color:#ffffff;stop-opacity:0;" />
    </linearGradient>
    <linearGradient
       id="linearGradient4244">
      <stop
         id="stop4246"
         offset="0.0000000"
         style="stop-color:#e4e4e4;stop-opacity:1.0000000;" />
      <stop
         id="stop4248"
         offset="1.0000000"
         style="stop-color:#d3d3d3;stop-opacity:1.0000000;" />
    </linearGradient>
    <linearGradient
       id="linearGradient4228">
      <stop
         id="stop4230"
         offset="0.0000000"
         style="stop-color:#bbbbbb;stop-opacity:1.0000000;" />
      <stop
         id="stop4232"
         offset="1.0000000"
         style="stop-color:#9f9f9f;stop-opacity:1.0000000;" />
    </linearGradient>
    <radialGradient
       inkscape:collect="always"
       xlink:href="#linearGradient5069"
       id="radialGradient1470"
       gradientUnits="userSpaceOnUse"
       gradientTransform="matrix(1,0,0,0.624277,0,12.28944)"
       cx="10.363534"
       cy="32.708817"
       fx="10.363534"
       fy="32.708817"
       r="3.8227961" />
    <linearGradient
       inkscape:collect="always"
       xlink:href="#linearGradient5411"
       id="linearGradient1476"
       gradientUnits="userSpaceOnUse"
       x1="24.237061"
       y1="31.712437"
       x2="24.237061"
       y2="28.359171" />
    <linearGradient
       inkscape:collect="always"
       xlink:href="#linearGradient4990"
       id="linearGradient1482"
       gradientUnits="userSpaceOnUse"
       x1="23.599133"
       y1="3.4934268"
       x2="26.032751"
       y2="13.095204" />
    <linearGradient
       inkscape:collect="always"
       xlink:href="#linearGradient4990"
       id="linearGradient1484"
       gradientUnits="userSpaceOnUse"
       x1="24.395184"
       y1="11.509590"
       x2="17.766058"
       y2="-6.4607105" />
    <linearGradient
       inkscape:collect="always"
       xlink:href="#linearGradient2510"
       id="linearGradient1489"
       gradientUnits="userSpaceOnUse"
       x1="21.057629"
       y1="2.4374962"
       x2="26.286110"
       y2="29.562496" />
    <linearGradient
       inkscape:collect="always"
       xlink:href="#linearGradient5018"
       id="linearGradient1496"
       gradientUnits="userSpaceOnUse"
       gradientTransform="translate(0,-0.625)"
       x1="26.312500"
       y1="17.500000"
       x2="23.062500"
       y2="17.500000" />
    <linearGradient
       inkscape:collect="always"
       xlink:href="#linearGradient5018"
       id="linearGradient1501"
       gradientUnits="userSpaceOnUse"
       gradientTransform="translate(0,-0.625)"
       x1="28.468750"
       y1="28.125000"
       x2="20.000000"
       y2="26.375000" />
    <linearGradient
       inkscape:collect="always"
       xlink:href="#linearGradient4254"
       id="linearGradient1507"
       gradientUnits="userSpaceOnUse"
       gradientTransform="translate(0,8.055463)"
       x1="12.378357"
       y1="4.4331360"
       x2="44.096100"
       y2="47.620636" />
    <radialGradient
       inkscape:collect="always"
       xlink:href="#linearGradient4244"
       id="radialGradient1512"
       gradientUnits="userSpaceOnUse"
       gradientTransform="matrix(1.286242,0.781698,-0.710782,1.169552,-2.354348,3.178602)"
       cx="15.571491"
       cy="2.9585190"
       fx="15.571491"
       fy="2.9585190"
       r="20.935817" />
    <linearGradient
       inkscape:collect="always"
       xlink:href="#linearGradient4228"
       id="linearGradient1516"
       gradientUnits="userSpaceOnUse"
       gradientTransform="translate(0,8.055463)"
       x1="7.6046205"
       y1="28.481176"
       x2="36.183067"
       y2="40.943935" />
    <radialGradient
       inkscape:collect="always"
       xlink:href="#linearGradient4990"
       id="radialGradient1520"
       gradientUnits="userSpaceOnUse"
       gradientTransform="matrix(2.385563,0,0,2.385563,-30.8437,-6.089588)"
       cx="22.693991"
       cy="4.9365706"
       fx="22.693991"
       fy="4.9365706"
       r="6.6291261" />
  </defs>
  <sodipodi:namedview
     inkscape:window-y="80"
     inkscape:window-x="418"
     inkscape:window-height="768"
     inkscape:window-width="1373"
     inkscape:document-units="px"
     inkscape:grid-bbox="true"
     showgrid="false"
     inkscape:current-layer="layer2"
     inkscape:cy="126.08807"
     inkscape:cx="145.46995"
     inkscape:zoom="2"
     inkscape:pageshadow="2"
     inkscape:pageopacity="0.0"
     borderopacity="1.0"
     bordercolor="#666666"
     pagecolor="#ffffff"
     id="base"
     inkscape:showpageshadow="false"
     inkscape:document-rotation="0"
     inkscape:pagecheckerboard="true"
     inkscape:window-maximized="0" />
  <metadata
     id="metadata4">
    <rdf:RDF>
      <cc:Work
         rdf:about="">
        <dc:format>image/svg+xml</dc:format>
        <dc:type
           rdf:resource="http://purl.org/dc/dcmitype/StillImage" />
        <dc:title>Gaming Input (Joystick) Icon</dc:title>
        <dc:creator>
          <cc:Agent>
            <dc:title>Jakub Steiner, Daniel S. Fowler</dc:title>
          </cc:Agent>
        </dc:creator>
        <dc:subject>
          <rdf:Bag>
            <rdf:li>input</rdf:li>
            <rdf:li>gaming</rdf:li>
            <rdf:li>controller</rdf:li>
            <rdf:li>joystick</rdf:li>
            <rdf:li>game</rdf:li>
            <rdf:li>hid</rdf:li>
            <rdf:li>computer</rdf:li>
            <rdf:li>icon</rdf:li>
          </rdf:Bag>
        </dc:subject>
        <cc:license
           rdf:resource="http://creativecommons.org/publicdomain/zero/1.0/" />
        <dc:identifier>https://tekeye.uk/free_resources/tango_desktop_project/images/svg/devices/drive-harddisk.svg</dc:identifier>
        <dc:source>https://tekeye.uk/free_resources/tango_desktop_project/index</dc:source>
        <dc:date> 2021-01-03</dc:date>
        <dc:rights>
          <cc:Agent>
            <dc:title>Public Domain</dc:title>
          </cc:Agent>
        </dc:rights>
        <dc:publisher>
          <cc:Agent>
            <dc:title>https://tekeye.uk/</dc:title>
          </cc:Agent>
        </dc:publisher>
        <dc:relation>https://tekeye.uk/free_resources/tango_desktop_project/images/svg/devices/drive-optical.svg</dc:relation>
        <dc:language>en-GB</dc:language>
        <dc:coverage>computing</dc:coverage>
        <dc:description>An icon for gaming, a joystick.</dc:description>
      </cc:Work>
      <cc:License
         rdf:about="http://creativecommons.org/publicdomain/zero/1.0/">
        <cc:permits
           rdf:resource="http://creativecommons.org/ns#Reproduction" />
        <cc:permits
           rdf:resource="http://creativecommons.org/ns#Distribution" />
        <cc:permits
           rdf:resource="http://creativecommons.org/ns#DerivativeWorks" />
      </cc:License>
    </rdf:RDF>
  </metadata>
  <g
     inkscape:label="pix"
     id="layer2"
     inkscape:groupmode="layer">
    <g
       id="g926"
       transform="matrix(5.3555067,0,0,5.3555172,-1.5404812,1.159041)">
      <g
         transform="matrix(0.02354239,0,0,0.02086758,45.31444,40.2786)"
         id="g6707">
        <rect
           style="color:#000000;display:inline;overflow:visible;visibility:visible;opacity:0.402062;fill:url(#linearGradient6715);fill-opacity:1;fill-rule:nonzero;stroke:none;stroke-width:1;stroke-linecap:round;stroke-linejoin:miter;stroke-miterlimit:4;stroke-dasharray:none;stroke-dashoffset:0;stroke-opacity:1;marker:none;marker-start:none;marker-mid:none;marker-end:none"
           id="rect6709"
           width="1339.6335"
           height="478.35718"
           x="-1559.2523"
           y="-150.69685" />
        <path
           style="color:#000000;display:inline;overflow:visible;visibility:visible;opacity:0.402062;fill:url(#radialGradient6717);fill-opacity:1;fill-rule:nonzero;stroke:none;stroke-width:1;stroke-linecap:round;stroke-linejoin:miter;stroke-miterlimit:4;stroke-dasharray:none;stroke-dashoffset:0;stroke-opacity:1;marker:none;marker-start:none;marker-mid:none;marker-end:none"
           d="m -219.61876,-150.68038 c 0,0 0,478.33079 0,478.33079 142.874166,0.90045 345.40022,-107.16966 345.40014,-239.196175 0,-132.026537 -159.436816,-239.134595 -345.40014,-239.134615 z"
           id="path6711"
           sodipodi:nodetypes="cccc" />
        <path
           sodipodi:nodetypes="cccc"
           id="path6713"
           d="m -1559.2523,-150.68038 c 0,0 0,478.33079 0,478.33079 -142.8742,0.90045 -345.4002,-107.16966 -345.4002,-239.196175 0,-132.026537 159.4368,-239.134595 345.4002,-239.134615 z"
           style="color:#000000;display:inline;overflow:visible;visibility:visible;opacity:0.402062;fill:url(#radialGradient6719);fill-opacity:1;fill-rule:nonzero;stroke:none;stroke-width:1;stroke-linecap:round;stroke-linejoin:miter;stroke-miterlimit:4;stroke-dasharray:none;stroke-dashoffset:0;stroke-opacity:1;marker:none;marker-start:none;marker-mid:none;marker-end:none" />
      </g>
      <path
         sodipodi:nodetypes="cccsccccccccc"
         id="path4196"
         d="m 9.28569,22.018085 c -0.625,0 -1.031249,0.29018 -1.281248,0.843753 -10e-7,0 -4.4687505,11.103564 -4.4687505,11.103564 0,0 -0.25,0.671559 -0.25,1.78125 0,0 0,5.649968 0,5.649968 0,1.082613 0.6577855,1.625002 1.65625,1.625 H 43.50444 c 0.984853,0 1.59375,-0.71818 1.59375,-1.84375 v -5.649968 c 0,0 0.105963,-0.770423 -0.09375,-1.3125 L 40.28569,23.018089 c -0.184525,-0.511907 -0.636905,-0.988098 -1.125,-1.000004 z"
         style="fill:none;fill-opacity:1;fill-rule:evenodd;stroke:#535353;stroke-width:2;stroke-linecap:round;stroke-linejoin:round;stroke-miterlimit:4;stroke-dasharray:none;stroke-opacity:1" />
      <path
         sodipodi:nodetypes="ccccccccc"
         id="path4170"
         d="m 3.2735915,35.052276 0.7646021,-0.692215 37.6096894,0.0625 3.462407,0.317298 v 6.438532 c 0,1.125569 -0.607018,1.843331 -1.591871,1.843331 H 4.9354314 c -0.9984647,0 -1.6618399,-0.542051 -1.6618399,-1.624664 z"
         style="fill:url(#linearGradient1516);fill-opacity:1;fill-rule:evenodd;stroke:none;stroke-width:1.02044px;stroke-linecap:butt;stroke-linejoin:miter;stroke-opacity:1" />
      <path
         id="path5030"
         d="m 24.5625,19.75 c -2.624655,0 -4.709751,1.051914 -4.875,2.375 H 19.625 c 0,0 -1.28125,5.1875 -1.28125,5.1875 -0.21875,1.09375 2.078745,3.03125 6.21875,3.03125 4.171393,0 6.5625,-1.96875 6.15625,-3.4375 0,0 -1.1875,-4.78125 -1.1875,-4.78125 h -0.0625 C 29.30511,20.801122 27.188264,19.750001 24.5625,19.75 Z"
         style="color:#000000;font-family:'Bitstream Vera Sans';display:inline;overflow:visible;visibility:visible;opacity:1;fill:none;fill-opacity:1;fill-rule:evenodd;stroke:#666666;stroke-width:2;stroke-linecap:butt;stroke-linejoin:miter;stroke-miterlimit:4;stroke-dasharray:none;stroke-dashoffset:0;stroke-opacity:1;marker:none;marker-start:none;marker-mid:none;marker-end:none" />
      <path
         sodipodi:nodetypes="csccccccs"
         id="path3093"
         d="m 3.5490842,33.969868 c -0.7142857,1.464286 -6.156e-4,2.392857 1.0357143,2.392857 0,0 38.9999985,0 38.9999985,0 1.119047,-0.02381 1.845238,-1.011905 1.428571,-2.142858 L 40.299082,23.009162 C 40.114558,22.497255 39.64432,22.021063 39.156225,22.009158 H 9.299083 c -0.625,0 -1.035714,0.303573 -1.285713,0.857146 0,0 -4.4642858,11.103564 -4.4642858,11.103564 z"
         style="fill:url(#radialGradient1512);fill-opacity:1;fill-rule:evenodd;stroke:none;stroke-width:1px;stroke-linecap:butt;stroke-linejoin:miter;stroke-opacity:1" />
      <ellipse
         transform="translate(0.154679,0.287261)"
         id="path5067"
         style="color:#000000;font-family:'Bitstream Vera Sans';display:inline;overflow:visible;visibility:visible;opacity:1;fill:url(#radialGradient1470);fill-opacity:1;fill-rule:evenodd;stroke:none;stroke-width:2;stroke-linecap:butt;stroke-linejoin:miter;stroke-miterlimit:4;stroke-dasharray:none;stroke-dashoffset:0;stroke-opacity:1;marker:none;marker-start:none;marker-mid:none;marker-end:none"
         cx="10.363534"
         cy="32.708817"
         rx="3.8227961"
         ry="2.3864853" />
      <path
         sodipodi:nodetypes="cccccccc"
         id="path4201"
         d="m 44.796162,33.684152 c 0.06352,1.249974 -0.414003,2.31584 -1.322116,2.34375 0,0 -38.1187164,-10e-7 -38.1187163,0 -1.2892319,0 -1.867736,-0.324947 -2.0840507,-0.868056 0.091761,0.944332 0.8258174,1.649306 2.0840507,1.649306 -1e-7,-10e-7 38.1187163,0 38.1187163,0 1.076007,-0.03307 1.752805,-1.424024 1.352164,-2.994791 z"
         style="fill:#ffffff;fill-opacity:1;fill-rule:evenodd;stroke:none;stroke-width:1px;stroke-linecap:butt;stroke-linejoin:miter;stroke-opacity:1" />
      <path
         style="fill:none;fill-opacity:1;fill-rule:evenodd;stroke:url(#linearGradient1507);stroke-width:1;stroke-linecap:round;stroke-linejoin:round;stroke-miterlimit:4;stroke-dasharray:none;stroke-opacity:1"
         d="m 9.642515,22.47118 c -0.601692,0 -0.992791,0.279359 -1.233466,0.812287 -10e-7,0 -4.4150149,10.590729 -4.4150149,10.590729 0,0 -0.2406768,0.646515 -0.2406768,1.714823 0,0 0,5.290096 0,5.290096 0,1.35474 0.4440561,1.626899 1.5944841,1.626899 H 43.034746 c 1.323126,0 1.534316,-0.316397 1.534316,-1.837492 v -5.290096 c 0,0 0.10201,-0.741691 -0.09025,-1.263553 L 39.885616,23.308891 c -0.177643,-0.492816 -0.550652,-0.82625 -1.020545,-0.837711 z"
         id="path4252"
         sodipodi:nodetypes="cccsccccccccc" />
      <ellipse
         transform="matrix(1.581301,0,0,1.581301,-14.2837,-16.5907)"
         id="path4341"
         style="color:#000000;font-family:'Bitstream Vera Sans';display:inline;overflow:visible;visibility:visible;opacity:1;fill:#ffffff;fill-opacity:0.480226;fill-rule:evenodd;stroke:none;stroke-width:1px;stroke-linecap:butt;stroke-linejoin:miter;stroke-miterlimit:4;stroke-dasharray:none;stroke-dashoffset:0;stroke-opacity:1;marker:none;marker-start:none;marker-mid:none;marker-end:none"
         cx="24.57196"
         cy="28.377787"
         rx="7.2478447"
         ry="3.7123106" />
      <ellipse
         style="color:#000000;font-family:'Bitstream Vera Sans';display:inline;overflow:visible;visibility:visible;opacity:1;fill:#c9c9c9;fill-opacity:1;fill-rule:evenodd;stroke:none;stroke-width:1px;stroke-linecap:butt;stroke-linejoin:miter;stroke-miterlimit:4;stroke-dasharray:none;stroke-dashoffset:0;stroke-opacity:1;marker:none;marker-start:none;marker-mid:none;marker-end:none"
         id="path4343"
         transform="matrix(0.853659,0,0,0.853659,3.595897,2.933178)"
         cx="24.57196"
         cy="28.377787"
         rx="7.2478447"
         ry="3.7123106" />
      <path
         sodipodi:nodetypes="ccccccccccc"
         id="path4659"
         d="m 24.5625,1.34375 c -3.659278,0 -6.625,2.9657226 -6.625,6.625 0,2.607559 1.559074,4.792747 3.75,5.875 v 8.46875 c 0,0 0,0.03564 0,0.0625 0,0.813967 1.285826,1.468751 2.875,1.46875 1.589174,0 2.875,-0.654783 2.875,-1.46875 V 22.3125 13.875 c 2.210442,-1.075204 3.75,-3.284395 3.75,-5.90625 0,-3.6592776 -2.965722,-6.625 -6.625,-6.625 z"
         style="color:#000000;font-family:'Bitstream Vera Sans';display:inline;overflow:visible;visibility:visible;opacity:1;fill:none;fill-opacity:1;fill-rule:evenodd;stroke:#666666;stroke-width:2;stroke-linecap:butt;stroke-linejoin:miter;stroke-miterlimit:4;stroke-dasharray:none;stroke-dashoffset:0;stroke-opacity:1;marker:none;marker-start:none;marker-mid:none;marker-end:none" />
      <path
         sodipodi:nodetypes="cczccc"
         id="path5026"
         d="m 29.53125,22.125 c 0,0 1.1875,4.78125 1.1875,4.78125 0.40625,1.46875 -1.984857,3.4375 -6.15625,3.4375 -4.140005,0 -6.4375,-1.9375 -6.21875,-3.03125 0,0 1.28125,-5.1875 1.28125,-5.1875 z"
         style="color:#000000;font-family:'Bitstream Vera Sans';display:inline;overflow:visible;visibility:visible;opacity:1;fill:url(#linearGradient1501);fill-opacity:1;fill-rule:evenodd;stroke:none;stroke-width:1px;stroke-linecap:butt;stroke-linejoin:miter;stroke-miterlimit:4;stroke-dasharray:none;stroke-dashoffset:0;stroke-opacity:1;marker:none;marker-start:none;marker-mid:none;marker-end:none" />
      <ellipse
         transform="matrix(0.682927,0,0,0.682927,7.79111,2.903166)"
         id="path4345"
         style="color:#000000;font-family:'Bitstream Vera Sans';display:inline;overflow:visible;visibility:visible;opacity:1;fill:#e4e4e4;fill-opacity:1;fill-rule:evenodd;stroke:none;stroke-width:1px;stroke-linecap:butt;stroke-linejoin:miter;stroke-miterlimit:4;stroke-dasharray:none;stroke-dashoffset:0;stroke-opacity:1;marker:none;marker-start:none;marker-mid:none;marker-end:none"
         cx="24.57196"
         cy="28.377787"
         rx="7.2478447"
         ry="3.7123106" />
      <path
         transform="matrix(0.633635,0,0,0.633635,9.123852,4.17687)"
         d="m 24.572266,19.748047 a 7.2478447,3.7123106 0 0 0 -4.949219,2.535156 7.2478447,3.7123106 0 0 0 4.949219,2.535156 7.2478447,3.7123106 0 0 0 4.949218,-2.535156 7.2478447,3.7123106 0 0 0 -4.949218,-2.535156 z"
         inkscape:href="#path4345"
         id="path5419"
         style="color:#000000;font-family:'Bitstream Vera Sans';display:inline;overflow:visible;visibility:visible;opacity:1;fill:none;fill-opacity:1;fill-rule:evenodd;stroke:url(#linearGradient1476);stroke-width:1.07779px;stroke-linecap:butt;stroke-linejoin:miter;stroke-miterlimit:4;stroke-dasharray:none;stroke-dashoffset:0;stroke-opacity:1;marker:none;marker-start:none;marker-mid:none;marker-end:none"
         xlink:href="#path4345"
         inkscape:original="M 24.572266 19.748047 A 7.2478447 3.7123106 0 0 0 19.623047 22.283203 A 7.2478447 3.7123106 0 0 0 24.572266 24.818359 A 7.2478447 3.7123106 0 0 0 29.521484 22.283203 A 7.2478447 3.7123106 0 0 0 24.572266 19.748047 z "
         inkscape:radius="0"
         sodipodi:type="inkscape:offset" />
      <path
         id="path4347"
         d="m 24.5625,6.28125 c -1.589174,0 -2.874999,0.6547825 -2.875,1.46875 0,0.026864 0.05973,0.035989 0.0625,0.0625 h -0.0625 v 13.875 H 21.75 c -0.0028,0.02651 -0.0625,0.03564 -0.0625,0.0625 0,0.813967 1.285826,1.468751 2.875,1.46875 1.589174,0 2.875,-0.654783 2.875,-1.46875 0,-0.02686 -0.05973,-0.03599 -0.0625,-0.0625 h 0.0625 V 7.8125 H 27.375 c 0.0028,-0.026511 0.0625,-0.035636 0.0625,-0.0625 0,-0.8139671 -1.285826,-1.46875 -2.875,-1.46875 z"
         style="color:#000000;font-family:'Bitstream Vera Sans';display:inline;overflow:visible;visibility:visible;opacity:1;fill:url(#linearGradient1496);fill-opacity:1;fill-rule:evenodd;stroke:none;stroke-width:1px;stroke-linecap:butt;stroke-linejoin:miter;stroke-miterlimit:4;stroke-dasharray:none;stroke-dashoffset:0;stroke-opacity:1;marker:none;marker-start:none;marker-mid:none;marker-end:none" />
      <circle
         transform="matrix(0.967577,0,0,0.967577,0.96773,-0.16866)"
         id="path4641"
         style="color:#000000;font-family:'Bitstream Vera Sans';display:inline;overflow:visible;visibility:visible;opacity:1;fill:url(#radialGradient1520);fill-opacity:1;fill-rule:evenodd;stroke:none;stroke-width:1.07542;stroke-linecap:butt;stroke-linejoin:miter;stroke-miterlimit:4;stroke-dasharray:none;stroke-dashoffset:0;stroke-opacity:1;marker:none;marker-start:none;marker-mid:none;marker-end:none"
         cx="24.395184"
         cy="8.4020205"
         r="6.6291261" />
      <g
         transform="matrix(1,0,0,0.84966,0.810662,5.224199)"
         id="g5049">
        <circle
           transform="matrix(0.510331,0,0,0.354752,-2.87767,29.41695)"
           id="path5039"
           style="color:#000000;font-family:'Bitstream Vera Sans';display:inline;overflow:visible;visibility:visible;opacity:1;fill:url(#linearGradient1482);fill-opacity:1;fill-rule:evenodd;stroke:none;stroke-width:1.07542;stroke-linecap:butt;stroke-linejoin:miter;stroke-miterlimit:4;stroke-dasharray:none;stroke-dashoffset:0;stroke-opacity:1;marker:none;marker-start:none;marker-mid:none;marker-end:none"
           cx="24.395184"
           cy="8.4020205"
           r="6.6291261" />
        <circle
           style="color:#000000;font-family:'Bitstream Vera Sans';display:inline;overflow:visible;visibility:visible;opacity:1;fill:url(#linearGradient1484);fill-opacity:1;fill-rule:evenodd;stroke:none;stroke-width:1.07542;stroke-linecap:butt;stroke-linejoin:miter;stroke-miterlimit:4;stroke-dasharray:none;stroke-dashoffset:0;stroke-opacity:1;marker:none;marker-start:none;marker-mid:none;marker-end:none"
           id="path5045"
           transform="matrix(0.430193,0,0,0.299045,-0.922674,29.60375)"
           cx="24.395184"
           cy="8.4020205"
           r="6.6291261" />
      </g>
      <path
         sodipodi:nodetypes="ccccccccccccc"
         id="path2204"
         d="m 24.563623,2.0718822 c -3.284876,0 -5.943495,2.6876119 -5.943495,5.9724868 0,2.312769 1.660026,4.26294 3.58867,5.247671 v 7.121965 c -0.867236,0.395397 -2.15313,1.043191 -2.16803,1.681574 0,0 -1.246684,5.145245 -1.246684,5.145245 -0.202948,1.014743 1.928587,2.812287 5.769539,2.812287 3.870072,0 6.088458,-1.826537 5.711553,-3.189192 l -1.217691,-4.855318 c -0.01596,-0.683778 -1.225688,-1.111895 -2.201538,-1.507618 V 13.29204 c 1.928645,-0.984731 3.680162,-2.934902 3.680163,-5.247671 0,-3.2848748 -2.687613,-5.9724868 -5.972487,-5.9724868 z"
         style="color:#000000;font-family:'Bitstream Vera Sans';display:inline;overflow:visible;visibility:visible;opacity:0.525714;fill:none;fill-opacity:1;fill-rule:evenodd;stroke:url(#linearGradient1489);stroke-width:1px;stroke-linecap:butt;stroke-linejoin:miter;stroke-miterlimit:4;stroke-dasharray:none;stroke-dashoffset:0;stroke-opacity:1;marker:none;marker-start:none;marker-mid:none;marker-end:none" />
    </g>
  </g>
</svg>
