<?xml version="1.0" encoding="UTF-8" standalone="no"?>
<svg
   xmlns:dc="http://purl.org/dc/elements/1.1/"
   xmlns:cc="http://creativecommons.org/ns#"
   xmlns:rdf="http://www.w3.org/1999/02/22-rdf-syntax-ns#"
   xmlns:svg="http://www.w3.org/2000/svg"
   xmlns="http://www.w3.org/2000/svg"
   xmlns:xlink="http://www.w3.org/1999/xlink"
   xmlns:sodipodi="http://sodipodi.sourceforge.net/DTD/sodipodi-0.dtd"
   xmlns:inkscape="http://www.inkscape.org/namespaces/inkscape"
   width="256px"
   height="256px"
   id="svg3077"
   sodipodi:version="0.32"
   inkscape:version="1.0.1 (3bc2e813f5, 2020-09-07)"
   sodipodi:docname="media-optical.svg"
   inkscape:output_extension="org.inkscape.output.svg.inkscape"
   version="1.1"
   inkscape:export-filename="..\..\256x256\devices\media-optical.png"
   inkscape:export-xdpi="96"
   inkscape:export-ydpi="96">
  <title
     id="title931">Optical Media Icon</title>
  <defs
     id="defs3">
    <linearGradient
       id="linearGradient3435"
       gradientUnits="userSpaceOnUse"
       x1="12.2744"
       y1="32.4165"
       x2="35.3912"
       y2="14.2033">
      <stop
         offset="0.0000000"
         style="stop-color:#ffffc8;stop-opacity:1.0000000;"
         id="stop3437" />
      <stop
         offset="1.0000000"
         style="stop-color:#9a91ef;stop-opacity:0.0000000;"
         id="stop3439" />
    </linearGradient>
    <linearGradient
       y2="14.2033"
       x2="35.3912"
       y1="32.4165"
       x1="12.2744"
       gradientUnits="userSpaceOnUse"
       id="linearGradient3421">
      <stop
         id="stop3423"
         style="stop-color:#ffffff;stop-opacity:1.0000000;"
         offset="0.0000000" />
      <stop
         id="stop3427"
         style="stop-color:#b8c04c;stop-opacity:0.0000000;"
         offset="1.0000000" />
    </linearGradient>
    <linearGradient
       id="linearGradient3406"
       gradientUnits="userSpaceOnUse"
       x1="12.2744"
       y1="32.4165"
       x2="35.3912"
       y2="14.2033">
      <stop
         offset="0.0000000"
         style="stop-color:#b307ff;stop-opacity:0.82178217;"
         id="stop3408" />
      <stop
         offset="1.0000000"
         style="stop-color:#f0ff8b;stop-opacity:0.64356434;"
         id="stop3410" />
      <stop
         offset="1.0000000"
         style="stop-color:#ffffff;stop-opacity:0.0000000;"
         id="stop3412" />
    </linearGradient>
    <linearGradient
       y2="14.2033"
       x2="35.3912"
       y1="32.4165"
       x1="12.2744"
       gradientUnits="userSpaceOnUse"
       id="linearGradient3394">
      <stop
         id="stop3396"
         style="stop-color:#fff307;stop-opacity:1.0000000;"
         offset="0.0000000" />
      <stop
         id="stop3398"
         style="stop-color:#166eff;stop-opacity:1.0000000;"
         offset="0.50000000" />
      <stop
         id="stop3400"
         style="stop-color:#ffffff;stop-opacity:0.0000000;"
         offset="1.0000000" />
    </linearGradient>
    <linearGradient
       id="linearGradient4236">
      <stop
         style="stop-color:#ffffff;stop-opacity:0.32673267;"
         offset="0.0000000"
         id="stop4238" />
      <stop
         style="stop-color:#ffffff;stop-opacity:0.60396039;"
         offset="1.0000000"
         id="stop4240" />
    </linearGradient>
    <linearGradient
       id="aigrd2"
       gradientUnits="userSpaceOnUse"
       x1="12.2744"
       y1="32.4165"
       x2="35.3912"
       y2="14.2033">
      <stop
         offset="0"
         style="stop-color:#FBFBFB"
         id="stop3043" />
      <stop
         offset="0.5"
         style="stop-color:#B6B6B6"
         id="stop3045" />
      <stop
         offset="1"
         style="stop-color:#E4E4E4"
         id="stop3047" />
    </linearGradient>
    <linearGradient
       id="aigrd1"
       gradientUnits="userSpaceOnUse"
       x1="14.9966"
       y1="11.1885"
       x2="32.511"
       y2="34.3075">
      <stop
         offset="0"
         style="stop-color:#EBEBEB"
         id="stop3034" />
      <stop
         offset="0.5"
         style="stop-color:#FFFFFF"
         id="stop3036" />
      <stop
         offset="1"
         style="stop-color:#EBEBEB"
         id="stop3038" />
    </linearGradient>
    <radialGradient
       inkscape:collect="always"
       xlink:href="#linearGradient3435"
       id="radialGradient23368"
       gradientUnits="userSpaceOnUse"
       gradientTransform="matrix(-0.28333943,0.07789514,-0.72089008,-2.6222124,190.17733,205.79326)"
       cx="133.84108"
       cy="23.914305"
       fx="133.84108"
       fy="23.914305"
       r="21.333334" />
    <radialGradient
       inkscape:collect="always"
       xlink:href="#linearGradient3435"
       id="radialGradient23371"
       gradientUnits="userSpaceOnUse"
       gradientTransform="matrix(0.59447052,-0.10743979,0.58814505,3.2542597,87.602371,24.35521)"
       cx="35.511295"
       cy="21.618015"
       fx="35.511295"
       fy="21.618015"
       r="21.333334" />
    <radialGradient
       inkscape:collect="always"
       xlink:href="#linearGradient3435"
       id="radialGradient23374"
       gradientUnits="userSpaceOnUse"
       gradientTransform="matrix(0.02909755,-0.68957143,3.0563629,0.12896905,-3.2087891,132.07568)"
       cx="16.885271"
       cy="33.377594"
       fx="16.885271"
       fy="33.377594"
       r="21.333334" />
    <radialGradient
       inkscape:collect="always"
       xlink:href="#linearGradient3421"
       id="radialGradient23377"
       gradientUnits="userSpaceOnUse"
       gradientTransform="matrix(0.88932601,-0.89234562,2.4297599,2.4215317,-23.868312,68.6162)"
       cx="53.556889"
       cy="48.23827"
       fx="53.556889"
       fy="48.23827"
       r="21.333334" />
    <radialGradient
       inkscape:collect="always"
       xlink:href="#linearGradient3406"
       id="radialGradient23380"
       gradientUnits="userSpaceOnUse"
       gradientTransform="matrix(4.3189476,-6.9737303,3.7621661,2.3300454,-130.81714,216.59151)"
       cx="26.137741"
       cy="38.807304"
       fx="26.137741"
       fy="38.807304"
       r="21.333334" />
    <radialGradient
       inkscape:collect="always"
       xlink:href="#linearGradient3394"
       id="radialGradient23383"
       gradientUnits="userSpaceOnUse"
       gradientTransform="matrix(4.7633749,5.3770407,-4.3897682,3.8886418,96.327471,-130.78394)"
       cx="37.751469"
       cy="27.569166"
       fx="37.751469"
       fy="27.569166"
       r="21.333334" />
    <linearGradient
       inkscape:collect="always"
       xlink:href="#linearGradient6028"
       id="linearGradient23353"
       gradientUnits="userSpaceOnUse"
       x1="28.702885"
       y1="31.494707"
       x2="17.742729"
       y2="18.366575"
       gradientTransform="matrix(5.6126602,0,0,5.6126602,-8.0853491,-15.08361)" />
    <linearGradient
       inkscape:collect="always"
       id="linearGradient6028">
      <stop
         style="stop-color:#ffffff;stop-opacity:1;"
         offset="0"
         id="stop6030" />
      <stop
         style="stop-color:#ffffff;stop-opacity:0;"
         offset="1"
         id="stop6032" />
    </linearGradient>
    <linearGradient
       inkscape:collect="always"
       xlink:href="#linearGradient6028"
       id="linearGradient23387"
       gradientUnits="userSpaceOnUse"
       x1="10.50172"
       y1="3.6100161"
       x2="48.798885"
       y2="54.698483"
       gradientTransform="matrix(5.6126602,0,0,5.6126602,-8.5813951,-15.57971)" />
    <linearGradient
       inkscape:collect="always"
       xlink:href="#linearGradient4236"
       id="linearGradient23390"
       gradientUnits="userSpaceOnUse"
       gradientTransform="matrix(7.0158252,0,0,7.0158252,-40.309758,-30.196034)"
       x1="21.125"
       y1="14.625"
       x2="29"
       y2="28" />
    <linearGradient
       inkscape:collect="always"
       xlink:href="#aigrd2"
       id="linearGradient23397"
       gradientUnits="userSpaceOnUse"
       gradientTransform="matrix(6.6817373,0,0,6.6817373,-32.291674,-29.611363)"
       x1="12.2744"
       y1="32.4165"
       x2="35.391201"
       y2="14.2033" />
    <linearGradient
       inkscape:collect="always"
       xlink:href="#aigrd1"
       id="linearGradient23400"
       gradientUnits="userSpaceOnUse"
       gradientTransform="matrix(6.6817373,0,0,6.6817373,-32.291674,-29.611363)"
       x1="14.9966"
       y1="11.1885"
       x2="32.511002"
       y2="34.307499" />
    <radialGradient
       inkscape:collect="always"
       xlink:href="#linearGradient23419"
       id="radialGradient23425"
       cx="23.334524"
       cy="41.63604"
       fx="23.334524"
       fy="41.63604"
       r="22.627417"
       gradientTransform="matrix(5.6126602,0,0,1.4961823,-2.9687391,155.11245)"
       gradientUnits="userSpaceOnUse" />
    <linearGradient
       inkscape:collect="always"
       id="linearGradient23419">
      <stop
         style="stop-color:#000000;stop-opacity:1;"
         offset="0"
         id="stop23421" />
      <stop
         style="stop-color:#000000;stop-opacity:0;"
         offset="1"
         id="stop23423" />
    </linearGradient>
    <linearGradient
       inkscape:collect="always"
       xlink:href="#linearGradient4236"
       id="linearGradient999"
       gradientUnits="userSpaceOnUse"
       gradientTransform="matrix(7.0158252,0,0,7.0158252,-40.309758,-30.196034)"
       x1="21.125"
       y1="14.625"
       x2="29"
       y2="28" />
  </defs>
  <sodipodi:namedview
     id="base"
     pagecolor="#ffffff"
     bordercolor="#666666"
     borderopacity="0.25490196"
     inkscape:pageopacity="0.0"
     inkscape:pageshadow="2"
     inkscape:zoom="1"
     inkscape:cx="19.046921"
     inkscape:cy="173.43134"
     inkscape:current-layer="layer1"
     showgrid="false"
     inkscape:grid-bbox="true"
     inkscape:document-units="px"
     inkscape:window-width="1491"
     inkscape:window-height="804"
     inkscape:window-x="1632"
     inkscape:window-y="68"
     inkscape:showpageshadow="false"
     inkscape:document-rotation="0"
     inkscape:pagecheckerboard="true"
     inkscape:window-maximized="0" />
  <metadata
     id="metadata4">
    <rdf:RDF>
      <cc:Work
         rdf:about="">
        <dc:format>image/svg+xml</dc:format>
        <dc:type
           rdf:resource="http://purl.org/dc/dcmitype/StillImage" />
        <dc:title>Optical Media Icon</dc:title>
        <dc:creator>
          <cc:Agent>
            <dc:title>Jakub Steiner, Daniel S. Fowler</dc:title>
          </cc:Agent>
        </dc:creator>
        <dc:source>https://tekeye.uk/free_resources/tango_desktop_project/index</dc:source>
        <dc:subject>
          <rdf:Bag>
            <rdf:li>cdrom</rdf:li>
            <rdf:li>media</rdf:li>
            <rdf:li>removable</rdf:li>
            <rdf:li>cd</rdf:li>
            <rdf:li>audio</rdf:li>
            <rdf:li>dvd</rdf:li>
            <rdf:li>rom</rdf:li>
            <rdf:li>computer</rdf:li>
            <rdf:li>icon</rdf:li>
          </rdf:Bag>
        </dc:subject>
        <cc:license
           rdf:resource="http://creativecommons.org/publicdomain/zero/1.0/" />
        <dc:date> 2021-01-03</dc:date>
        <dc:rights>
          <cc:Agent>
            <dc:title>Public Domain</dc:title>
          </cc:Agent>
        </dc:rights>
        <dc:publisher>
          <cc:Agent>
            <dc:title>https://tekeye.uk/</dc:title>
          </cc:Agent>
        </dc:publisher>
        <dc:identifier>https://tekeye.uk/free_resources/tango_desktop_project/images/svg/devices/media-optical.svg</dc:identifier>
        <dc:relation>https://tekeye.uk/free_resources/tango_desktop_project/images/svg/devices/drive-optical.svg</dc:relation>
        <dc:language>en-GB</dc:language>
        <dc:coverage>computing</dc:coverage>
        <dc:description>An icon for optical media.</dc:description>
      </cc:Work>
      <cc:License
         rdf:about="http://creativecommons.org/publicdomain/zero/1.0/">
        <cc:permits
           rdf:resource="http://creativecommons.org/ns#Reproduction" />
        <cc:permits
           rdf:resource="http://creativecommons.org/ns#Distribution" />
        <cc:permits
           rdf:resource="http://creativecommons.org/ns#DerivativeWorks" />
      </cc:License>
    </rdf:RDF>
  </metadata>
  <g
     id="layer1"
     inkscape:label="Layer 1"
     inkscape:groupmode="layer">
    <g
       id="g1015">
      <ellipse
         style="color:#000000;display:inline;overflow:visible;visibility:visible;opacity:0.55;fill:url(#radialGradient23425);fill-opacity:1;fill-rule:evenodd;stroke:none;stroke-width:11.5914;stroke-linecap:butt;stroke-linejoin:miter;stroke-miterlimit:4;stroke-dasharray:none;stroke-dashoffset:0;stroke-opacity:1;marker:none;marker-start:none;marker-mid:none;marker-end:none"
         id="path23417"
         inkscape:r_cx="true"
         inkscape:r_cy="true"
         cx="128"
         cy="217.40753"
         rx="127"
         ry="33.85474" />
      <path
         inkscape:r_cy="true"
         inkscape:r_cx="true"
         id="path3040"
         d="m 128.07004,7.80633 c -64.812869,0 -116.930399,52.11759 -116.930399,116.93046 0,64.81286 52.11753,116.9304 116.930399,116.9304 64.81287,0 116.93046,-52.11754 116.93046,-116.9304 0,-64.81287 -52.11759,-116.93046 -116.93046,-116.93046 z m 0,144.99376 c -15.36797,0 -28.0633,-12.69533 -28.0633,-28.0633 0,-15.36803 12.69533,-28.0633 28.0633,-28.0633 15.36802,0 28.0633,12.69527 28.0633,28.0633 0,15.36797 -12.69528,28.0633 -28.0633,28.0633 z"
         style="fill:url(#linearGradient23400);fill-rule:nonzero;stroke:none;stroke-width:5.61266;stroke-miterlimit:4" />
      <path
         inkscape:r_cy="true"
         inkscape:r_cx="true"
         id="path3049"
         d="m 128.07004,7.80633 c -64.812869,0 -116.930399,52.11759 -116.930399,116.93046 0,64.81286 52.11753,116.9304 116.930399,116.9304 64.81287,0 116.93046,-52.11754 116.93046,-116.9304 0,-64.81287 -52.11759,-116.93046 -116.93046,-116.93046 z m 0,144.99376 c -15.36797,0 -28.0633,-12.69533 -28.0633,-28.0633 0,-15.36803 12.69533,-28.0633 28.0633,-28.0633 15.36802,0 28.0633,12.69527 28.0633,28.0633 0,15.36797 -12.69528,28.0633 -28.0633,28.0633 z"
         style="fill:url(#linearGradient23397);fill-rule:nonzero;stroke:#808080;stroke-width:5.61266;stroke-miterlimit:4;stroke-opacity:1" />
      <path
         inkscape:r_cy="true"
         inkscape:r_cx="true"
         id="path3051"
         d="m 128.07004,68.02552 c -31.669879,0 -56.711219,25.77788 -56.711219,56.71127 0,31.66994 25.77783,56.71121 56.711219,56.71121 31.66994,0 56.71127,-25.77782 56.71127,-56.71121 0,-31.66994 -25.77788,-56.71127 -56.71127,-56.71127 z m 0,87.64466 c -16.93974,0 -30.933389,-13.99365 -30.933389,-30.93339 0,-16.93974 13.993649,-30.93339 30.933389,-30.93339 16.93974,0 30.93339,13.99365 30.93339,30.93339 0,16.93974 -13.99365,30.93339 -30.93339,30.93339 z"
         style="opacity:0.11;fill-rule:nonzero;stroke:none;stroke-width:5.61266;stroke-miterlimit:4" />
      <path
         inkscape:r_cy="true"
         inkscape:r_cx="true"
         style="fill:url(#linearGradient23390);fill-opacity:1;fill-rule:nonzero;stroke:none;stroke-width:5.61266;stroke-miterlimit:4;stroke-opacity:1"
         d="m 159.36124,16.23974 -20.1865,78.54728 c 6.31262,1.6811 11.36087,5.58723 14.79009,10.99267 l 69.55332,-42.3716 C 209.28866,40.22943 186.45097,23.17615 159.36124,16.23974 Z"
         id="path3916" />
      <path
         inkscape:r_cy="true"
         inkscape:r_cx="true"
         id="path4214"
         d="m 88.561511,230.06425 26.577349,-76.62123 c -6.15293,-2.1945 -10.86285,-6.50255 -13.83599,-12.17162 l -72.802149,36.50839 c 12.27522,24.27033 33.63319,43.14385 60.06079,52.28446 z"
         style="fill:url(#linearGradient999);fill-opacity:1;fill-rule:nonzero;stroke:none;stroke-width:5.61266;stroke-miterlimit:4;stroke-opacity:1" />
      <path
         inkscape:r_cy="true"
         inkscape:r_cx="true"
         style="opacity:0.546448;fill:none;fill-rule:nonzero;stroke:url(#linearGradient23387);stroke-width:5.61266;stroke-miterlimit:4;stroke-opacity:1"
         d="m 128.07004,13.61936 c -61.590809,0 -111.117369,49.52662 -111.117369,111.11737 0,61.59081 49.52656,111.11743 111.117369,111.11743 61.59075,0 111.11737,-49.52662 111.11737,-111.11743 0,-61.59075 -49.52662,-111.11737 -111.11737,-111.11737 z"
         id="path5264"
         sodipodi:nodetypes="cccccc" />
      <circle
         inkscape:r_cy="true"
         inkscape:r_cx="true"
         style="color:#000000;display:inline;overflow:visible;visibility:visible;opacity:0.672131;fill:none;fill-opacity:0.316384;fill-rule:nonzero;stroke:url(#linearGradient23353);stroke-width:5.2228;stroke-linecap:butt;stroke-linejoin:miter;stroke-miterlimit:4;stroke-dashoffset:0;stroke-opacity:1;marker:none;marker-start:none;marker-mid:none;marker-end:none"
         id="path6026"
         cx="128.34047"
         cy="124.8436"
         r="34.230469" />
      <path
         inkscape:r_cy="true"
         inkscape:r_cx="true"
         style="opacity:0.114286;fill:url(#radialGradient23383);fill-opacity:1;fill-rule:nonzero;stroke:none;stroke-width:5.61266;stroke-miterlimit:4;stroke-opacity:1"
         d="m 128.07004,7.80633 c -64.812869,0 -116.930399,52.11759 -116.930399,116.93046 0,64.81286 52.11753,116.9304 116.930399,116.9304 64.81287,0 116.93046,-52.11754 116.93046,-116.9304 0,-64.81287 -52.11759,-116.93046 -116.93046,-116.93046 z m 0,144.99376 c -15.36797,0 -28.0633,-12.69533 -28.0633,-28.0633 0,-15.36803 12.69533,-28.0633 28.0633,-28.0633 15.36802,0 28.0633,12.69527 28.0633,28.0633 0,15.36797 -12.69528,28.0633 -28.0633,28.0633 z"
         id="path3390" />
      <path
         inkscape:r_cy="true"
         inkscape:r_cx="true"
         id="path3404"
         d="m 128.07004,7.80633 c -64.812869,0 -116.930399,52.11759 -116.930399,116.93046 0,64.81286 52.11753,116.9304 116.930399,116.9304 64.81287,0 116.93046,-52.11754 116.93046,-116.9304 0,-64.81287 -52.11759,-116.93046 -116.93046,-116.93046 z m 0,144.99376 c -15.36797,0 -28.0633,-12.69533 -28.0633,-28.0633 0,-15.36803 12.69533,-28.0633 28.0633,-28.0633 15.36802,0 28.0633,12.69527 28.0633,28.0633 0,15.36797 -12.69528,28.0633 -28.0633,28.0633 z"
         style="opacity:0.0971428;fill:url(#radialGradient23380);fill-opacity:1;fill-rule:nonzero;stroke:none;stroke-width:5.61266;stroke-miterlimit:4;stroke-opacity:1" />
      <path
         inkscape:r_cy="true"
         inkscape:r_cx="true"
         style="opacity:0.714286;fill:url(#radialGradient23377);fill-opacity:1;fill-rule:nonzero;stroke:none;stroke-width:5.61266;stroke-miterlimit:4;stroke-opacity:1"
         d="m 128.07004,7.80633 c -64.812869,0 -116.930399,52.11759 -116.930399,116.93046 0,64.81286 52.11753,116.9304 116.930399,116.9304 64.81287,0 116.93046,-52.11754 116.93046,-116.9304 0,-64.81287 -52.11759,-116.93046 -116.93046,-116.93046 z m 0,144.99376 c -15.36797,0 -28.0633,-12.69533 -28.0633,-28.0633 0,-15.36803 12.69533,-28.0633 28.0633,-28.0633 15.36802,0 28.0633,12.69527 28.0633,28.0633 0,15.36797 -12.69528,28.0633 -28.0633,28.0633 z"
         id="path3419" />
      <path
         inkscape:r_cy="true"
         inkscape:r_cx="true"
         id="path3431"
         d="m 128.07004,7.80633 c -64.812869,0 -116.930399,52.11759 -116.930399,116.93046 0,64.81286 52.11753,116.9304 116.930399,116.9304 64.81287,0 116.93046,-52.11754 116.93046,-116.9304 0,-64.81287 -52.11759,-116.93046 -116.93046,-116.93046 z m 0,144.99376 c -15.36797,0 -28.0633,-12.69533 -28.0633,-28.0633 0,-15.36803 12.69533,-28.0633 28.0633,-28.0633 15.36802,0 28.0633,12.69527 28.0633,28.0633 0,15.36797 -12.69528,28.0633 -28.0633,28.0633 z"
         style="opacity:0.622857;fill:url(#radialGradient23374);fill-opacity:1;fill-rule:nonzero;stroke:none;stroke-width:5.61266;stroke-miterlimit:4;stroke-opacity:1" />
      <path
         inkscape:r_cy="true"
         inkscape:r_cx="true"
         style="opacity:0.371429;fill:url(#radialGradient23371);fill-opacity:1;fill-rule:nonzero;stroke:none;stroke-width:5.61266;stroke-miterlimit:4;stroke-opacity:1"
         d="m 128.07004,7.80633 c -64.812869,0 -116.930399,52.11759 -116.930399,116.93046 0,64.81286 52.11753,116.9304 116.930399,116.9304 64.81287,0 116.93046,-52.11754 116.93046,-116.9304 0,-64.81287 -52.11759,-116.93046 -116.93046,-116.93046 z m 0,144.99376 c -15.36797,0 -28.0633,-12.69533 -28.0633,-28.0633 0,-15.36803 12.69533,-28.0633 28.0633,-28.0633 15.36802,0 28.0633,12.69527 28.0633,28.0633 0,15.36797 -12.69528,28.0633 -28.0633,28.0633 z"
         id="path3441" />
      <path
         inkscape:r_cy="true"
         inkscape:r_cx="true"
         id="path3445"
         d="m 128.07004,7.80633 c -64.812869,0 -116.930399,52.11759 -116.930399,116.93046 0,64.81286 52.11753,116.9304 116.930399,116.9304 64.81287,0 116.93046,-52.11754 116.93046,-116.9304 0,-64.81287 -52.11759,-116.93046 -116.93046,-116.93046 z m 0,144.99376 c -15.36797,0 -28.0633,-12.69533 -28.0633,-28.0633 0,-15.36803 12.69533,-28.0633 28.0633,-28.0633 15.36802,0 28.0633,12.69527 28.0633,28.0633 0,15.36797 -12.69528,28.0633 -28.0633,28.0633 z"
         style="opacity:0.234286;fill:url(#radialGradient23368);fill-opacity:1;fill-rule:nonzero;stroke:none;stroke-width:5.61266;stroke-miterlimit:4;stroke-opacity:1" />
    </g>
  </g>
</svg>
