<?xml version="1.0" encoding="UTF-8" standalone="no"?>
<svg
   xmlns:dc="http://purl.org/dc/elements/1.1/"
   xmlns:cc="http://creativecommons.org/ns#"
   xmlns:rdf="http://www.w3.org/1999/02/22-rdf-syntax-ns#"
   xmlns:svg="http://www.w3.org/2000/svg"
   xmlns="http://www.w3.org/2000/svg"
   xmlns:xlink="http://www.w3.org/1999/xlink"
   xmlns:sodipodi="http://sodipodi.sourceforge.net/DTD/sodipodi-0.dtd"
   xmlns:inkscape="http://www.inkscape.org/namespaces/inkscape"
   width="256px"
   height="256px"
   id="svg53383"
   sodipodi:version="0.32"
   inkscape:version="1.0.1 (3bc2e813f5, 2020-09-07)"
   sodipodi:docname="application-x-executable.svg"
   inkscape:output_extension="org.inkscape.output.svg.inkscape"
   version="1.1"
   inkscape:export-filename="..\..\256x256\mimetypes\application-x-executable.png"
   inkscape:export-xdpi="96"
   inkscape:export-ydpi="96">
  <title
     id="title59">Executable Icon</title>
  <defs
     id="defs3">
    <linearGradient
       id="linearGradient2300">
      <stop
         id="stop2302"
         offset="0.0000000"
         style="stop-color:#000000;stop-opacity:0.32673267;" />
      <stop
         id="stop2304"
         offset="1"
         style="stop-color:#000000;stop-opacity:0;" />
    </linearGradient>
    <linearGradient
       id="aigrd1"
       gradientUnits="userSpaceOnUse"
       x1="99.7773"
       y1="15.4238"
       x2="153.0005"
       y2="248.6311">
      <stop
         offset="0"
         style="stop-color:#184375"
         id="stop53300" />
      <stop
         offset="1"
         style="stop-color:#C8BDDC"
         id="stop53302" />
    </linearGradient>
    <linearGradient
       inkscape:collect="always"
       xlink:href="#aigrd1"
       id="linearGradient53551"
       gradientUnits="userSpaceOnUse"
       x1="99.7773"
       y1="15.4238"
       x2="153.0005"
       y2="248.6311"
       gradientTransform="matrix(0.200685,0,0,0.200685,-0.585758,-1.050787)" />
    <radialGradient
       gradientUnits="userSpaceOnUse"
       r="11.689870"
       fy="72.568001"
       fx="14.287618"
       cy="68.872971"
       cx="14.287618"
       gradientTransform="matrix(1.399258,-2.234445e-7,8.196178e-8,0.513264,4.365074,4.839285)"
       id="radialGradient2308"
       xlink:href="#linearGradient2300"
       inkscape:collect="always" />
    <radialGradient
       gradientUnits="userSpaceOnUse"
       r="11.68987"
       fy="72.568001"
       fx="14.287618"
       cy="68.872971"
       cx="14.287618"
       gradientTransform="matrix(7.9986369,-7.6544412e-7,4.6852155e-7,1.7582661,13.364939,91.95326)"
       id="radialGradient2308-6"
       xlink:href="#linearGradient2300"
       inkscape:collect="always" />
  </defs>
  <sodipodi:namedview
     inkscape:showpageshadow="false"
     id="base"
     pagecolor="#ffffff"
     bordercolor="#666666"
     borderopacity="1.0"
     inkscape:pageopacity="0.0"
     inkscape:pageshadow="2"
     inkscape:zoom="1.4142136"
     inkscape:cx="96.810364"
     inkscape:cy="111.58696"
     inkscape:current-layer="layer1"
     showgrid="false"
     inkscape:grid-bbox="true"
     inkscape:document-units="px"
     inkscape:window-width="1481"
     inkscape:window-height="737"
     inkscape:window-x="414"
     inkscape:window-y="151"
     inkscape:document-rotation="0"
     inkscape:pagecheckerboard="true"
     inkscape:window-maximized="0" />
  <metadata
     id="metadata4">
    <rdf:RDF>
      <cc:Work
         rdf:about="">
        <dc:format>image/svg+xml</dc:format>
        <dc:type
           rdf:resource="http://purl.org/dc/dcmitype/StillImage" />
        <dc:title>Executable Icon</dc:title>
        <dc:creator>
          <cc:Agent>
            <dc:title>Jakub Steiner, Daniel S. Fowler</dc:title>
          </cc:Agent>
        </dc:creator>
        <dc:source>https://tekeye.uk/free_resources/tango_desktop_project/index</dc:source>
        <dc:subject>
          <rdf:Bag>
            <rdf:li>executable</rdf:li>
            <rdf:li>program</rdf:li>
            <rdf:li>binary</rdf:li>
            <rdf:li>bin</rdf:li>
            <rdf:li>script</rdf:li>
            <rdf:li>shell</rdf:li>
            <rdf:li>computer</rdf:li>
            <rdf:li>icon</rdf:li>
          </rdf:Bag>
        </dc:subject>
        <cc:license
           rdf:resource="http://creativecommons.org/publicdomain/zero/1.0/" />
        <dc:date> 2020-12-29</dc:date>
        <dc:rights>
          <cc:Agent>
            <dc:title>Public Domain</dc:title>
          </cc:Agent>
        </dc:rights>
        <dc:publisher>
          <cc:Agent>
            <dc:title>https://tekeye.uk/</dc:title>
          </cc:Agent>
        </dc:publisher>
        <dc:identifier>https://tekeye.uk/free_resources/tango_desktop_project/images/svg/mimetypes/application-x-executable.svg</dc:identifier>
        <dc:relation>https://tekeye.uk/free_resources/tango_desktop_project/images/svg/mimetypes/application-x-certificate.svg</dc:relation>
        <dc:language>en-GB</dc:language>
        <dc:coverage>computing</dc:coverage>
        <dc:description>Am icon for a program or executable resource.</dc:description>
      </cc:Work>
      <cc:License
         rdf:about="http://creativecommons.org/publicdomain/zero/1.0/">
        <cc:permits
           rdf:resource="http://creativecommons.org/ns#Reproduction" />
        <cc:permits
           rdf:resource="http://creativecommons.org/ns#Distribution" />
        <cc:permits
           rdf:resource="http://creativecommons.org/ns#DerivativeWorks" />
      </cc:License>
    </rdf:RDF>
  </metadata>
  <g
     id="layer1"
     inkscape:label="Layer 1"
     inkscape:groupmode="layer">
    <g
       id="g57"
       transform="matrix(1.0596739,0,0,1.0596738,-7.5471033,-1.1193476)">
      <g
         id="g30"
         transform="matrix(5.3716008,0,0,5.3715967,-2.8368372,-13.444145)">
        <path
           style="fill:url(#linearGradient53551);fill-rule:nonzero;stroke:#3f4561;stroke-width:1;stroke-linecap:round;stroke-linejoin:round;stroke-miterlimit:4;stroke-opacity:1"
           d="M 24.285801,43.196358 4.3751874,23.285744 24.285801,3.3751291 44.196415,23.285744 Z"
           id="path53304" />
        <path
           sodipodi:nodetypes="ccccccc"
           style="opacity:0.72;fill:#ffffff;fill-rule:nonzero;stroke:none;stroke-miterlimit:4"
           d="M 43.505062,23.285744 24.285801,4.0664819 5.0665401,23.285744 5.8476076,23.910676 24.45724,5.4825431 43.505256,23.285744 Z"
           id="path53359" />
        <path
           style="opacity:0.5;fill:#ffffff;fill-rule:nonzero;stroke:none;stroke-miterlimit:4"
           d="m 8.9257729,27.145172 0.7384498,-1.024184 c 0.6367493,0.268492 1.3006183,0.485069 1.9861833,0.644885 l -0.0058,1.576858 c 0.427728,0.08834 0.86301,0.156136 1.304105,0.204371 l 0.481774,-1.501889 c 0.344041,0.02848 0.691764,0.04417 1.043361,0.04417 0.351209,0 0.699124,-0.0155 1.043166,-0.04417 l 0.481775,1.501889 c 0.441288,-0.04823 0.876376,-0.116036 1.304104,-0.204371 l -0.006,-1.577051 c 0.685758,-0.159623 1.349433,-0.3762 1.986182,-0.644692 l 0.92248,1.279502 c 0.402351,-0.182094 0.794241,-0.382591 1.174895,-0.600522 l -0.492817,-1.498016 c 0.59723,-0.36225 1.161723,-0.773319 1.687471,-1.227972 l 1.272141,0.931779 c 0.325638,-0.296581 0.637329,-0.608272 0.933716,-0.93391 l -0.931585,-1.271947 c 0.454847,-0.525748 0.865916,-1.090047 1.228166,-1.687665 l 1.498015,0.493011 C 26.79347,21.2244 26.994161,20.832316 27.175867,20.43016 l -1.279308,-0.922287 c 0.268492,-0.636749 0.485068,-1.300618 0.645079,-1.986376 l 1.576663,0.0058 c 0.08834,-0.427727 0.156137,-0.86301 0.204178,-1.304298 l -1.501695,-0.481774 c 0.02886,-0.343848 0.04417,-0.691764 0.04417,-1.043167 0,-0.351403 -0.01569,-0.699125 -0.04417,-1.043361 l 1.501695,-0.481774 C 28.274632,12.73184 28.206442,12.296751 28.118495,11.86883 l -1.577051,0.006 C 26.381627,11.189076 26.165051,10.525208 25.896753,9.8886539 L 27.176061,8.9663652 C 26.994354,8.5640139 26.79347,8.1721237 26.575926,7.7912754 L 25.077717,8.2842867 C 24.715466,7.6868623 24.304398,7.1225635 23.849744,6.5970095 L 24.78133,5.3248686 C 24.502958,5.0189892 24.210252,4.7268638 23.905922,4.4467488 L 5.0669275,23.285938 6.0738693,24.29288 6.3725811,24.074174 c 0.5257484,0.454653 1.0900465,0.865722 1.6874698,1.227972 l -0.2419526,0.735157 1.1080622,1.108062 z"
           id="path53361" />
        <path
           style="opacity:0.5;fill:#ffffff;fill-rule:nonzero;stroke:none;stroke-miterlimit:4"
           d="m 28.448976,32.191116 c 0,-6.484682 4.233883,-11.979469 10.08724,-13.874023 l -2.226972,-2.227167 c -0.01685,0.007 -0.0339,0.01298 -0.05056,0.02015 L 36.077171,15.858244 34.665167,14.44624 c -0.463178,0.2189 -0.91667,0.45446 -1.359314,0.707648 l 0.694089,2.109193 c -0.841314,0.509669 -1.635748,1.08869 -2.375747,1.728732 l -1.79111,-1.311659 c -0.458721,0.41746 -0.897297,0.856036 -1.314564,1.314565 l 1.311465,1.790914 c -0.640041,0.740195 -1.218868,1.534628 -1.728731,2.375748 l -2.109387,-0.694089 c -0.306654,0.536403 -0.589093,1.088304 -0.844994,1.654732 l 1.801182,1.298293 c -0.377942,0.896329 -0.682852,1.831014 -0.907758,2.796501 l -2.219999,-0.0085 c -0.124172,0.602266 -0.219869,1.215188 -0.287476,1.836051 l 2.114423,0.678398 c -0.04029,0.484293 -0.06199,0.97401 -0.06199,1.46857 0,0.494753 0.0217,0.98447 0.06199,1.468763 l -2.114423,0.677816 c 0.06761,0.621251 0.163304,1.233979 0.28767,1.836245 l 2.219805,-0.0083 c 0.224906,0.965487 0.529816,1.900172 0.907758,2.796502 l -1.801182,1.298486 c 0.142382,0.31479 0.293869,0.624931 0.452136,0.930423 l 3.804023,-3.803636 c -0.61602,-1.614245 -0.95425,-3.365836 -0.95425,-5.196269 z"
           id="path53363" />
        <path
           sodipodi:nodetypes="ccccccc"
           style="opacity:0.35;fill:#000000;fill-rule:nonzero;stroke:none;stroke-miterlimit:4"
           d="M 5.2050478,23.424252 24.285801,42.505005 43.505062,23.285744 42.789963,22.603525 24.310314,41.041677 5.2050478,23.424059 Z"
           id="path53365" />
        <path
           transform="matrix(1.18638,0,0,1.18638,-4.539687,-7.794678)"
           id="path1538"
           style="color:#000000;display:inline;overflow:visible;visibility:visible;fill:url(#radialGradient2308);fill-opacity:1;fill-rule:evenodd;stroke:none;stroke-width:0.5;stroke-linecap:round;stroke-linejoin:miter;stroke-miterlimit:4;stroke-dashoffset:0;stroke-opacity:1;marker:none;marker-start:none;marker-mid:none;marker-end:none"
           cx="24.357143"
           cy="38.714287"
           rx="19.928572"
           ry="9.837245"
           d="" />
      </g>
      <ellipse
         id="path1538-3"
         style="color:#000000;display:inline;overflow:visible;visibility:visible;fill:url(#radialGradient2308-6);fill-opacity:1;fill-rule:evenodd;stroke:none;stroke-width:2.2126;stroke-linecap:round;stroke-linejoin:miter;stroke-miterlimit:4;stroke-dashoffset:0;stroke-opacity:1;marker:none;marker-start:none;marker-mid:none;marker-end:none"
         cx="127.64644"
         cy="207.99739"
         rx="113.91853"
         ry="33.69902" />
    </g>
  </g>
</svg>
