<?xml version="1.0" encoding="UTF-8" standalone="no"?>
<svg
   xmlns:dc="http://purl.org/dc/elements/1.1/"
   xmlns:cc="http://creativecommons.org/ns#"
   xmlns:rdf="http://www.w3.org/1999/02/22-rdf-syntax-ns#"
   xmlns:svg="http://www.w3.org/2000/svg"
   xmlns="http://www.w3.org/2000/svg"
   xmlns:xlink="http://www.w3.org/1999/xlink"
   xmlns:sodipodi="http://sodipodi.sourceforge.net/DTD/sodipodi-0.dtd"
   xmlns:inkscape="http://www.inkscape.org/namespaces/inkscape"
   sodipodi:docname="application-certificate.svg"
   inkscape:version="1.0.1 (3bc2e813f5, 2020-09-07)"
   sodipodi:version="0.32"
   id="svg5105"
   xml:space="preserve"
   viewBox="0 0 48 48"
   height="256px"
   width="256px"
   inkscape:output_extension="org.inkscape.output.svg.inkscape"
   version="1.1"
   inkscape:export-filename="..\..\256x256\mimetypes\application-certificate.png"
   inkscape:export-xdpi="96"
   inkscape:export-ydpi="96"><title
   id="title65">Certificate Icon</title><metadata
   id="metadata5189">
  <rdf:RDF>
    <cc:Work
   rdf:about="">
      <dc:format>image/svg+xml</dc:format>


      <dc:type
   rdf:resource="http://purl.org/dc/dcmitype/StillImage" />


    <dc:title>Certificate Icon</dc:title><dc:creator><cc:Agent><dc:title>Jakub Steiner, Daniel S. Fowler</dc:title></cc:Agent></dc:creator><dc:subject><rdf:Bag><rdf:li>certificate</rdf:li><rdf:li>stamp</rdf:li><rdf:li>seal</rdf:li><rdf:li>computer</rdf:li><rdf:li>icon</rdf:li></rdf:Bag></dc:subject><cc:license
   rdf:resource="http://creativecommons.org/publicdomain/zero/1.0/" /><dc:date> 2020-12-29</dc:date><dc:rights><cc:Agent><dc:title>Public Domain</dc:title></cc:Agent></dc:rights><dc:publisher><cc:Agent><dc:title>https://tekeye.uk/</dc:title></cc:Agent></dc:publisher><dc:identifier>https://tekeye.uk/free_resources/tango_desktop_project/images/svg/mimetypes/application-certificate.svg</dc:identifier><dc:source>https://tekeye.uk/free_resources/tango_desktop_project/index</dc:source><dc:relation>https://tekeye.uk/free_resources/tango_desktop_project/images/svg/mimetypes/application-x-executable.svg</dc:relation><dc:language>en-GB</dc:language><dc:coverage>computing</dc:coverage><dc:description>A certificate or seal icon.</dc:description></cc:Work>


  <cc:License
   rdf:about="http://creativecommons.org/publicdomain/zero/1.0/"><cc:permits
     rdf:resource="http://creativecommons.org/ns#Reproduction" /><cc:permits
     rdf:resource="http://creativecommons.org/ns#Distribution" /><cc:permits
     rdf:resource="http://creativecommons.org/ns#DerivativeWorks" /></cc:License></rdf:RDF>


</metadata>


<defs
   id="defs5187"><linearGradient
     id="linearGradient6684">
  <stop
   id="stop6686"
   offset="0.0000000"
   style="stop-color:#d5dbff;stop-opacity:1.0000000;" />
  <stop
   id="stop6688"
   offset="1"
   style="stop-color:#6579ff;stop-opacity:0;" />
</linearGradient><linearGradient
     id="linearGradient6665">
  <stop
   style="stop-color:#000000;stop-opacity:1.0000000;"
   offset="0.0000000"
   id="stop6667" />
  <stop
   style="stop-color:#000000;stop-opacity:0.0000000;"
   offset="1.0000000"
   id="stop6669" />
</linearGradient><linearGradient
     id="linearGradient6625">
  <stop
   id="stop6627"
   offset="0.0000000"
   style="stop-color:#1d2349;stop-opacity:1.0000000;" />
  <stop
   style="stop-color:#4c5279;stop-opacity:1.0000000;"
   offset="0.35315102"
   id="stop6637" />
  <stop
   style="stop-color:#b3bdff;stop-opacity:1.0000000;"
   offset="0.46551725"
   id="stop6633" />
  <stop
   id="stop6635"
   offset="0.64982164"
   style="stop-color:#727cbe;stop-opacity:1.0000000;" />
  <stop
   id="stop6629"
   offset="1.0000000"
   style="stop-color:#323c7e;stop-opacity:1.0000000;" />
</linearGradient><linearGradient
     id="linearGradient6617">
  <stop
   id="stop6619"
   offset="0.0000000"
   style="stop-color:#ffffff;stop-opacity:0.24742268;" />
  <stop
   id="stop6621"
   offset="1"
   style="stop-color:#ffffff;stop-opacity:0;" />
</linearGradient><linearGradient
     id="linearGradient6604">
  <stop
   id="stop6606"
   offset="0.0000000"
   style="stop-color:#ffa196;stop-opacity:1.0000000;" />
  <stop
   id="stop6608"
   offset="1"
   style="stop-color:#ff1f06;stop-opacity:0;" />
</linearGradient><radialGradient
     gradientUnits="userSpaceOnUse"
     fy="20.971201"
     fx="28.789101"
     r="13.280700"
     cy="20.971201"
     cx="28.789101"
     id="aigrd1">
				<stop
   id="stop5115"
   style="stop-color:#E41E08"
   offset="0" />



				<stop
   id="stop5117"
   style="stop-color:#901505"
   offset="1" />



			</radialGradient><radialGradient
     gradientUnits="userSpaceOnUse"
     fy="13.544400"
     fx="19.292000"
     r="14.694400"
     cy="13.544400"
     cx="19.292000"
     id="aigrd2">
				<stop
   id="stop5122"
   style="stop-color:#E41E08"
   offset="0" />



				<stop
   id="stop5124"
   style="stop-color:#901505"
   offset="1" />



			</radialGradient><radialGradient
     gradientTransform="matrix(1.310386,0,0,1.310386,-8.642682,-4.375977)"
     r="13.2807"
     fy="20.9712"
     fx="28.7891"
     cy="20.9712"
     cx="28.7891"
     gradientUnits="userSpaceOnUse"
     id="radialGradient5284"
     xlink:href="#aigrd1"
     inkscape:collect="always" /><linearGradient
     gradientUnits="userSpaceOnUse"
     y2="49.895073"
     x2="43.140980"
     y1="5.9244628"
     x1="15.338736"
     gradientTransform="matrix(0.975728,0,0,0.931033,-0.132002,1.978392)"
     id="linearGradient6610"
     xlink:href="#linearGradient6604"
     inkscape:collect="always" /><linearGradient
     gradientUnits="userSpaceOnUse"
     y2="22.783224"
     x2="29.957399"
     y1="9.4436626"
     x1="18.570419"
     gradientTransform="matrix(1.02867,0,0,0.972129,-1.28033,1.18934)"
     id="linearGradient6623"
     xlink:href="#linearGradient6617"
     inkscape:collect="always" /><linearGradient
     gradientUnits="userSpaceOnUse"
     y2="35.017860"
     x2="38.250904"
     y1="22.886259"
     x1="38.506161"
     gradientTransform="matrix(0.843938,0,0,1.184922,-1.28033,1.68934)"
     id="linearGradient6631"
     xlink:href="#linearGradient6625"
     inkscape:collect="always" /><radialGradient
     gradientUnits="userSpaceOnUse"
     r="33.156136"
     fy="19.818913"
     fx="24.452202"
     cy="19.818913"
     cx="24.452202"
     gradientTransform="matrix(1.024478,0,0,0.976107,0.939339,-0.530329)"
     id="radialGradient6663"
     xlink:href="#linearGradient6665"
     inkscape:collect="always" /><radialGradient
     r="33.156136"
     fy="19.818913"
     fx="24.452202"
     cy="19.818913"
     cx="24.452202"
     gradientTransform="matrix(1.024478,0,0,0.976107,1.646447,-0.353552)"
     gradientUnits="userSpaceOnUse"
     id="radialGradient6675"
     xlink:href="#linearGradient6665"
     inkscape:collect="always" /><radialGradient
     r="14.6944"
     fy="20.479359"
     fx="26.887432"
     cy="20.479359"
     cx="26.887432"
     gradientTransform="matrix(1.135551,0,0,1.135551,-4.540325,-2.077433)"
     gradientUnits="userSpaceOnUse"
     id="radialGradient6678"
     xlink:href="#aigrd2"
     inkscape:collect="always" /><linearGradient
     gradientUnits="userSpaceOnUse"
     y2="27.403761"
     x2="36.499001"
     y1="35.458244"
     x1="37.502811"
     gradientTransform="scale(0.843938,1.184922)"
     id="linearGradient6690"
     xlink:href="#linearGradient6684"
     inkscape:collect="always" /></defs>


<sodipodi:namedview
   inkscape:current-layer="svg5105"
   inkscape:window-y="30"
   inkscape:window-x="203"
   inkscape:cy="76.960556"
   inkscape:cx="66.333443"
   inkscape:zoom="1.4142136"
   id="base"
   pagecolor="#ffffff"
   bordercolor="#666666"
   borderopacity="0.16470588"
   inkscape:pageopacity="0.0"
   inkscape:pageshadow="2"
   inkscape:window-width="1564"
   inkscape:window-height="818"
   inkscape:showpageshadow="false"
   showgrid="false"
   inkscape:document-rotation="0"
   inkscape:pagecheckerboard="true"
   inkscape:window-maximized="0" />



	




























	

<g
   id="g63"
   transform="matrix(1.0468621,0,0,1.0468611,-1.2701094,-1.1897273)"><path
     style="color:#000000;display:inline;overflow:visible;visibility:visible;opacity:0.480447;fill:url(#radialGradient6675);fill-opacity:1;fill-rule:nonzero;stroke:none;stroke-width:1;stroke-linecap:round;stroke-linejoin:round;stroke-miterlimit:4;stroke-dashoffset:0;stroke-opacity:1;marker:none;marker-start:none;marker-mid:none;marker-end:none"
     d="m 25.38911,19.305038 c 0,0 -5.904865,8.175967 -5.904865,11.923286 0,3.747318 6.813306,1.703326 9.538628,4.428649 2.725322,2.725322 -6.359086,9.765738 -6.359086,9.765738 l 9.084408,-2.498212 3.633764,3.860873 c 0,-4.655759 5.337089,-8.403077 2.611767,-11.241954 -2.838878,-2.838878 -10.90129,-2.498213 -11.35551,-6.245531 -0.454221,-3.747318 -1.135551,-9.879294 -1.135551,-9.879294 z"
     id="path6671" /><path
     style="opacity:0.480447;fill:url(#radialGradient6663);fill-opacity:1;fill-rule:nonzero;stroke:none;stroke-linecap:round;stroke-linejoin:round;stroke-miterlimit:4;stroke-opacity:1"
     d="m 36.91616,9.3946518 c 1.321528,3.0573762 3.643133,2.9018182 3.700549,6.9825152 0.03274,2.275762 1.832456,3.470743 1.832456,5.795517 0,2.324773 -4.015015,3.473472 -5.382529,4.840984 -1.367515,1.367516 0.107885,4.874427 -3.60203,5.904959 -3.674662,1.02074 -5.470058,-0.410252 -7.794832,-0.410252 -2.324776,0 -7.887818,4.482688 -9.939091,2.431415 -2.051272,-2.051271 -2.095036,-6.533959 -3.872804,-8.311727 -1.9145211,-1.914521 -4.9394355,-4.5894 -4.9394355,-8.008186 0,-3.418785 1.9742054,-5.223586 4.8026845,-8.401985 2.918275,-3.2793047 3.008531,-8.2050874 6.427317,-8.2050874 3.418785,0 4.729182,0.9378099 7.638964,0.864272 4.638337,-0.1172232 5.20674,-2.32332197 8.618072,-0.5935 3.007702,1.5251494 1.476157,4.7176933 2.510679,7.1110752 z"
     id="path6639"
     sodipodi:nodetypes="csssssssssssss" /><path
     id="path5112"
     d="m 23.62134,18.067599 c 0,0 -5.904865,8.175967 -5.904865,11.923286 0,3.747318 6.813306,1.703326 9.538628,4.428649 2.725322,2.725322 -6.359086,9.765738 -6.359086,9.765738 l 9.084408,-2.498212 3.633764,3.860873 c 0,-4.655759 5.337089,-8.403077 2.611767,-11.241954 -2.838878,-2.838878 -10.90129,-2.498213 -11.35551,-6.245531 -0.454221,-3.747318 -1.135551,-9.879294 -1.135551,-9.879294 z"
     style="fill:url(#linearGradient6631);fill-opacity:1;fill-rule:nonzero;stroke:#1f254f;stroke-width:1;stroke-miterlimit:6.6;stroke-opacity:1" /><path
     sodipodi:nodetypes="cscccsss"
     style="fill:none;fill-opacity:1;fill-rule:nonzero;stroke:url(#linearGradient6690);stroke-width:0.721125;stroke-miterlimit:6.6;stroke-opacity:1"
     d="m 20.803213,31.602421 c 4.552,0.448384 7.429014,1.235525 7.806622,3.989107 0.330114,2.407239 -4.232143,6.732959 -4.232143,6.732959 l 5.843888,-1.624746 2.84137,2.96095 c 0.662912,-3.71094 4.364808,-6.222004 2.678906,-8.504604 -2.114688,-2.863148 -8.966049,-2.243467 -9.293599,-4.945752 -0.32755,-2.702286 -8.334061,1.124615 -5.645044,1.392086 z"
     id="path6680" /><path
     sodipodi:nodetypes="csssssssssssss"
     id="path5119"
     d="m 34.935485,9.2468088 c 1.266321,2.9296542 3.490941,2.7805952 3.545959,6.6908212 0.03138,2.180692 1.755905,3.325753 1.755905,5.553409 0,2.227656 -3.847288,3.328368 -5.157674,4.638753 -1.310387,1.310388 0.103378,4.670798 -3.451556,5.658279 -3.521153,0.978099 -5.241546,-0.393114 -7.469203,-0.393114 -2.227658,0 -7.558305,4.295424 -9.523886,2.329843 -1.96558,-1.965579 -2.007516,-6.261003 -3.711018,-7.964505 -1.8345421,-1.834542 -4.7330913,-4.397678 -4.7330913,-7.673644 0,-3.275966 1.8917331,-5.005371 4.6020533,-8.050993 2.796364,-3.1423108 2.88285,-7.8623191 6.158816,-7.8623191 3.275966,0 4.531621,0.8986329 7.319847,0.828167 4.444571,-0.1123262 4.989229,-2.22626527 8.258052,-0.5687065 2.882056,1.4614363 1.414491,4.5206119 2.405796,6.8140094 z"
     style="fill:url(#radialGradient5284);fill-rule:nonzero;stroke:#4c0901;stroke-linecap:round;stroke-linejoin:round;stroke-miterlimit:4;stroke-opacity:1" /><path
     id="path5126"
     d="m 34.97685,17.567599 c 0,6.245531 -5.10998,11.35551 -11.35551,11.35551 -6.245531,0 -11.35551,-5.109979 -11.35551,-11.35551 0,-6.24553 5.109979,-11.3555099 11.35551,-11.3555099 6.24553,0 11.35551,5.1099799 11.35551,11.3555099 z"
     style="fill:url(#radialGradient6678);fill-rule:nonzero;stroke:none;stroke-miterlimit:4" /><path
     style="fill:none;fill-rule:nonzero;stroke:url(#linearGradient6610);stroke-linecap:round;stroke-linejoin:round;stroke-miterlimit:4;stroke-opacity:1"
     d="m 33.888971,10.030124 c 1.153261,2.668087 3.179261,2.532336 3.229367,6.093447 0.02857,1.985994 1.599132,3.028821 1.599132,5.057586 0,2.028765 -3.503791,3.031202 -4.697182,4.224592 -1.193393,1.193394 0.09415,4.253777 -3.143392,5.153093 -3.206775,0.890771 -4.773567,-0.358015 -6.802333,-0.358015 -2.028766,0 -6.883479,3.911917 -8.673568,2.121828 -1.790087,-1.790087 -1.828279,-5.702004 -3.379688,-7.253413 -1.670749,-1.670749 -4.3105081,-4.005041 -4.3105081,-6.98852 0,-2.983479 1.7228345,-4.558479 4.1911691,-7.332179 2.546698,-2.8617569 2.625462,-7.1603502 5.608941,-7.1603502 2.983479,0 4.127026,0.8184006 6.666312,0.754226 4.047747,-0.1022974 4.543777,-2.0274984 7.52075,-0.5179309 2.624739,1.3309554 1.288202,4.1169996 2.191,6.2056361 z"
     id="path6600"
     sodipodi:nodetypes="csssssssssssss" /><path
     id="path6612"
     d="m 23.66325,7.0524597 c -5.867816,0 -10.646262,4.7422323 -10.646262,10.6100503 0,3.670993 1.983705,6.780628 4.816166,8.690826 C 25.073625,22.456374 23.786958,15.548148 33.44043,13.606789 31.841424,9.7576868 28.088842,7.0524597 23.66325,7.0524597 Z"
     style="color:#000000;display:inline;overflow:visible;visibility:visible;opacity:1;fill:url(#linearGradient6623);fill-opacity:1;fill-rule:nonzero;stroke:none;stroke-width:1;stroke-linecap:round;stroke-linejoin:round;stroke-miterlimit:4;stroke-dashoffset:0;stroke-opacity:1;marker:none;marker-start:none;marker-mid:none;marker-end:none" /></g>
</svg>
