<?xml version="1.0" encoding="UTF-8" standalone="no"?>
<svg
   xmlns:dc="http://purl.org/dc/elements/1.1/"
   xmlns:cc="http://creativecommons.org/ns#"
   xmlns:rdf="http://www.w3.org/1999/02/22-rdf-syntax-ns#"
   xmlns:svg="http://www.w3.org/2000/svg"
   xmlns="http://www.w3.org/2000/svg"
   xmlns:xlink="http://www.w3.org/1999/xlink"
   xmlns:sodipodi="http://sodipodi.sourceforge.net/DTD/sodipodi-0.dtd"
   xmlns:inkscape="http://www.inkscape.org/namespaces/inkscape"
   width="256px"
   height="256px"
   xml:space="preserve"
   id="svg16168"
   sodipodi:version="0.32"
   inkscape:version="1.0.1 (3bc2e813f5, 2020-09-07)"
   sodipodi:docname="image-x-generic.svg"
   inkscape:output_extension="org.inkscape.output.svg.inkscape"
   version="1.1"
   inkscape:export-filename="..\..\256x256\mimetypes\image-x-generic.png"
   inkscape:export-xdpi="96"
   inkscape:export-ydpi="96"><title
   id="title109">Generic Image Icon</title><metadata
   id="metadata16236">
  <rdf:RDF>
    <cc:Work
   rdf:about="">
      <dc:format>image/svg+xml</dc:format>



      <dc:type
   rdf:resource="http://purl.org/dc/dcmitype/StillImage" />



    <dc:title>Generic Image Icon</dc:title>
<dc:creator>
  <cc:Agent>
    <dc:title>Jakub Steiner, Daniel S. Fowler</dc:title>
  </cc:Agent>
</dc:creator>
<dc:subject>
  <rdf:Bag><rdf:li>image</rdf:li><rdf:li>picture</rdf:li><rdf:li>snapshot</rdf:li><rdf:li>photo</rdf:li><rdf:li>computer</rdf:li><rdf:li>icon</rdf:li></rdf:Bag>
</dc:subject>
<cc:license
   rdf:resource="http://creativecommons.org/publicdomain/zero/1.0/" />
<dc:date> 2020-12-29</dc:date><dc:rights><cc:Agent><dc:title>Public Domain</dc:title></cc:Agent></dc:rights><dc:publisher><cc:Agent><dc:title>https://tekeye.uk/</dc:title></cc:Agent></dc:publisher><dc:identifier>https://tekeye.uk/free_resources/tango_desktop_project/images/svg/mimetypes/image-x-generic.svg</dc:identifier><dc:source>https://tekeye.uk/free_resources/tango_desktop_project/index</dc:source><dc:relation>https://tekeye.uk/free_resources/tango_desktop_project/images/svg/mimetypes/application-x-executable.svg</dc:relation><dc:language>en-GB</dc:language><dc:coverage>computing</dc:coverage><dc:description>An image icon.</dc:description></cc:Work>



  
<cc:License
   rdf:about="http://creativecommons.org/publicdomain/zero/1.0/"><cc:permits
     rdf:resource="http://creativecommons.org/ns#Reproduction" /><cc:permits
     rdf:resource="http://creativecommons.org/ns#Distribution" /><cc:permits
     rdf:resource="http://creativecommons.org/ns#DerivativeWorks" /></cc:License></rdf:RDF>



</metadata>



<defs
   id="defs16234"><radialGradient
     inkscape:collect="always"
     xlink:href="#linearGradient5060"
     id="radialGradient6719"
     gradientUnits="userSpaceOnUse"
     gradientTransform="matrix(-2.774389,0,0,1.969706,112.7623,-872.8854)"
     cx="605.71429"
     cy="486.64789"
     fx="605.71429"
     fy="486.64789"
     r="117.14286" /><linearGradient
     inkscape:collect="always"
     id="linearGradient5060"><stop
       style="stop-color:black;stop-opacity:1;"
       offset="0"
       id="stop5062" /><stop
       style="stop-color:black;stop-opacity:0;"
       offset="1"
       id="stop5064" /></linearGradient><radialGradient
     inkscape:collect="always"
     xlink:href="#linearGradient5060"
     id="radialGradient6717"
     gradientUnits="userSpaceOnUse"
     gradientTransform="matrix(2.774389,0,0,1.969706,-1891.633,-872.8854)"
     cx="605.71429"
     cy="486.64789"
     fx="605.71429"
     fy="486.64789"
     r="117.14286" /><linearGradient
     id="linearGradient5048"><stop
       style="stop-color:black;stop-opacity:0;"
       offset="0"
       id="stop5050" /><stop
       id="stop5056"
       offset="0.5"
       style="stop-color:black;stop-opacity:1;" /><stop
       style="stop-color:black;stop-opacity:0;"
       offset="1"
       id="stop5052" /></linearGradient><linearGradient
     inkscape:collect="always"
     xlink:href="#linearGradient5048"
     id="linearGradient6715"
     gradientUnits="userSpaceOnUse"
     gradientTransform="matrix(2.774389,0,0,1.969706,-1892.179,-872.8854)"
     x1="302.85715"
     y1="366.64789"
     x2="302.85715"
     y2="609.50507" /><linearGradient
     id="linearGradient8171"><stop
       style="stop-color:#bbbdba;stop-opacity:1;"
       offset="0"
       id="stop8173" /><stop
       style="stop-color:#70746e;stop-opacity:1;"
       offset="1"
       id="stop8175" /></linearGradient><linearGradient
     inkscape:collect="always"
     id="linearGradient8155"><stop
       style="stop-color:#ffffff;stop-opacity:1;"
       offset="0"
       id="stop8157" /><stop
       style="stop-color:#ffffff;stop-opacity:0;"
       offset="1"
       id="stop8159" /></linearGradient><linearGradient
     id="linearGradient2224"><stop
       style="stop-color:#7c7c7c;stop-opacity:1;"
       offset="0"
       id="stop2226" /><stop
       style="stop-color:#b8b8b8;stop-opacity:1;"
       offset="1"
       id="stop2228" /></linearGradient><linearGradient
     inkscape:collect="always"
     id="linearGradient2251"><stop
       style="stop-color:#ffffff;stop-opacity:1;"
       offset="0"
       id="stop2253" /><stop
       style="stop-color:#ffffff;stop-opacity:0;"
       offset="1"
       id="stop2255" /></linearGradient><linearGradient
     id="linearGradient7648"
     gradientUnits="userSpaceOnUse"
     x1="21.9326"
     y1="24.6274"
     x2="21.9326"
     y2="7.1091"
     style="stroke-dasharray:none;stroke-miterlimit:4.0000000;stroke-width:1.2166667">
			<stop
   offset="0"
   style="stop-color:#8595bc;stop-opacity:1;"
   id="stop7650" />




			<stop
   offset="1"
   style="stop-color:#041a3b;stop-opacity:1;"
   id="stop7652" />




		</linearGradient><linearGradient
     style="stroke-dasharray:none;stroke-miterlimit:4.0000000;stroke-width:1.2166667"
     y2="36.0328"
     x2="31.0813"
     y1="3.7319"
     x1="12.4873"
     gradientUnits="userSpaceOnUse"
     id="aigrd1">
			<stop
   id="stop16177"
   style="stop-color:#D2D2D2;stroke-dasharray:none;stroke-miterlimit:4.0000000;stroke-width:1.2166667"
   offset="0" />




			<stop
   id="stop16179"
   style="stop-color:#EDEDED;stroke-dasharray:none;stroke-miterlimit:4.0000000;stroke-width:1.2166667"
   offset="1" />




		</linearGradient><linearGradient
     style="stroke-dasharray:none;stroke-miterlimit:4.0000000;stroke-width:1.2166667"
     y2="7.1091"
     x2="21.9326"
     y1="24.6274"
     x1="21.9326"
     gradientUnits="userSpaceOnUse"
     id="aigrd3">
			<stop
   id="stop16199"
   style="stop-color:#D0D6E5;stroke-dasharray:none;stroke-miterlimit:4.0000000;stroke-width:1.2166667"
   offset="0" />




			<stop
   id="stop16201"
   style="stop-color:#093A80;stroke-dasharray:none;stroke-miterlimit:4.0000000;stroke-width:1.2166667"
   offset="1" />




		</linearGradient><linearGradient
     inkscape:collect="always"
     xlink:href="#linearGradient7648"
     id="linearGradient7671"
     gradientUnits="userSpaceOnUse"
     gradientTransform="matrix(1.098989,0,0,-0.797757,-1.953865,37.324)"
     x1="21.9326"
     y1="24.627399"
     x2="21.9326"
     y2="7.1090999" /><linearGradient
     inkscape:collect="always"
     xlink:href="#aigrd3"
     id="linearGradient7673"
     gradientUnits="userSpaceOnUse"
     gradientTransform="matrix(1.098989,0,0,1.106697,-1.953865,-4.922453)"
     x1="21.9326"
     y1="24.6274"
     x2="21.9326"
     y2="7.1091" /><linearGradient
     inkscape:collect="always"
     xlink:href="#aigrd1"
     id="linearGradient8148"
     gradientUnits="userSpaceOnUse"
     gradientTransform="matrix(1.434003,0,0,0.990087,52.32167,2.838918)"
     x1="12.4873"
     y1="3.7319"
     x2="31.0813"
     y2="36.0328" /><radialGradient
     inkscape:collect="always"
     xlink:href="#linearGradient8155"
     id="radialGradient8161"
     cx="12.700491"
     cy="10.404876"
     fx="12.700491"
     fy="10.404876"
     r="19.96875"
     gradientTransform="matrix(1.710531,0,0,1.124849,-11.56833,1.802582)"
     gradientUnits="userSpaceOnUse" /><linearGradient
     inkscape:collect="always"
     xlink:href="#linearGradient2251"
     id="linearGradient8166"
     gradientUnits="userSpaceOnUse"
     gradientTransform="translate(5.14757,-3.409792)"
     x1="33.396004"
     y1="36.921333"
     x2="34.170048"
     y2="38.070381" /><linearGradient
     inkscape:collect="always"
     xlink:href="#linearGradient2224"
     id="linearGradient8169"
     gradientUnits="userSpaceOnUse"
     gradientTransform="translate(5.14757,-3.034792)"
     x1="35.996582"
     y1="40.458221"
     x2="33.664921"
     y2="37.770721" /><linearGradient
     inkscape:collect="always"
     xlink:href="#linearGradient8171"
     id="linearGradient8177"
     x1="42.1875"
     y1="31"
     x2="45"
     y2="39.984692"
     gradientUnits="userSpaceOnUse" /></defs>



<sodipodi:namedview
   inkscape:window-height="818"
   inkscape:window-width="1657"
   inkscape:pageshadow="2"
   inkscape:pageopacity="0.0"
   borderopacity="0.23137255"
   bordercolor="#666666"
   pagecolor="#ffffff"
   id="base"
   inkscape:zoom="2"
   inkscape:cx="49.378608"
   inkscape:cy="113.68626"
   inkscape:window-x="0"
   inkscape:window-y="30"
   inkscape:current-layer="svg16168"
   showgrid="false"
   inkscape:showpageshadow="false"
   inkscape:document-rotation="0"
   inkscape:pagecheckerboard="true"
   inkscape:window-maximized="0" />




	
	




















































<g
   id="g107"
   transform="matrix(5.7029726,0,0,5.7029704,-3.5379124,-10.959905)"><g
     style="display:inline"
     transform="matrix(0.0219353,0,0,0.02678038,42.574834,34.08962)"
     id="g6707"><rect
       style="color:#000000;display:inline;overflow:visible;visibility:visible;opacity:0.402062;fill:url(#linearGradient6715);fill-opacity:1;fill-rule:nonzero;stroke:none;stroke-width:1;stroke-linecap:round;stroke-linejoin:miter;stroke-miterlimit:4;stroke-dasharray:none;stroke-dashoffset:0;stroke-opacity:1;marker:none;marker-start:none;marker-mid:none;marker-end:none"
       id="rect6709"
       width="1339.6335"
       height="478.35718"
       x="-1559.2523"
       y="-150.69685" /><path
       style="color:#000000;display:inline;overflow:visible;visibility:visible;opacity:0.402062;fill:url(#radialGradient6717);fill-opacity:1;fill-rule:nonzero;stroke:none;stroke-width:1;stroke-linecap:round;stroke-linejoin:miter;stroke-miterlimit:4;stroke-dasharray:none;stroke-dashoffset:0;stroke-opacity:1;marker:none;marker-start:none;marker-mid:none;marker-end:none"
       d="m -219.61876,-150.68038 c 0,0 0,478.33079 0,478.33079 142.874166,0.90045 345.40022,-107.16966 345.40014,-239.196175 0,-132.026537 -159.436816,-239.134595 -345.40014,-239.134615 z"
       id="path6711"
       sodipodi:nodetypes="cccc" /><path
       sodipodi:nodetypes="cccc"
       id="path6713"
       d="m -1559.2523,-150.68038 c 0,0 0,478.33079 0,478.33079 -142.8742,0.90045 -345.4002,-107.16966 -345.4002,-239.196175 0,-132.026537 159.4368,-239.134595 345.4002,-239.134615 z"
       style="color:#000000;display:inline;overflow:visible;visibility:visible;opacity:0.402062;fill:url(#radialGradient6719);fill-opacity:1;fill-rule:nonzero;stroke:none;stroke-width:1;stroke-linecap:round;stroke-linejoin:miter;stroke-miterlimit:4;stroke-dasharray:none;stroke-dashoffset:0;stroke-opacity:1;marker:none;marker-start:none;marker-mid:none;marker-end:none" /></g><path
     style="color:#000000;display:inline;overflow:visible;visibility:visible;fill:url(#linearGradient8148);fill-opacity:1;fill-rule:nonzero;stroke:#bbbfbb;stroke-width:1;stroke-linecap:butt;stroke-linejoin:miter;stroke-miterlimit:4;stroke-dashoffset:0;stroke-opacity:1;marker:none;marker-start:none;marker-mid:none;marker-end:none"
     d="M 2.7177715,6.4547749 H 43.379544 c 0.623249,0 1.124999,0.5017498 1.124999,1.1249996 V 31.480581 c 0,0.62325 -8.456701,8.019291 -9.07995,8.019291 H 2.7177715 c -0.6232494,0 -1.1249988,-0.50175 -1.1249988,-1.125 V 7.5797745 c 0,-0.6232498 0.5017494,-1.1249996 1.1249988,-1.1249996 z"
     id="rect7603"
     sodipodi:nodetypes="ccccccccc" /><g
     id="g7654"
     transform="matrix(1.054774,0,0,1.049989,-0.814647,4.485012)"><path
       id="path7644"
       d="M 5.512695,30 H 39.643234 V 19.627375 H 5.512695 Z"
       style="fill:url(#linearGradient7671);fill-opacity:1;fill-rule:nonzero;stroke:none;stroke-width:1.21667;stroke-miterlimit:4" /><path
       style="fill:url(#linearGradient7673);fill-rule:nonzero;stroke:none;stroke-width:1.21667;stroke-miterlimit:4"
       d="M 5.512695,5.237844 H 39.643234 V 19.627375 H 5.512695 Z"
       id="path16203" /><g
       id="g16205"
       style="fill-rule:nonzero;stroke:#000000;stroke-width:1.15611;stroke-miterlimit:4"
       transform="matrix(1.189217,0,0,1.189217,-3.525355,-6.535408)">
			<g
   id="g16207">
				<path
   style="opacity:0.0499999;fill:#e8f52f;stroke:none"
   d="m 18.4,15.4 c 0,2.2 -1.8,4.1 -4.1,4.1 -2.2,0 -4.1,-1.8 -4.1,-4.1 0,-2.2 1.8,-4.1 4.1,-4.1 2.2,0 4.1,1.8 4.1,4.1 z"
   id="path16209" />




				<path
   style="opacity:0.2083;fill:#ecf751;stroke:none"
   d="m 18,15.4 c 0,2 -1.6,3.7 -3.7,3.7 -2,0 -3.7,-1.6 -3.7,-3.7 0,-2 1.6,-3.7 3.7,-3.7 2,0 3.7,1.6 3.7,3.7 z"
   id="path16211" />




				<path
   style="opacity:0.3667;fill:#f0f972;stroke:none"
   d="m 17.6,15.4 c 0,1.8 -1.5,3.3 -3.3,3.3 -1.8,0 -3.3,-1.5 -3.3,-3.3 0,-1.8 1.5,-3.3 3.3,-3.3 1.8,0 3.3,1.5 3.3,3.3 z"
   id="path16213" />




				<path
   style="opacity:0.525;fill:#f4fa95;stroke:none"
   d="m 17.2,15.4 c 0,1.6 -1.3,2.9 -2.9,2.9 -1.6,0 -2.9,-1.3 -2.9,-2.9 0,-1.6 1.3,-2.9 2.9,-2.9 1.6,0 2.9,1.3 2.9,2.9 z"
   id="path16215" />




				<path
   style="opacity:0.6833;fill:#f7fcb7;stroke:none"
   d="m 16.8,15.4 c 0,1.4 -1.1,2.5 -2.5,2.5 -1.4,0 -2.5,-1.1 -2.5,-2.5 0,-1.4 1.1,-2.5 2.5,-2.5 1.4,0 2.5,1.1 2.5,2.5 z"
   id="path16217" />




				<path
   style="opacity:0.8417;fill:#fbfddb;stroke:none"
   d="m 16.4,15.4 c 0,1.2 -1,2.1 -2.1,2.1 -1.1,0 -2.1,-1 -2.1,-2.1 0,-1.1 1,-2.1 2.1,-2.1 1.1,0 2.1,1 2.1,2.1 z"
   id="path16219" />




				<path
   style="fill:#ffffff;stroke:none"
   d="m 16,15.4 c 0,1 -0.8,1.8 -1.8,1.8 -1,0 -1.8,-0.8 -1.8,-1.8 0,-1 0.8,-1.8 1.8,-1.8 1,0 1.8,0.8 1.8,1.8 z"
   id="path16221" />




			</g>




		</g><path
       style="opacity:0.3;fill-rule:nonzero;stroke:none;stroke-width:1.21667;stroke-miterlimit:4"
       d="m 25.015859,21.649044 h 8.681289 l 1.664904,0.475688 h -2.854121 c 0,0 2.854121,0.237842 4.281184,2.021669 1.427059,1.664904 -1.664905,3.686575 -1.664905,3.686575 0,0 0,0 0,0 -0.118922,-0.356766 -0.832454,-3.210889 -2.259514,-4.400106 -1.070297,-0.951374 -2.259514,-1.189218 -2.259514,-1.189218 h -5.589323 v -0.475686 z"
       id="path16223" /><path
       style="opacity:0.3;fill-rule:nonzero;stroke:none;stroke-width:1.21667;stroke-miterlimit:4"
       d="m 30.724106,22.362574 h -4.994715 l 9.275897,5.232557 z"
       id="path16225" /><path
       style="fill:#515151;fill-rule:nonzero;stroke:none;stroke-width:1.21667;stroke-miterlimit:4"
       d="m 25.015859,21.767966 h 8.681289 l 1.30814,-0.832453 h -2.854121 c 0,0 2.616276,-0.475686 2.973043,-3.448731 0.356763,-2.973043 -4.043341,-6.302851 -4.043341,-6.302851 0,0 0,0 0,0.118922 0.118921,0.71353 1.308138,5.708243 0.475688,7.610993 -0.356767,1.664901 -1.427062,2.021667 -1.427062,2.021667 h -5.470401 l 0.237844,0.832453 z"
       id="path16227" /><path
       style="fill:#515151;fill-rule:nonzero;stroke:none;stroke-width:1.21667;stroke-miterlimit:4"
       d="M 30.248418,20.459827 H 25.253704 L 31.19979,11.421773 Z"
       id="path16229" /></g><path
     style="color:#000000;display:inline;overflow:visible;visibility:visible;fill:none;fill-opacity:1;fill-rule:nonzero;stroke:#ffffff;stroke-width:1;stroke-linecap:butt;stroke-linejoin:miter;stroke-miterlimit:4;stroke-dashoffset:0;stroke-opacity:1;marker:none;marker-start:none;marker-mid:none;marker-end:none"
     d="M 2.8042317,7.4528585 H 43.233985 c 0.150381,0 0.271446,0.1210649 0.271446,0.271446 V 31.422651 c 0,0.945876 -7.103744,7.077349 -7.254125,7.077349 H 2.8042317 c -0.150381,0 -0.2714459,-0.121065 -0.2714459,-0.271446 V 7.7243045 c 0,-0.1503811 0.1210649,-0.271446 0.2714459,-0.271446 z"
     id="rect7675"
     sodipodi:nodetypes="ccccccccc" /><rect
     style="color:#000000;display:inline;overflow:visible;visibility:visible;opacity:0.846591;fill:none;fill-opacity:1;fill-rule:nonzero;stroke:#4f4f4f;stroke-width:1;stroke-linecap:butt;stroke-linejoin:miter;stroke-miterlimit:4;stroke-dasharray:none;stroke-dashoffset:0;stroke-opacity:1;marker:none;marker-start:none;marker-mid:none;marker-end:none"
     id="rect8163"
     width="35.0625"
     height="25.0625"
     x="5.5"
     y="10.5" /><path
     style="color:#000000;display:inline;overflow:visible;visibility:visible;fill:url(#linearGradient8169);fill-opacity:1;fill-rule:evenodd;stroke:url(#linearGradient8177);stroke-width:1;stroke-linecap:butt;stroke-linejoin:miter;stroke-miterlimit:4;stroke-dasharray:none;stroke-dashoffset:0;stroke-opacity:1;marker:none;marker-start:none;marker-mid:none;marker-end:none"
     d="m 35.206652,39.468763 c 2.030418,0.329898 9.588793,-4.529929 9.284411,-8.497844 -1.563262,2.423097 -4.758522,1.286738 -8.86728,1.445748 0,0 0.395369,6.552096 -0.417131,7.052096 z"
     id="path2210"
     sodipodi:nodetypes="cccc" /><path
     sodipodi:nodetypes="cccc"
     id="path2247"
     d="m 36.657089,37.277261 c 1.369779,-0.683829 4.428249,-2.146465 5.72763,-4.027469 -1.596094,0.680055 -2.94781,0.209496 -5.702334,0.190405 0,0 0.162322,3.062094 -0.0253,3.837064 z"
     style="color:#000000;display:inline;overflow:visible;visibility:visible;opacity:0.369318;fill:none;fill-opacity:1;fill-rule:evenodd;stroke:url(#linearGradient8166);stroke-width:1;stroke-linecap:butt;stroke-linejoin:miter;stroke-miterlimit:4;stroke-dasharray:none;stroke-dashoffset:0;stroke-opacity:1;marker:none;marker-start:none;marker-mid:none;marker-end:none" /><path
     style="color:#000000;display:inline;overflow:visible;visibility:visible;opacity:0.301136;fill:url(#radialGradient8161);fill-opacity:1;fill-rule:nonzero;stroke:none;stroke-width:1;stroke-linecap:butt;stroke-linejoin:miter;stroke-miterlimit:4;stroke-dasharray:none;stroke-dashoffset:0;stroke-opacity:1;marker:none;marker-start:none;marker-mid:none;marker-end:none"
     d="M 3.0625,8 V 30.0625 C 25.388579,30.950861 27.884634,17 43,17 V 8 Z"
     id="rect8150"
     sodipodi:nodetypes="ccccc" /></g></svg>
