<?xml version="1.0" encoding="UTF-8" standalone="no"?>
<svg
   xmlns:dc="http://purl.org/dc/elements/1.1/"
   xmlns:cc="http://creativecommons.org/ns#"
   xmlns:rdf="http://www.w3.org/1999/02/22-rdf-syntax-ns#"
   xmlns:svg="http://www.w3.org/2000/svg"
   xmlns="http://www.w3.org/2000/svg"
   xmlns:xlink="http://www.w3.org/1999/xlink"
   xmlns:sodipodi="http://sodipodi.sourceforge.net/DTD/sodipodi-0.dtd"
   xmlns:inkscape="http://www.inkscape.org/namespaces/inkscape"
   inkscape:export-ydpi="96"
   inkscape:export-xdpi="96"
   inkscape:export-filename="..\..\256x256\mimetypes\text-x-script.png"
   sodipodi:docname="text-x-script.svg"
   inkscape:version="1.0.1 (3bc2e813f5, 2020-09-07)"
   sodipodi:version="0.32"
   id="svg249"
   height="256px"
   width="256px"
   inkscape:output_extension="org.inkscape.output.svg.inkscape"
   version="1.1">
  <title
     id="title124">Generic Script Icon</title>
  <defs
     id="defs3">
    <inkscape:perspective
       sodipodi:type="inkscape:persp3d"
       inkscape:vp_x="0 : 24 : 1"
       inkscape:vp_y="0 : 1000 : 0"
       inkscape:vp_z="48 : 24 : 1"
       inkscape:persp3d-origin="24 : 16 : 1"
       id="perspective76" />
    <radialGradient
       inkscape:collect="always"
       xlink:href="#linearGradient5060"
       id="radialGradient6719"
       gradientUnits="userSpaceOnUse"
       gradientTransform="matrix(-2.774389,0,0,1.969706,112.7623,-872.8854)"
       cx="605.71429"
       cy="486.64789"
       fx="605.71429"
       fy="486.64789"
       r="117.14286" />
    <linearGradient
       inkscape:collect="always"
       id="linearGradient5060">
      <stop
         style="stop-color:black;stop-opacity:1;"
         offset="0"
         id="stop5062" />
      <stop
         style="stop-color:black;stop-opacity:0;"
         offset="1"
         id="stop5064" />
    </linearGradient>
    <radialGradient
       inkscape:collect="always"
       xlink:href="#linearGradient5060"
       id="radialGradient6717"
       gradientUnits="userSpaceOnUse"
       gradientTransform="matrix(2.774389,0,0,1.969706,-1891.633,-872.8854)"
       cx="605.71429"
       cy="486.64789"
       fx="605.71429"
       fy="486.64789"
       r="117.14286" />
    <linearGradient
       id="linearGradient5048">
      <stop
         style="stop-color:black;stop-opacity:0;"
         offset="0"
         id="stop5050" />
      <stop
         id="stop5056"
         offset="0.5"
         style="stop-color:black;stop-opacity:1;" />
      <stop
         style="stop-color:black;stop-opacity:0;"
         offset="1"
         id="stop5052" />
    </linearGradient>
    <linearGradient
       inkscape:collect="always"
       xlink:href="#linearGradient5048"
       id="linearGradient6715"
       gradientUnits="userSpaceOnUse"
       gradientTransform="matrix(2.774389,0,0,1.969706,-1892.179,-872.8854)"
       x1="302.85715"
       y1="366.64789"
       x2="302.85715"
       y2="609.50507" />
    <linearGradient
       inkscape:collect="always"
       id="linearGradient3082">
      <stop
         style="stop-color:#ffffff;stop-opacity:1;"
         offset="0"
         id="stop3084" />
      <stop
         style="stop-color:#ffffff;stop-opacity:0;"
         offset="1"
         id="stop3086" />
    </linearGradient>
    <linearGradient
       id="aigrd1"
       gradientUnits="userSpaceOnUse"
       x1="99.7773"
       y1="15.4238"
       x2="153.0005"
       y2="248.6311">
      <stop
         offset="0"
         style="stop-color:#464646;stop-opacity:1"
         id="stop53300" />
      <stop
         offset="1"
         style="stop-color:#cdcdcd;stop-opacity:1"
         id="stop53302" />
    </linearGradient>
    <linearGradient
       inkscape:collect="always"
       id="linearGradient4542">
      <stop
         style="stop-color:#000000;stop-opacity:1;"
         offset="0"
         id="stop4544" />
      <stop
         style="stop-color:#000000;stop-opacity:0;"
         offset="1"
         id="stop4546" />
    </linearGradient>
    <linearGradient
       id="linearGradient15662">
      <stop
         id="stop15664"
         offset="0.0000000"
         style="stop-color:#ffffff;stop-opacity:1.0000000;" />
      <stop
         id="stop15666"
         offset="1.0000000"
         style="stop-color:#f8f8f8;stop-opacity:1.0000000;" />
    </linearGradient>
    <radialGradient
       id="aigrd3"
       cx="20.8921"
       cy="64.5679"
       r="5.257"
       fx="20.8921"
       fy="64.5679"
       gradientUnits="userSpaceOnUse">
      <stop
         offset="0"
         style="stop-color:#F0F0F0"
         id="stop15573" />
      <stop
         offset="1.0000000"
         style="stop-color:#9a9a9a;stop-opacity:1.0000000;"
         id="stop15575" />
    </radialGradient>
    <radialGradient
       id="aigrd2"
       cx="20.8921"
       cy="114.5684"
       r="5.256"
       fx="20.8921"
       fy="114.5684"
       gradientUnits="userSpaceOnUse">
      <stop
         offset="0"
         style="stop-color:#F0F0F0"
         id="stop15566" />
      <stop
         offset="1.0000000"
         style="stop-color:#9a9a9a;stop-opacity:1.0000000;"
         id="stop15568" />
    </radialGradient>
    <linearGradient
       id="linearGradient269">
      <stop
         id="stop270"
         offset="0.0000000"
         style="stop-color:#a3a3a3;stop-opacity:1.0000000;" />
      <stop
         id="stop271"
         offset="1.0000000"
         style="stop-color:#4c4c4c;stop-opacity:1.0000000;" />
    </linearGradient>
    <linearGradient
       id="linearGradient259">
      <stop
         id="stop260"
         offset="0.0000000"
         style="stop-color:#fafafa;stop-opacity:1.0000000;" />
      <stop
         id="stop261"
         offset="1.0000000"
         style="stop-color:#bbbbbb;stop-opacity:1.0000000;" />
    </linearGradient>
    <radialGradient
       inkscape:collect="always"
       xlink:href="#linearGradient269"
       id="radialGradient15656"
       gradientUnits="userSpaceOnUse"
       gradientTransform="matrix(0.968273,0,0,1.032767,3.353553,0.646447)"
       cx="8.8244190"
       cy="3.7561285"
       fx="8.8244190"
       fy="3.7561285"
       r="37.751713" />
    <radialGradient
       inkscape:collect="always"
       xlink:href="#linearGradient259"
       id="radialGradient15658"
       gradientUnits="userSpaceOnUse"
       gradientTransform="scale(0.960493,1.041132)"
       cx="33.966679"
       cy="35.736916"
       fx="33.966679"
       fy="35.736916"
       r="86.708450" />
    <radialGradient
       inkscape:collect="always"
       xlink:href="#linearGradient15662"
       id="radialGradient15668"
       gradientUnits="userSpaceOnUse"
       gradientTransform="matrix(0.968273,0,0,1.032767,3.353553,0.646447)"
       cx="8.1435566"
       cy="7.2678967"
       fx="8.1435566"
       fy="7.2678967"
       r="38.158695" />
    <radialGradient
       r="5.256"
       fy="114.5684"
       fx="20.8921"
       cy="114.5684"
       cx="20.8921"
       gradientTransform="matrix(0.229703,0,0,0.229703,4.613529,3.979808)"
       gradientUnits="userSpaceOnUse"
       id="radialGradient2283"
       xlink:href="#aigrd2"
       inkscape:collect="always" />
    <radialGradient
       r="5.257"
       fy="64.5679"
       fx="20.8921"
       cy="64.5679"
       cx="20.8921"
       gradientTransform="matrix(0.229703,0,0,0.229703,4.613529,3.979808)"
       gradientUnits="userSpaceOnUse"
       id="radialGradient2285"
       xlink:href="#aigrd3"
       inkscape:collect="always" />
    <radialGradient
       inkscape:collect="always"
       xlink:href="#linearGradient4542"
       id="radialGradient4548"
       cx="24.306795"
       cy="42.07798"
       fx="24.306795"
       fy="42.07798"
       r="15.821514"
       gradientTransform="matrix(1.000000,0.000000,0.000000,0.284916,0.000000,30.08928)"
       gradientUnits="userSpaceOnUse" />
    <linearGradient
       inkscape:collect="always"
       xlink:href="#aigrd1"
       id="linearGradient2193"
       gradientUnits="userSpaceOnUse"
       gradientTransform="matrix(0.200685,0,0,0.200685,25.33302,3.157373)"
       x1="99.7773"
       y1="15.4238"
       x2="153.0005"
       y2="248.6311" />
    <linearGradient
       inkscape:collect="always"
       xlink:href="#linearGradient3082"
       id="linearGradient3088"
       x1="44.592766"
       y1="9.9124937"
       x2="65.862885"
       y2="43.31715"
       gradientUnits="userSpaceOnUse" />
  </defs>
  <sodipodi:namedview
     inkscape:window-y="42"
     inkscape:window-x="333"
     inkscape:window-height="886"
     inkscape:window-width="1572"
     inkscape:document-units="px"
     inkscape:grid-bbox="true"
     showgrid="false"
     inkscape:current-layer="layer5"
     inkscape:cy="119.73769"
     inkscape:cx="45.372094"
     inkscape:zoom="2"
     inkscape:pageshadow="2"
     inkscape:pageopacity="0.0"
     borderopacity="0.25490196"
     bordercolor="#666666"
     pagecolor="#ffffff"
     id="base"
     inkscape:showpageshadow="false"
     inkscape:document-rotation="0"
     inkscape:pagecheckerboard="true"
     inkscape:window-maximized="0" />
  <metadata
     id="metadata4">
    <rdf:RDF>
      <cc:Work
         rdf:about="">
        <dc:format>image/svg+xml</dc:format>
        <dc:type
           rdf:resource="http://purl.org/dc/dcmitype/StillImage" />
        <dc:title>Generic Script Icon</dc:title>
        <dc:subject>
          <rdf:Bag>
            <rdf:li>text</rdf:li>
            <rdf:li>plaintext</rdf:li>
            <rdf:li>regular</rdf:li>
            <rdf:li>script</rdf:li>
            <rdf:li>shell</rdf:li>
            <rdf:li>bash</rdf:li>
            <rdf:li>python</rdf:li>
            <rdf:li>perl</rdf:li>
            <rdf:li>php</rdf:li>
            <rdf:li>ruby</rdf:li>
            <rdf:li>computer</rdf:li>
            <rdf:li>icon</rdf:li>
          </rdf:Bag>
        </dc:subject>
        <cc:license
           rdf:resource="http://creativecommons.org/publicdomain/zero/1.0/" />
        <dc:creator>
          <cc:Agent>
            <dc:title>Jakub Steiner, Daniel S. Fowler</dc:title>
          </cc:Agent>
        </dc:creator>
        <dc:source>https://tekeye.uk/free_resources/tango_desktop_project/index</dc:source>
        <dc:date> 2020-12-29</dc:date>
        <dc:rights>
          <cc:Agent>
            <dc:title>Public Domain</dc:title>
          </cc:Agent>
        </dc:rights>
        <dc:publisher>
          <cc:Agent>
            <dc:title>https://tekeye.uk/</dc:title>
          </cc:Agent>
        </dc:publisher>
        <dc:identifier>https://tekeye.uk/free_resources/tango_desktop_project/images/svg/mimetypes/text-x-script.svg</dc:identifier>
        <dc:relation>https://tekeye.uk/free_resources/tango_desktop_project/images/svg/mimetypes/text-x-generic.svg</dc:relation>
        <dc:language>en-GB</dc:language>
        <dc:coverage>computing</dc:coverage>
        <dc:description>An icon for a script.</dc:description>
      </cc:Work>
      <cc:License
         rdf:about="http://creativecommons.org/publicdomain/zero/1.0/">
        <cc:permits
           rdf:resource="http://creativecommons.org/ns#Reproduction" />
        <cc:permits
           rdf:resource="http://creativecommons.org/ns#Distribution" />
        <cc:permits
           rdf:resource="http://creativecommons.org/ns#DerivativeWorks" />
      </cc:License>
    </rdf:RDF>
  </metadata>
  <g
     inkscape:groupmode="layer"
     id="layer5"
     inkscape:label="Text"
     style="display:inline">
    <g
       id="g122"
       transform="matrix(5.6226375,0,0,5.6226457,-14.462278,-15.691352)">
      <g
         style="display:inline"
         transform="matrix(0.02105461,0,0,0.02086758,42.85172,41.1536)"
         id="g6707">
        <rect
           style="color:#000000;display:inline;overflow:visible;visibility:visible;opacity:0.402062;fill:url(#linearGradient6715);fill-opacity:1;fill-rule:nonzero;stroke:none;stroke-width:1;stroke-linecap:round;stroke-linejoin:miter;stroke-miterlimit:4;stroke-dasharray:none;stroke-dashoffset:0;stroke-opacity:1;marker:none;marker-start:none;marker-mid:none;marker-end:none"
           id="rect6709"
           width="1339.6335"
           height="478.35718"
           x="-1559.2523"
           y="-150.69685" />
        <path
           style="color:#000000;display:inline;overflow:visible;visibility:visible;opacity:0.402062;fill:url(#radialGradient6717);fill-opacity:1;fill-rule:nonzero;stroke:none;stroke-width:1;stroke-linecap:round;stroke-linejoin:miter;stroke-miterlimit:4;stroke-dasharray:none;stroke-dashoffset:0;stroke-opacity:1;marker:none;marker-start:none;marker-mid:none;marker-end:none"
           d="m -219.61876,-150.68038 c 0,0 0,478.33079 0,478.33079 142.874166,0.90045 345.40022,-107.16966 345.40014,-239.196175 0,-132.026537 -159.436816,-239.134595 -345.40014,-239.134615 z"
           id="path6711"
           sodipodi:nodetypes="cccc" />
        <path
           sodipodi:nodetypes="cccc"
           id="path6713"
           d="m -1559.2523,-150.68038 c 0,0 0,478.33079 0,478.33079 -142.8742,0.90045 -345.4002,-107.16966 -345.4002,-239.196175 0,-132.026537 159.4368,-239.134595 345.4002,-239.134615 z"
           style="color:#000000;display:inline;overflow:visible;visibility:visible;opacity:0.402062;fill:url(#radialGradient6719);fill-opacity:1;fill-rule:nonzero;stroke:none;stroke-width:1;stroke-linecap:round;stroke-linejoin:miter;stroke-miterlimit:4;stroke-dasharray:none;stroke-dashoffset:0;stroke-opacity:1;marker:none;marker-start:none;marker-mid:none;marker-end:none" />
      </g>
      <rect
         style="color:#000000;display:block;overflow:visible;visibility:visible;fill:url(#radialGradient15658);fill-opacity:1;fill-rule:nonzero;stroke:url(#radialGradient15656);stroke-width:1;stroke-linecap:round;stroke-linejoin:round;stroke-miterlimit:4;stroke-dashoffset:0;stroke-opacity:1;marker:none;marker-start:none;marker-mid:none;marker-end:none"
         id="rect15391"
         width="34.875"
         height="40.920494"
         x="6.6035528"
         y="3.6464462"
         ry="1.1490486" />
      <rect
         style="color:#000000;display:block;overflow:visible;visibility:visible;fill:none;fill-opacity:1;fill-rule:nonzero;stroke:url(#radialGradient15668);stroke-width:1;stroke-linecap:round;stroke-linejoin:round;stroke-miterlimit:4;stroke-dashoffset:0;stroke-opacity:1;marker:none;marker-start:none;marker-mid:none;marker-end:none"
         id="rect15660"
         width="32.775887"
         height="38.946384"
         x="7.6660538"
         y="4.5839462"
         ry="0.14904857"
         rx="0.14904857" />
      <g
         transform="translate(0.646447,-0.03798933)"
         id="g2270"
         style="display:inline">
        <g
           id="g1440"
           style="fill:#ffffff;fill-opacity:1;fill-rule:nonzero;stroke:#000000;stroke-miterlimit:4"
           transform="matrix(0.229703,0,0,0.229703,4.967081,4.244972)">
          <radialGradient
             id="radialGradient1442"
             cx="20.892099"
             cy="114.5684"
             r="5.256"
             fx="20.892099"
             fy="114.5684"
             gradientUnits="userSpaceOnUse">
            <stop
               offset="0"
               style="stop-color:#F0F0F0"
               id="stop1444" />
            <stop
               offset="1"
               style="stop-color:#474747"
               id="stop1446" />
          </radialGradient>
          <path
             style="stroke:none"
             d="m 23.428,113.07 c 0,1.973 -1.6,3.572 -3.573,3.572 -1.974,0 -3.573,-1.6 -3.573,-3.572 0,-1.974 1.6,-3.573 3.573,-3.573 1.973,0 3.573,1.6 3.573,3.573 z"
             id="path1448" />
          <radialGradient
             id="radialGradient1450"
             cx="20.892099"
             cy="64.567902"
             r="5.257"
             fx="20.892099"
             fy="64.567902"
             gradientUnits="userSpaceOnUse">
            <stop
               offset="0"
               style="stop-color:#F0F0F0"
               id="stop1452" />
            <stop
               offset="1"
               style="stop-color:#474747"
               id="stop1454" />
          </radialGradient>
          <path
             style="stroke:none"
             d="m 23.428,63.07 c 0,1.973 -1.6,3.573 -3.573,3.573 -1.974,0 -3.573,-1.6 -3.573,-3.573 0,-1.974 1.6,-3.573 3.573,-3.573 1.973,0 3.573,1.6 3.573,3.573 z"
             id="path1456" />
        </g>
        <path
           style="fill:url(#radialGradient2283);fill-rule:nonzero;stroke:none;stroke-miterlimit:4"
           d="m 9.9950109,29.952326 c 0,0.453204 -0.3675248,0.820499 -0.8207288,0.820499 -0.4534338,0 -0.8207289,-0.367524 -0.8207289,-0.820499 0,-0.453434 0.3675248,-0.820729 0.8207289,-0.820729 0.453204,0 0.8207288,0.367525 0.8207288,0.820729 z"
           id="path15570" />
        <path
           style="fill:url(#radialGradient2285);fill-rule:nonzero;stroke:none;stroke-miterlimit:4"
           d="m 9.9950109,18.467176 c 0,0.453204 -0.3675248,0.820729 -0.8207288,0.820729 -0.4534338,0 -0.8207289,-0.367525 -0.8207289,-0.820729 0,-0.453434 0.3675248,-0.820729 0.8207289,-0.820729 0.453204,0 0.8207288,0.367525 0.8207288,0.820729 z"
           id="path15577" />
      </g>
      <path
         style="display:inline;fill:none;fill-opacity:0.75;fill-rule:evenodd;stroke:#000000;stroke-width:0.988553;stroke-linecap:butt;stroke-linejoin:miter;stroke-miterlimit:4;stroke-opacity:0.0175438"
         d="M 11.505723,5.4942766 V 43.400869"
         id="path15672"
         sodipodi:nodetypes="cc" />
      <path
         style="display:inline;fill:none;fill-opacity:0.75;fill-rule:evenodd;stroke:#ffffff;stroke-width:1;stroke-linecap:butt;stroke-linejoin:miter;stroke-miterlimit:4;stroke-opacity:0.204678"
         d="M 12.5,5.0205154 V 43.038228"
         id="path15674"
         sodipodi:nodetypes="cc" />
      <g
         id="g2186"
         transform="matrix(0.703833,0,0,0.703833,-1.924835,14.32997)">
        <path
           id="path53304"
           d="M 50.204582,47.404518 30.293968,27.493904 50.204582,7.5832887 70.115196,27.493904 Z"
           style="fill:url(#linearGradient2193);fill-rule:nonzero;stroke:#3e3e3e;stroke-width:1.42079;stroke-linecap:round;stroke-linejoin:round;stroke-miterlimit:4;stroke-dasharray:none;stroke-opacity:1" />
        <path
           id="path53361"
           d="m 34.844554,31.353332 0.738449,-1.024184 c 0.63675,0.268492 1.300619,0.485069 1.986184,0.644885 l -0.0058,1.576858 c 0.427728,0.08834 0.86301,0.156136 1.304105,0.204371 l 0.481774,-1.501889 c 0.344041,0.02848 0.691764,0.04417 1.043361,0.04417 0.351209,0 0.699124,-0.0155 1.043166,-0.04417 l 0.481775,1.501889 c 0.441288,-0.04824 0.876376,-0.116036 1.304104,-0.204371 l -0.006,-1.577051 c 0.685758,-0.159623 1.349433,-0.3762 1.986182,-0.644692 l 0.92248,1.279502 c 0.402351,-0.182094 0.794241,-0.382591 1.174895,-0.600522 l -0.492817,-1.498016 c 0.59723,-0.36225 1.161723,-0.773319 1.687471,-1.227972 l 1.272141,0.931779 c 0.325638,-0.296581 0.637329,-0.608272 0.933716,-0.93391 l -0.931585,-1.271947 c 0.454847,-0.525748 0.865916,-1.090047 1.228166,-1.687665 l 1.498015,0.493011 c 0.217932,-0.380848 0.418623,-0.772932 0.600329,-1.175088 L 51.81534,23.716033 c 0.268492,-0.636749 0.485068,-1.300618 0.645079,-1.986376 l 1.576663,0.0058 c 0.08834,-0.427727 0.156137,-0.86301 0.204178,-1.304298 l -1.501695,-0.481774 c 0.02886,-0.343848 0.04417,-0.691764 0.04417,-1.043167 0,-0.351403 -0.01569,-0.699125 -0.04417,-1.043361 L 54.24126,17.381094 C 54.193413,16.94 54.125223,16.504911 54.037276,16.07699 l -1.577051,0.006 c -0.159817,-0.685759 -0.376393,-1.349627 -0.644691,-1.986181 l 1.279308,-0.922289 c -0.181707,-0.402351 -0.382591,-0.794242 -0.600135,-1.17509 l -1.498209,0.493011 C 50.634247,11.895022 50.223179,11.330723 49.768525,10.805169 L 50.700111,9.5330282 C 50.421739,9.2271488 50.129033,8.9350234 49.824703,8.6549084 L 30.985708,27.494098 31.99265,28.50104 32.291362,28.282334 c 0.525748,0.454653 1.090046,0.865722 1.68747,1.227972 l -0.241953,0.735157 1.108062,1.108062 z"
           style="opacity:0.5;fill:#ffffff;fill-rule:nonzero;stroke:none;stroke-miterlimit:4" />
        <path
           id="path53363"
           d="m 54.367757,36.399276 c 0,-6.484682 4.233883,-11.979469 10.08724,-13.874023 l -2.226972,-2.227167 c -0.01685,0.007 -0.0339,0.01298 -0.05056,0.02015 L 61.995952,20.066404 60.583948,18.6544 c -0.463178,0.2189 -0.91667,0.45446 -1.359314,0.707648 l 0.694089,2.109193 c -0.841314,0.509669 -1.635748,1.08869 -2.375747,1.728732 l -1.79111,-1.311659 c -0.458721,0.41746 -0.897297,0.856036 -1.314564,1.314565 l 1.311465,1.790914 c -0.640041,0.740195 -1.218868,1.534628 -1.728731,2.375748 l -2.109387,-0.694089 c -0.306654,0.536403 -0.589093,1.088304 -0.844994,1.654732 l 1.801182,1.298293 c -0.377942,0.896329 -0.682852,1.831014 -0.907758,2.796501 l -2.219999,-0.0085 c -0.124172,0.602266 -0.219869,1.215188 -0.287476,1.836051 l 2.114423,0.678398 c -0.04029,0.484293 -0.06199,0.97401 -0.06199,1.46857 0,0.494753 0.0217,0.98447 0.06199,1.468763 l -2.114423,0.677816 c 0.06761,0.621251 0.163304,1.233979 0.28767,1.836245 l 2.219805,-0.0083 c 0.224906,0.965487 0.529816,1.900172 0.907758,2.796502 l -1.801182,1.298486 c 0.142382,0.31479 0.293869,0.624931 0.452136,0.930423 l 3.804023,-3.803636 c -0.61602,-1.614245 -0.95425,-3.365836 -0.95425,-5.196269 z"
           style="opacity:0.5;fill:#ffffff;fill-rule:nonzero;stroke:none;stroke-miterlimit:4" />
        <path
           style="opacity:0.520468;fill:none;fill-rule:nonzero;stroke:url(#linearGradient3088);stroke-width:1.42079;stroke-linecap:butt;stroke-linejoin:miter;stroke-miterlimit:4;stroke-dasharray:none;stroke-opacity:1"
           d="M 50.204564,45.706929 31.991529,27.493894 50.204564,9.2808575 68.417599,27.493894 Z"
           id="path3078" />
      </g>
    </g>
  </g>
</svg>
