<?xml version="1.0" encoding="UTF-8" standalone="no"?>
<svg
   xmlns:dc="http://purl.org/dc/elements/1.1/"
   xmlns:cc="http://creativecommons.org/ns#"
   xmlns:rdf="http://www.w3.org/1999/02/22-rdf-syntax-ns#"
   xmlns:svg="http://www.w3.org/2000/svg"
   xmlns="http://www.w3.org/2000/svg"
   xmlns:xlink="http://www.w3.org/1999/xlink"
   xmlns:sodipodi="http://sodipodi.sourceforge.net/DTD/sodipodi-0.dtd"
   xmlns:inkscape="http://www.inkscape.org/namespaces/inkscape"
   width="256px"
   height="256px"
   id="svg1256"
   sodipodi:version="0.32"
   inkscape:version="1.0.1 (3bc2e813f5, 2020-09-07)"
   sodipodi:docname="x-office-address-book.svg"
   inkscape:output_extension="org.inkscape.output.svg.inkscape"
   version="1.1"
   inkscape:export-filename="..\..\256x256\mimetypes\x-office-address-book.png"
   inkscape:export-xdpi="96"
   inkscape:export-ydpi="96">
  <title
     id="title77">Address Book Icon</title>
  <defs
     id="defs3">
    <inkscape:perspective
       sodipodi:type="inkscape:persp3d"
       inkscape:vp_x="0 : 24 : 1"
       inkscape:vp_y="0 : 1000 : 0"
       inkscape:vp_z="48 : 24 : 1"
       inkscape:persp3d-origin="24 : 16 : 1"
       id="perspective58" />
    <radialGradient
       inkscape:collect="always"
       xlink:href="#linearGradient5060"
       id="radialGradient6719"
       gradientUnits="userSpaceOnUse"
       gradientTransform="matrix(-2.774389,0,0,1.969706,112.7623,-872.8854)"
       cx="605.71429"
       cy="486.64789"
       fx="605.71429"
       fy="486.64789"
       r="117.14286" />
    <linearGradient
       inkscape:collect="always"
       id="linearGradient5060">
      <stop
         style="stop-color:black;stop-opacity:1;"
         offset="0"
         id="stop5062" />
      <stop
         style="stop-color:black;stop-opacity:0;"
         offset="1"
         id="stop5064" />
    </linearGradient>
    <radialGradient
       inkscape:collect="always"
       xlink:href="#linearGradient5060"
       id="radialGradient6717"
       gradientUnits="userSpaceOnUse"
       gradientTransform="matrix(2.774389,0,0,1.969706,-1891.633,-872.8854)"
       cx="605.71429"
       cy="486.64789"
       fx="605.71429"
       fy="486.64789"
       r="117.14286" />
    <linearGradient
       id="linearGradient5048">
      <stop
         style="stop-color:black;stop-opacity:0;"
         offset="0"
         id="stop5050" />
      <stop
         id="stop5056"
         offset="0.5"
         style="stop-color:black;stop-opacity:1;" />
      <stop
         style="stop-color:black;stop-opacity:0;"
         offset="1"
         id="stop5052" />
    </linearGradient>
    <linearGradient
       inkscape:collect="always"
       xlink:href="#linearGradient5048"
       id="linearGradient6715"
       gradientUnits="userSpaceOnUse"
       gradientTransform="matrix(2.774389,0,0,1.969706,-1892.179,-872.8854)"
       x1="302.85715"
       y1="366.64789"
       x2="302.85715"
       y2="609.50507" />
    <linearGradient
       id="linearGradient12512">
      <stop
         style="stop-color:#ffffff;stop-opacity:1.0000000;"
         offset="0.0000000"
         id="stop12513" />
      <stop
         style="stop-color:#fff520;stop-opacity:0.89108908;"
         offset="0.50000000"
         id="stop12517" />
      <stop
         style="stop-color:#fff300;stop-opacity:0.0000000;"
         offset="1.0000000"
         id="stop12514" />
    </linearGradient>
    <radialGradient
       inkscape:collect="always"
       xlink:href="#linearGradient12512"
       id="radialGradient278"
       gradientUnits="userSpaceOnUse"
       cx="55.000000"
       cy="125.00000"
       fx="55.000000"
       fy="125.00000"
       r="14.375000" />
    <linearGradient
       inkscape:collect="always"
       id="linearGradient21644">
      <stop
         style="stop-color:#000000;stop-opacity:1;"
         offset="0"
         id="stop21646" />
      <stop
         style="stop-color:#000000;stop-opacity:0;"
         offset="1"
         id="stop21648" />
    </linearGradient>
    <linearGradient
       inkscape:collect="always"
       id="linearGradient2116">
      <stop
         style="stop-color:#ffffff;stop-opacity:1;"
         offset="0"
         id="stop2118" />
      <stop
         style="stop-color:#ffffff;stop-opacity:0;"
         offset="1"
         id="stop2120" />
    </linearGradient>
    <linearGradient
       id="linearGradient2094">
      <stop
         style="stop-color:#d6e3f0;stop-opacity:1.0000000;"
         offset="0.0000000"
         id="stop2096" />
      <stop
         style="stop-color:#95b1cf;stop-opacity:1.0000000;"
         offset="1.0000000"
         id="stop2098" />
    </linearGradient>
    <linearGradient
       id="linearGradient2803">
      <stop
         id="stop2805"
         offset="0"
         style="stop-color:#ffffff;stop-opacity:1;" />
      <stop
         id="stop2807"
         offset="1.0000000"
         style="stop-color:#cbcbcb;stop-opacity:1.0000000;" />
    </linearGradient>
    <linearGradient
       id="linearGradient2795">
      <stop
         id="stop2797"
         offset="0.0000000"
         style="stop-color:#000000;stop-opacity:0.068627454;" />
      <stop
         id="stop2799"
         offset="1.0000000"
         style="stop-color:#ffffff;stop-opacity:1.0000000;" />
    </linearGradient>
    <linearGradient
       gradientUnits="userSpaceOnUse"
       y2="4.9530048"
       x2="41.219128"
       y1="4.9530050"
       x1="35.433035"
       gradientTransform="matrix(0.254,0,0,3.759813,0.788629,0.148567)"
       id="linearGradient2801"
       xlink:href="#linearGradient2795"
       inkscape:collect="always" />
    <linearGradient
       gradientUnits="userSpaceOnUse"
       y2="84.287079"
       x2="10.219901"
       y1="93.338043"
       x1="10.496115"
       gradientTransform="matrix(2.262742,0,0,0.441942,1,-0.875)"
       id="linearGradient2813"
       xlink:href="#linearGradient2803"
       inkscape:collect="always" />
    <linearGradient
       inkscape:collect="always"
       xlink:href="#linearGradient2094"
       id="linearGradient2100"
       gradientTransform="matrix(0.95775,0,0,1.027989,1,-0.571911)"
       x1="6.5871811"
       y1="22.132999"
       x2="14.511404"
       y2="22.132999"
       gradientUnits="userSpaceOnUse" />
    <linearGradient
       inkscape:collect="always"
       xlink:href="#linearGradient2116"
       id="linearGradient2112"
       gradientTransform="matrix(1.025428,0,0,0.957303,0,-0.806758)"
       x1="73.361984"
       y1="26.652197"
       x2="-2.7582901"
       y2="21.270376"
       gradientUnits="userSpaceOnUse" />
    <radialGradient
       inkscape:collect="always"
       xlink:href="#linearGradient21644"
       id="radialGradient21650"
       cx="25.125"
       cy="36.75"
       fx="25.125"
       fy="36.75"
       r="15.75"
       gradientTransform="matrix(1.000000,0.000000,0.000000,0.595238,-6.245005e-16,14.87500)"
       gradientUnits="userSpaceOnUse" />
  </defs>
  <sodipodi:namedview
     id="base"
     pagecolor="#ffffff"
     bordercolor="#666666"
     borderopacity="0.27843137"
     inkscape:pageopacity="0.0"
     inkscape:pageshadow="2"
     inkscape:zoom="2"
     inkscape:cx="20.75205"
     inkscape:cy="127.90031"
     inkscape:current-layer="layer1"
     showgrid="false"
     inkscape:grid-bbox="true"
     inkscape:document-units="px"
     inkscape:window-width="1753"
     inkscape:window-height="803"
     inkscape:window-x="80"
     inkscape:window-y="30"
     fill="#ef2929"
     stroke="#cc0000"
     inkscape:showpageshadow="false"
     inkscape:document-rotation="0"
     inkscape:pagecheckerboard="true"
     inkscape:window-maximized="0" />
  <metadata
     id="metadata4">
    <rdf:RDF>
      <cc:Work
         rdf:about="">
        <dc:format>image/svg+xml</dc:format>
        <dc:type
           rdf:resource="http://purl.org/dc/dcmitype/StillImage" />
        <dc:title>Address Book Icon</dc:title>
        <dc:date> 2020-12-29</dc:date>
        <dc:creator>
          <cc:Agent>
            <dc:title>Jakub Steiner, Daniel S. Fowler</dc:title>
          </cc:Agent>
        </dc:creator>
        <dc:source>https://tekeye.uk/free_resources/tango_desktop_project/index</dc:source>
        <dc:subject>
          <rdf:Bag>
            <rdf:li>address</rdf:li>
            <rdf:li>contact</rdf:li>
            <rdf:li>book</rdf:li>
            <rdf:li>office</rdf:li>
            <rdf:li>computer</rdf:li>
            <rdf:li>icon</rdf:li>
          </rdf:Bag>
        </dc:subject>
        <cc:license
           rdf:resource="http://creativecommons.org/publicdomain/zero/1.0/" />
        <dc:rights>
          <cc:Agent>
            <dc:title>Public Domain</dc:title>
          </cc:Agent>
        </dc:rights>
        <dc:publisher>
          <cc:Agent>
            <dc:title>https://tekeye.uk/</dc:title>
          </cc:Agent>
        </dc:publisher>
        <dc:identifier>https://tekeye.uk/free_resources/tango_desktop_project/images/svg/mimetypes/x-office-address-book.svg</dc:identifier>
        <dc:relation>https://tekeye.uk/free_resources/tango_desktop_project/images/svg/mimetypes/text-x-generic.svg</dc:relation>
        <dc:language>en-GB</dc:language>
        <dc:coverage>computing</dc:coverage>
        <dc:description>An address book icon.</dc:description>
      </cc:Work>
      <cc:License
         rdf:about="http://creativecommons.org/publicdomain/zero/1.0/">
        <cc:permits
           rdf:resource="http://creativecommons.org/ns#Reproduction" />
        <cc:permits
           rdf:resource="http://creativecommons.org/ns#Distribution" />
        <cc:permits
           rdf:resource="http://creativecommons.org/ns#DerivativeWorks" />
      </cc:License>
    </rdf:RDF>
  </metadata>
  <g
     id="layer1"
     inkscape:label="Layer 1"
     inkscape:groupmode="layer">
    <g
       id="g75"
       transform="matrix(5.6039752,0,0,5.6039832,-13.410957,-9.9785109)">
      <path
         style="color:#000000;display:inline;overflow:visible;visibility:visible;opacity:1;fill:#edd400;fill-opacity:1;fill-rule:evenodd;stroke:#c4a000;stroke-width:1;stroke-linecap:round;stroke-linejoin:round;stroke-miterlimit:4;stroke-dasharray:none;stroke-dashoffset:0;stroke-opacity:1;marker:none;marker-start:none;marker-mid:none;marker-end:none"
         d="m 33.096456,4.6520202 h 7.424621 c 0.707107,0 1.237436,0.1767767 1.414213,1.0606598 l 0.883884,6.894292 c 0.08839,1.06066 -0.375651,1.414213 -1.325825,1.414213 h -8.57367 z"
         id="path21630"
         sodipodi:nodetypes="ccccccc" />
      <path
         sodipodi:nodetypes="ccccccc"
         id="path21632"
         d="m 34.10295,5.638875 h 6.360557 c 0.308149,0 0.476759,0.030162 0.522547,0.321598 l 0.791435,6.383976 c 0.06977,0.430972 0.182408,0.675355 -0.140278,0.689892 h -7.673799 z"
         style="color:#000000;display:inline;overflow:visible;visibility:visible;opacity:0.48538;fill:none;fill-opacity:1;fill-rule:evenodd;stroke:#ffffff;stroke-width:1;stroke-linecap:round;stroke-linejoin:round;stroke-miterlimit:4;stroke-dasharray:none;stroke-dashoffset:0;stroke-opacity:1;marker:none;marker-start:none;marker-mid:none;marker-end:none" />
      <path
         sodipodi:nodetypes="ccccccc"
         id="path21634"
         d="m 35.596456,12.40202 h 7.424621 c 0.707107,0 1.237436,0.176777 1.414213,1.06066 l 0.883884,6.894292 c 0.08839,1.06066 -0.375651,1.414213 -1.325825,1.414213 h -8.57367 z"
         style="color:#000000;display:inline;overflow:visible;visibility:visible;opacity:1;fill:#9db029;fill-opacity:1;fill-rule:evenodd;stroke:#727e0a;stroke-width:1;stroke-linecap:round;stroke-linejoin:round;stroke-miterlimit:4;stroke-dasharray:none;stroke-dashoffset:0;stroke-opacity:1;marker:none;marker-start:none;marker-mid:none;marker-end:none" />
      <path
         style="color:#000000;display:inline;overflow:visible;visibility:visible;opacity:0.48538;fill:none;fill-opacity:1;fill-rule:evenodd;stroke:#ffffff;stroke-width:1;stroke-linecap:round;stroke-linejoin:round;stroke-miterlimit:4;stroke-dasharray:none;stroke-dashoffset:0;stroke-opacity:1;marker:none;marker-start:none;marker-mid:none;marker-end:none"
         d="m 36.60295,13.388875 h 6.360557 c 0.308149,0 0.476759,0.03016 0.522547,0.321598 l 0.791435,6.383976 c 0.06977,0.430972 0.182408,0.675355 -0.140278,0.689892 h -7.673799 z"
         id="path21636"
         sodipodi:nodetypes="ccccccc" />
      <path
         style="color:#000000;display:inline;overflow:visible;visibility:visible;opacity:1;fill:#ef2929;fill-opacity:1;fill-rule:evenodd;stroke:#cc0000;stroke-width:1;stroke-linecap:round;stroke-linejoin:round;stroke-miterlimit:4;stroke-dasharray:none;stroke-dashoffset:0;stroke-opacity:1;marker:none;marker-start:none;marker-mid:none;marker-end:none"
         d="m 36.06451,20.776498 h 8.44541 c 0.804325,0 1.407567,0.219398 1.608649,1.316384 l 1.005406,8.556499 c 0.10054,1.316384 -0.427298,1.755179 -1.508109,1.755179 h -9.752438 z"
         id="path21638"
         sodipodi:nodetypes="ccccccc" />
      <path
         sodipodi:nodetypes="ccccccc"
         id="path21640"
         d="m 37.209384,21.763574 h 7.235051 c 0.350515,0 0.542307,0.03835 0.59439,0.408939 l 0.900247,8.117754 c 0.07936,0.548017 0.207487,0.858771 -0.159564,0.877255 h -8.728847 z"
         style="color:#000000;display:inline;overflow:visible;visibility:visible;opacity:0.48538;fill:none;fill-opacity:1;fill-rule:evenodd;stroke:#ffffff;stroke-width:1;stroke-linecap:round;stroke-linejoin:round;stroke-miterlimit:4;stroke-dasharray:none;stroke-dashoffset:0;stroke-opacity:1;marker:none;marker-start:none;marker-mid:none;marker-end:none" />
      <g
         style="display:inline"
         transform="matrix(0.02105461,0,0,0.02086758,42.85172,40.44648)"
         id="g6707">
        <rect
           style="color:#000000;display:inline;overflow:visible;visibility:visible;opacity:0.402062;fill:url(#linearGradient6715);fill-opacity:1;fill-rule:nonzero;stroke:none;stroke-width:1;stroke-linecap:round;stroke-linejoin:miter;stroke-miterlimit:4;stroke-dasharray:none;stroke-dashoffset:0;stroke-opacity:1;marker:none;marker-start:none;marker-mid:none;marker-end:none"
           id="rect6709"
           width="1339.6335"
           height="478.35718"
           x="-1559.2523"
           y="-150.69685" />
        <path
           style="color:#000000;display:inline;overflow:visible;visibility:visible;opacity:0.402062;fill:url(#radialGradient6717);fill-opacity:1;fill-rule:nonzero;stroke:none;stroke-width:1;stroke-linecap:round;stroke-linejoin:miter;stroke-miterlimit:4;stroke-dasharray:none;stroke-dashoffset:0;stroke-opacity:1;marker:none;marker-start:none;marker-mid:none;marker-end:none"
           d="m -219.61876,-150.68038 c 0,0 0,478.33079 0,478.33079 142.874166,0.90045 345.40022,-107.16966 345.40014,-239.196175 0,-132.026537 -159.436816,-239.134595 -345.40014,-239.134615 z"
           id="path6711"
           sodipodi:nodetypes="cccc" />
        <path
           sodipodi:nodetypes="cccc"
           id="path6713"
           d="m -1559.2523,-150.68038 c 0,0 0,478.33079 0,478.33079 -142.8742,0.90045 -345.4002,-107.16966 -345.4002,-239.196175 0,-132.026537 159.4368,-239.134595 345.4002,-239.134615 z"
           style="color:#000000;display:inline;overflow:visible;visibility:visible;opacity:0.402062;fill:url(#radialGradient6719);fill-opacity:1;fill-rule:nonzero;stroke:none;stroke-width:1;stroke-linecap:round;stroke-linejoin:miter;stroke-miterlimit:4;stroke-dasharray:none;stroke-dashoffset:0;stroke-opacity:1;marker:none;marker-start:none;marker-mid:none;marker-end:none" />
      </g>
      <path
         style="color:#000000;display:inline;overflow:visible;visibility:visible;fill:#5b6b94;fill-opacity:1;fill-rule:nonzero;stroke:#364878;stroke-width:1;stroke-linecap:round;stroke-linejoin:round;stroke-miterlimit:4;stroke-dashoffset:0;stroke-opacity:1;marker:none;marker-start:none;marker-mid:none;marker-end:none"
         d="M 6.3643222,5.5185897 C 6.4551049,3.6036003 7.3719758,2.5542814 9.0788784,2.549044 L 38.405776,2.4590577 c 0.246585,-7.566e-4 0.568541,0.2001494 0.593236,0.4499311 l 3.258479,32.9582392 -1.315302,0.05663 0.62924,6.445654 C 41.632441,42.994499 41.390059,43.52882 40.5,43.533035 L 9.7893046,43.678474 C 7.25676,43.690468 4.6538454,41.59976 4.7759337,39.024403 Z"
         id="rect1408"
         sodipodi:nodetypes="csssccsssss" />
      <path
         id="path2489"
         d="M 40.125,34.875 10.9375,35 c -1.5565181,0.177868 -2.8125,1.39612 -2.8125,3 0,1.60388 1.2559819,2.822132 2.8125,3 l 29.1875,0.125 v -0.0625 c -1.655622,-0.07815 -3,-1.387649 -3,-3.0625 0,-1.674851 1.344378,-2.984348 3,-3.0625 z"
         style="color:#000000;display:inline;overflow:visible;visibility:visible;fill:url(#linearGradient2813);fill-opacity:1;fill-rule:nonzero;stroke:none;stroke-width:1;stroke-linecap:round;stroke-linejoin:round;stroke-miterlimit:4;stroke-dashoffset:0;stroke-opacity:1;marker:none;marker-start:none;marker-mid:none;marker-end:none" />
      <path
         sodipodi:nodetypes="ccccccssc"
         id="path2784"
         d="m 9.6875,2.8125 c -1.7069103,0 -2.637397,1.0090062 -2.71875,2.8613658 L 5.3125,37.825772 C 5.22054,40.904199 7.1393732,42.654485 9.125,43.15625 4.875,41.525579 5.4375,34.164455 10.75,34.195222 H 41.648286 L 38.335786,3.2432432 C 38.310025,3.0025304 37.987878,2.8125 37.742036,2.8125 Z"
         style="color:#000000;display:inline;overflow:visible;visibility:visible;fill:url(#linearGradient2100);fill-opacity:1;fill-rule:nonzero;stroke:none;stroke-width:1;stroke-linecap:round;stroke-linejoin:round;stroke-miterlimit:4;stroke-dashoffset:0;stroke-opacity:1;marker:none;marker-start:none;marker-mid:none;marker-end:none" />
      <rect
         y="3.968539"
         x="9.7886267"
         height="29.604792"
         width="2"
         id="rect2793"
         style="color:#000000;display:inline;overflow:visible;visibility:visible;opacity:0.480447;fill:url(#linearGradient2801);fill-opacity:1;fill-rule:nonzero;stroke:none;stroke-width:1;stroke-linecap:round;stroke-linejoin:round;stroke-miterlimit:4;stroke-dashoffset:0;stroke-opacity:0.608187;marker:none;marker-start:none;marker-mid:none;marker-end:none"
         transform="matrix(1,0,-0.03582731,0.999358,0,0)" />
      <path
         style="color:#000000;display:inline;overflow:visible;visibility:visible;fill:none;fill-opacity:1;fill-rule:nonzero;stroke:url(#linearGradient2112);stroke-width:1;stroke-linecap:round;stroke-linejoin:miter;stroke-miterlimit:20;stroke-dasharray:none;stroke-dashoffset:0;stroke-opacity:1;marker:none;marker-start:none;marker-mid:none;marker-end:none"
         d="m 9.8751008,3.3336831 c -1.6838994,0 -2.3366772,0.7321628 -2.4169335,2.5541479 L 6.1592633,35.777198 C 7.0925916,34.170451 8.5988591,33.594437 11.011665,33.594437 H 40.963081 L 38.137179,3.7573631 c -0.02245,-0.2370539 -0.343218,-0.42368 -0.585745,-0.42368 z"
         id="path2104"
         sodipodi:nodetypes="cccscssc" />
      <path
         style="font-style:normal;font-variant:normal;font-weight:normal;font-stretch:normal;font-size:12px;line-height:120%;font-family:'Bitstream Vera Sans';writing-mode:lr-tb;text-anchor:start;fill:#ad7fa8;fill-opacity:1;stroke:none;stroke-width:1pt;stroke-linecap:butt;stroke-linejoin:miter;stroke-opacity:1"
         d="m 21.12553,18.381288 c -0.07525,1.120982 0.143846,2.002867 0.657282,2.645659 0.513939,0.634962 1.256929,0.952441 2.228976,0.95244 0.964182,1e-6 1.742217,-0.321397 2.334104,-0.964197 0.599697,-0.642792 0.936907,-1.52076 1.011637,-2.633902 0.07364,-1.097449 -0.150157,-1.967579 -0.671406,-2.610383 -0.520752,-0.650626 -1.259297,-0.975946 -2.215641,-0.975955 -0.94853,9e-6 -1.726565,0.32141 -2.334104,0.964195 -0.599722,0.642807 -0.936671,1.516853 -1.010848,2.622143 m 6.1724,3.515787 c -0.510868,0.603604 -1.081747,1.050426 -1.71264,1.340469 -0.622556,0.282203 -1.337536,0.423306 -2.14494,0.423305 -1.348318,1e-6 -2.413153,-0.486017 -3.194515,-1.458052 -0.773009,-0.979872 -1.106897,-2.253705 -1.001663,-3.821509 0.105223,-1.56779 0.614025,-2.841623 1.526412,-3.821507 0.91237,-0.979864 2.038791,-1.4698 3.37927,-1.469812 0.807403,1.2e-5 1.506835,0.148955 2.098296,0.446822 0.591957,0.290055 1.099202,0.732958 1.52173,1.32871 l 0.103387,-1.54036 h 1.681465 l -0.580864,8.654246 c 1.156049,-0.172456 2.084683,-0.69375 2.785901,-1.563879 0.709543,-0.877964 1.11089,-2.010696 1.204039,-3.398204 0.05627,-0.838762 -0.01627,-1.626582 -0.21764,-2.363456 -0.193571,-0.736854 -0.52015,-1.418846 -0.979733,-2.045975 -0.74635,-1.026894 -1.689284,-1.810793 -2.82881,-2.351697 -1.131197,-0.548714 -2.386618,-0.823079 -3.766264,-0.823095 -0.96421,1.6e-5 -1.897891,0.129359 -2.801047,0.38803 -0.902652,0.250863 -1.74708,0.627133 -2.533287,1.128814 -1.284398,0.799592 -2.319095,1.850015 -3.104098,3.151274 -0.77665,1.293444 -1.215744,2.69662 -1.317287,4.209539 -0.08366,1.246404 0.06136,2.414413 0.435048,3.504027 0.381523,1.089622 0.971626,2.049899 1.77031,2.880829 0.768368,0.815256 1.679238,1.434535 2.732615,1.857841 1.052833,0.431143 2.194615,0.646715 3.425347,0.646718 1.011216,-3e-6 2.014422,-0.172461 3.009622,-0.517372 1.002484,-0.33708 1.932666,-0.823097 2.790555,-1.458053 l 0.970662,1.305191 c -1.030927,0.760381 -2.139884,1.340465 -3.326869,1.740255 -1.179705,0.407625 -2.365314,0.611438 -3.556828,0.611442 -1.450223,-4e-6 -2.800763,-0.25869 -4.051621,-0.776059 -1.251403,-0.509538 -2.345912,-1.254241 -3.283528,-2.234113 -0.937627,-0.979874 -1.625901,-2.112606 -2.064822,-3.398204 -0.438402,-1.293427 -0.607881,-2.680929 -0.508437,-4.162502 0.09576,-1.426688 0.453567,-2.786752 1.073433,-4.080196 0.619864,-1.293421 1.456534,-2.430073 2.510021,-3.40996 1.078041,-0.995537 2.297086,-1.7559165 3.657137,-2.2811454 1.360555,-0.5330365 2.781621,-0.7995607 4.263202,-0.7995781 1.661852,1.74e-5 3.179324,0.3410135 4.552424,1.0229884 1.380902,0.6820071 2.511369,1.6501231 3.391403,2.9043461 0.53634,0.768232 0.927127,1.603086 1.172363,2.504559 0.253029,0.901491 0.347198,1.83433 0.282508,2.798519 -0.1384,2.061658 -0.870773,3.688248 -2.197123,4.87977 -1.326393,1.191529 -3.088615,1.810809 -5.286674,1.857842 l 0.12154,-1.810808"
         id="text21625" />
    </g>
  </g>
</svg>
